<?xml version="1.0" encoding="utf-8"?>
<!-- Generator: Adobe Illustrator 20.1.0, SVG Export Plug-In . SVG Version: 6.00 Build 0)  -->
<svg version="1.1" id="Outline_Icons" xmlns="http://www.w3.org/2000/svg" xmlns:xlink="http://www.w3.org/1999/xlink" x="0px"
	 y="0px" width="100px" height="100px" viewBox="0 0 100 100" style="enable-background:new 0 0 100 100;" xml:space="preserve">
<g>
	<path d="M55.4-17.1c2.6,1.3,3.5,3.7,3.8,6.4c0.1,0.4-0.1,0.8-0.6,0.9c-0.5,0.1-0.9-0.2-1-0.7c-0.2-0.8-0.4-1.7-0.7-2.5
		c-0.5-1.5-1.6-2.5-3.1-2.8c-2.4-0.5-4.7-0.3-6.8,1c-0.5,0.3-0.9,0.8-1.3,1.2c-0.4,0.4-0.8,0.5-1.3,0.2c-0.4-0.3-0.4-0.8-0.1-1.3
		c0.9-1.3,2.2-2,3.6-2.5C50.4-17.1,52.9-17.1,55.4-17.1z"/>
	<path d="M119.5-17.1c-0.5,1.1-0.8,2.2-1.4,3.2c-1.3,2.1-3.6,2.7-6,2.1c-2.6-0.6-4.4-2.3-5.5-4.7c-0.1-0.2-0.2-0.4-0.3-0.6
		c0.6,0,1.3,0,1.9,0c0.9,1.5,2,2.7,3.7,3.4c1.8,0.7,3.8,0.5,4.7-0.9c0.5-0.8,0.8-1.6,1.2-2.4C118.3-17.1,118.9-17.1,119.5-17.1z"/>
	<path d="M18.6-17.1c-0.4,0.9-0.8,1.9-1.2,2.8c-1.3,2.4-3.5,3.1-6.2,2.5c-2.9-0.7-4.8-2.5-5.9-5.3c0.6,0,1.3,0,1.9,0
		c1.1,2.1,2.7,3.4,5.1,3.7c1.5,0.2,2.7-0.3,3.4-1.7c0.3-0.7,0.6-1.4,1-2C17.3-17.1,17.9-17.1,18.6-17.1z"/>
	<path d="M-32.2,31.5c1.3,0,1.9,0.6,2.2,2c0.2,0.8,0.4,1.7,1.1,2.3c0.6,0.6,1.1,0.5,1.5-0.2c0.5-0.9,0.8-1.9,1.2-2.9
		c0.2-0.6,0.5-1.2,0.7-1.7c0.2-0.5,0.5-0.7,1-0.5c0.5,0.2,0.7,0.6,0.5,1.1c-0.3,0.8-0.5,1.6-0.9,2.3c-0.4,1-0.9,2-1.4,2.9
		c-0.9,1.5-2.2,1.7-3.6,0.5c-0.9-0.8-1.6-1.7-1.7-3c0-0.4-0.1-0.9-0.7-1C-32.2,32.7-32.2,32.1-32.2,31.5z"/>
	<path d="M-32.2,116.9c0.4,0.3,0.9,0.6,1.2,1c2.6,2.9,2.5,8-0.1,10.6c-0.3,0.3-0.7,0.5-1.1,0.7c0-0.8,0-1.6,0-2.4
		c0.2-0.2,0.5-0.4,0.7-0.6c0.9-1.7,1-3.5,0.3-5.3c-0.2-0.6-0.7-1-1-1.6C-32.2,118.5-32.2,117.7-32.2,116.9z"/>
	<path d="M-32.2,15.7c0.9,0.5,1.6,1.3,2,2.2c1.5,2.9,1.6,5.7-0.2,8.5c-0.4,0.7-1,1.4-1.9,1.7c0-0.8,0-1.6,0-2.4
		c0.2-0.2,0.5-0.4,0.7-0.7c1-2.1,0.9-4.1-0.1-6.2c-0.1-0.2-0.4-0.4-0.6-0.6C-32.2,17.4-32.2,16.6-32.2,15.7z"/>
	<path d="M-32.2-11.6c1.3,0.2,2.5,0.5,3.3,1.7c0.8,1.4,1.1,2.9,0.7,4.5c-0.3,1.3-0.9,2.4-1.9,3.3c-0.2,0.2-0.5,0.4-0.7,0.4
		c-0.3,0-0.7-0.2-0.9-0.4c-0.1-0.2,0-0.6,0.1-0.9c0.1-0.2,0.4-0.4,0.6-0.6c1.2-1.2,1.5-3.4,0.8-4.9c-0.4-0.8-1.1-1.2-2-1.2
		C-32.2-10.5-32.2-11-32.2-11.6z"/>
	<path d="M-32.2,89.5c0.8,0.3,1.6,0.5,2.4,0.8c0.4,0.2,0.7,0.6,0.9,0.9c1.5,2.4,0.9,5.9-1.2,7.7c-0.6,0.5-1.1,0.6-1.5,0.1
		c-0.3-0.3-0.3-0.7,0-1c0.1-0.1,0.1-0.2,0.2-0.2c1.5-1.1,1.8-2.7,1.5-4.4c-0.2-1.3-0.9-2-2.3-2.2C-32.2,90.6-32.2,90.1-32.2,89.5z"
		/>
	<path d="M77-17.1c0.9,0.6,1.8,0.9,2.9,0.9c0.8,0,1.1,0.3,1.1,0.9c0,0.6-0.5,0.9-1.2,0.9c-1.9-0.1-3.7-0.7-5-2.3
		c-0.1-0.1-0.1-0.2-0.2-0.4C75.4-17.1,76.2-17.1,77-17.1z"/>
	<path d="M-24-17.1c0.8,0.7,1.8,0.9,2.8,0.9c0.8,0,1.1,0.3,1.1,0.9c0,0.6-0.4,0.9-1.2,0.9c-2.1-0.1-4-0.8-5.2-2.6
		C-25.6-17.1-24.8-17.1-24-17.1z"/>
	<path d="M-32.2,109.4c0.6-0.1,1.3-0.2,1.9-0.2c1.5,0,2.7,1.7,2.1,3.2c-0.1,0.3-0.5,0.5-0.8,0.5c-0.4,0.1-0.7-0.3-0.8-0.7
		c0-0.2,0-0.3,0-0.5c0-0.7-0.2-0.8-0.8-0.8c-0.5,0-1,0.1-1.6,0.1C-32.2,110.5-32.2,110-32.2,109.4z"/>
	<path d="M-32.2,8.2c0.5,0,1-0.1,1.4-0.1c2.2-0.3,2.9,1.5,2.7,3c-0.1,0.5-0.4,0.7-0.9,0.6c-0.5,0-0.8-0.3-0.8-0.8
		C-30,9.6-30,9.6-31.4,9.9c-0.3,0.1-0.6,0-0.9,0.1C-32.2,9.4-32.2,8.8-32.2,8.2z"/>
	<path d="M-32.2,46.6c0.6-0.5,1.3-1,1.8-1.6c0.6-0.6,0.8-0.7,1.2-0.3c0.5,0.4,0.5,0.8,0.1,1.4c-0.8,1.1-1.8,2-3.2,2.4
		C-32.2,47.8-32.2,47.2-32.2,46.6z"/>
	<path d="M92.9-17.1c-0.4,1.2-1.2,2-2.4,2.5c-0.4,0.2-0.7,0.1-1-0.2c-0.3-0.4-0.3-0.7,0-1.1c0.2-0.2,0.4-0.3,0.6-0.4
		c0.3-0.3,0.6-0.5,0.8-0.8C91.7-17.1,92.3-17.1,92.9-17.1z"/>
	<path d="M-8.2-17.1c-0.1,1.1-1.6,2.4-2.6,2.6c-0.2,0-0.7-0.2-0.7-0.4c-0.1-0.3,0-0.8,0.2-1.1c0.1-0.2,0.5-0.3,0.7-0.5
		c0.2-0.2,0.4-0.4,0.5-0.6C-9.4-17.1-8.8-17.1-8.2-17.1z"/>
	<path d="M-32.2,132.6c1.1-0.1,1.8,0.5,2.1,1.8c-0.7,0-1.4,0-2.1,0C-32.2,133.8-32.2,133.2-32.2,132.6z"/>
	<path d="M-32.2,57.1c0.4,0.5,0.9,1,1.3,1.5c0.1,0.2,0.2,0.6,0.1,0.7c-0.2,0.3-0.5,0.4-0.8,0.6c-0.2,0.1-0.4,0-0.6-0.1
		C-32.2,58.9-32.2,58-32.2,57.1z"/>
	<path d="M65.6-17.1c-0.5,0.4-0.9,0.8-1.4,1.1c-0.3,0.2-0.8,0.2-1.1,0c-0.4-0.2-0.4-0.7-0.2-1.1C63.8-17.1,64.7-17.1,65.6-17.1z"/>
	<path d="M128.8-17.1c-0.1,0.3-0.2,0.7-0.3,1c-0.2,0.5-0.5,0.7-1,0.6c-0.5-0.1-0.6-0.5-0.6-0.9c0-0.2,0-0.5,0-0.7
		C127.6-17.1,128.2-17.1,128.8-17.1z"/>
	<path d="M27.7-17.1c0,0.3-0.1,0.6-0.1,0.9c-0.1,0.6-0.6,0.9-1.1,0.8c-0.6-0.1-0.7-0.5-0.6-1c0-0.2,0.1-0.4,0.1-0.6
		C26.5-17.1,27.1-17.1,27.7-17.1z"/>
	<path d="M-32.2,71.2c0.1,0.2,0.3,0.3,0.4,0.5c0.4,1.2,0.3,2.3,0,3.5c0,0.1-0.2,0.2-0.3,0.3C-32.2,74-32.2,72.6-32.2,71.2z"/>
	<path d="M-32.2,53.6c1,0.3,1.2,0.8,0.7,1.7c-0.2,0.4-0.5,0.9-0.7,1.3C-32.2,55.6-32.2,54.6-32.2,53.6z"/>
	<path d="M24.7,71.8c0.5,0.3,1.1,0.5,1.6,0.8c0.6,0.3,0.8,0.8,0.5,1.3c-0.1,0.2-0.6,0.5-0.8,0.4c-1-0.3-2-0.6-2.7-1.4
		c-0.8-0.8-0.9-1.8,0.1-2.5c0.9-0.6,1.9-1.1,2.9-1.5c0.9-0.4,1.9-0.5,2.7-0.9c0.5-0.2,0.8-0.7,1.1-1.1c0.1-0.2-0.1-0.7-0.2-0.8
		c-0.5-0.3-1.1-0.6-1.7-0.7c-1.1-0.3-2.3-0.4-3.4-0.8c-1.3-0.4-2.4-1-2.9-2.3c-0.3-0.9-0.1-1.6,0.6-2.2c1-0.8,2.3-1.1,3.6-1.5
		c0.7-0.2,1.5-0.4,2.1-0.8c0.3-0.2,0.7-0.7,0.7-1c0-0.3-0.4-0.7-0.8-0.9c-0.9-0.3-1.8-0.5-2.7-0.6c-0.7-0.1-1-0.3-1-0.8
		c0-0.4,0.2-0.8,0.6-0.8c1.4-0.2,4.1,0.3,5.1,1.8c0.8,1.1,0.5,2.6-0.7,3.5c-1.1,0.9-2.4,1.1-3.7,1.5c-0.6,0.2-1.3,0.4-1.9,0.7
		c-0.6,0.3-0.6,0.6-0.1,0.9c0.7,0.4,1.4,0.8,2.1,1c1.4,0.4,2.9,0.7,4.2,1.2c1.9,0.7,2.3,2.2,1.2,4C30.9,69.3,30,69.7,29,70
		c-1.2,0.4-2.3,0.7-3.4,1.1c-0.3,0.1-0.6,0.3-0.8,0.5C24.7,71.6,24.7,71.7,24.7,71.8z"/>
	<path d="M126.7,53.6c1.2,0.1,2.3,0.2,3.3,0.8c0.9,0.5,1.7,1.3,1.7,2.4c0,1.2-0.7,2-1.7,2.5c-1,0.5-2.1,0.8-3.2,1.1
		c-0.6,0.2-1.3,0.5-1.9,0.8c-0.4,0.2-0.4,0.5-0.1,0.8c0.6,0.6,1.4,0.9,2.2,1.1c1.4,0.3,2.7,0.7,4.1,1.1c0.3,0.1,0.6,0.3,0.9,0.5
		c1.2,0.9,1.3,2.2,0.3,3.7c-0.6,0.8-1.4,1.2-2.3,1.4c-1.2,0.4-2.3,0.8-3.5,1.1c-0.1,0-0.1,0-0.2,0.1c-0.2,0.2-0.4,0.3-0.6,0.5
		c0.2,0.2,0.4,0.4,0.6,0.5c0.3,0.2,0.7,0.3,1,0.4c0.5,0.3,0.7,0.7,0.5,1.2c-0.2,0.5-0.6,0.7-1.1,0.4c-0.8-0.4-1.6-0.7-2.3-1.2
		c-1-0.8-1-1.9,0.1-2.7c0.9-0.6,1.9-1,2.8-1.4c0.9-0.4,1.8-0.6,2.8-0.8c0.7-0.2,1-0.7,1.2-1.3c0.1-0.6-0.4-0.8-0.8-1
		c-1-0.3-2-0.6-3-0.8c-1.1-0.2-2.2-0.4-3.2-1.1c-0.9-0.6-1.7-1.4-1.5-2.6c0.1-1.1,1.1-1.6,2-2c1.2-0.4,2.4-0.7,3.5-1.1
		c0.4-0.1,0.7-0.3,1.1-0.5c0.8-0.6,0.8-1.4-0.1-1.8c-0.8-0.3-1.6-0.5-2.4-0.7c-0.1,0-0.1,0-0.2,0c-0.8,0-1.2-0.3-1.2-0.8
		C125.5,54,126,53.6,126.7,53.6z"/>
	<path d="M78.6,72c0.2-0.9,0.3-1.9,0.5-2.7c0.5-1.6,4.1-3.3,5.9-1.6c0.8,0.8,1.1,1.7,1.2,2.8c0.1,0.8,0.1,1.6,0.3,2.4
		c0.1,0.6,0.5,0.8,0.9,0.3c0.3-0.5,0.6-1,0.7-1.6c0.3-1.2,0.3-2.4,0.7-3.5c0.4-1.3,1.5-1.9,2.9-1.9c1.3,0.1,2.6,0.9,2.9,2.2
		c0.2,0.9,0.3,1.9,0.3,2.8c0,0.9,0.1,1.7,0.7,2.5c0.3,0.3,0.2,0.8-0.1,1.1c-0.4,0.3-0.9,0.4-1.2,0c-0.4-0.4-0.7-1-0.9-1.5
		c-0.2-0.7-0.2-1.4-0.2-2.1c-0.1-0.6-0.1-1.3-0.2-1.9c-0.1-0.8-0.6-1.2-1.5-1.3c-0.6-0.1-1,0.2-1.3,1c-0.2,0.5-0.2,1-0.3,1.5
		c-0.2,1-0.3,2.1-0.8,3.1c-0.4,1.1-1.4,1.6-2.6,1.7c-0.7,0-1.3-0.3-1.5-1c-0.2-0.5-0.3-1.1-0.4-1.7c-0.1-0.9-0.2-1.8-0.3-2.6
		c-0.2-1-0.8-1.3-1.8-1.2c-1.2,0.2-1.9,0.9-2,2.1c-0.1,0.8,0,1.6,0,2.4c0,0.7-0.3,1.1-0.9,1.1c-0.5,0-0.8-0.4-0.9-1
		c0-0.1,0-0.1,0-0.2c0-0.3,0-0.5,0-0.8c0-0.1,0-0.3,0-0.4C78.7,72.1,78.7,72,78.6,72z"/>
	<path d="M-20.5,72.4c0,0.4,0,0.8,0,1.3c0,0.5-0.3,0.8-0.7,0.8c-0.3,0-0.8-0.3-0.8-0.5c-0.2-1.7-0.4-3.3,0.4-4.9
		c1.1-2,4.4-2.6,5.9-1.1c0.9,0.9,1.1,2.1,1.2,3.2c0.1,0.6,0.1,1.2,0.2,1.7c0,0.2,0.2,0.5,0.3,0.5c0.2,0,0.5-0.1,0.6-0.2
		c0.2-0.3,0.5-0.7,0.6-1.1c0.3-1.2,0.4-2.4,0.7-3.6c0.3-1.3,1.3-2.1,2.5-2.2c1.3-0.1,2.7,0.5,3.2,1.7c0.3,0.7,0.4,1.4,0.5,2.2
		c0.1,0.5-0.1,1.1,0,1.6c0.1,0.7,0.4,1.3,0.7,1.9c0.3,0.5,0.3,0.8-0.1,1.2c-0.4,0.3-0.8,0.3-1.2,0c-0.6-0.6-0.9-1.3-1-2.2
		c-0.1-0.7,0-1.4-0.1-2.1c0-0.5-0.1-1-0.2-1.5c-0.2-0.8-0.8-1.1-1.6-1c-0.6,0-1,0.4-1.1,1.2c-0.2,1-0.3,1.9-0.4,2.9
		c-0.2,1.4-0.8,2.4-2.1,3c-1.3,0.6-2.4,0.1-2.7-1.3c-0.2-0.7-0.2-1.5-0.3-2.3c0-0.3,0-0.6-0.1-0.9c-0.1-1-0.6-1.7-1.3-1.8
		c-0.9-0.1-2.2,0.4-2.5,1.2c-0.3,0.7-0.3,1.6-0.5,2.4C-20.6,72.4-20.6,72.4-20.5,72.4z"/>
	<path d="M47.2,127.4c-0.4-0.1-0.9-0.1-1.3-0.2c-1.8-0.4-2.3-2-1.1-3.3c0.7-0.8,1.7-1.3,2.6-2c0.4-0.3,0.8-0.6,1.1-0.9
		c0.5-0.5,0.4-0.8-0.2-1c-0.6-0.2-1.3-0.3-1.9-0.4c-0.8-0.1-1.7-0.2-2.5-0.4c-1.4-0.3-2.1-1.5-1.4-2.8c0.4-0.8,1-1.6,1.5-2.3
		c0.3-0.4,0.7-0.8,1-1.2c0.3-0.4,0.5-0.9,0.2-1.5c-0.3-0.5-0.8-0.8-1.3-0.7c-0.7,0.1-1.3,0.3-2,0.5c-0.2,0.1-0.4,0.3-0.6,0.3
		c-0.4-0.1-0.7-0.2-1-0.4c-0.3-0.3-0.2-0.6,0.1-0.9c1-1.1,3.7-1.6,5.1-0.9c1.7,0.9,2.2,2.8,1.1,4.4c-0.3,0.5-0.8,0.9-1.1,1.3
		c-0.4,0.5-0.8,1-1.2,1.6c-0.4,0.6-0.2,0.9,0.5,1c1.1,0.1,2.2,0.2,3.3,0.4c0.6,0.1,1.2,0.4,1.8,0.7c0.9,0.6,1.2,1.8,0.5,2.6
		c-0.8,0.9-1.7,1.5-2.6,2.3c-0.4,0.3-0.9,0.6-1.3,0.9c-0.1,0.1-0.3,0.4-0.3,0.5c0.1,0.1,0.3,0.3,0.5,0.3c0.6,0,1.2,0,1.9,0
		c0.2,0,0.4-0.1,0.6-0.1c0.5,0,0.9,0.3,1,0.8c0.1,0.5-0.3,0.8-0.8,0.9C48.6,127.3,47.9,127.3,47.2,127.4z"/>
	<path d="M-6.7,30.1c0.1-1,0.3-2,0.4-3c0-0.4-0.1-0.8-0.2-1.2c-0.3,0.2-0.7,0.4-0.9,0.6C-7.8,27-8.1,27.5-8.5,28
		c-0.4,0.5-0.8,0.6-1.3,0.3c-0.4-0.3-0.5-0.7-0.1-1.3c0.7-1.1,1.4-2.2,2.6-2.8c1.1-0.5,2.2,0,2.5,1.1c0.1,0.6,0.2,1.2,0.1,1.7
		c-0.1,1.1-0.2,2.2-0.3,3.2c0,0.3,0.1,0.5,0.2,0.8c0.3-0.1,0.6-0.1,0.8-0.2c0.9-0.7,1.7-1.3,2.5-2.1c2-1.8,3.3-1.5,4.3,1
		c0.2,0.6,0.2,1.3,0.3,1.9c0.1,0.5,0.1,1,0.2,1.5c0.1,0.5,0.4,1,1,1c0.4,0,0.9-0.2,1.3-0.4c0.7-0.6,0.9-1.4,1.2-2.2
		c0.1-0.3,0.3-0.6,0.5-0.8c0.5-0.3,1.1,0,1.1,0.5c0.1,1.7-1.5,4.9-4,4.7C3,36,1.9,35,1.7,33.2c-0.1-0.9-0.3-1.8-0.4-2.7
		c0-0.2-0.1-0.4-0.2-0.5c-0.3-0.5-0.5-0.6-1-0.2c-1,0.9-2,1.7-3,2.6C-3.2,32.7-3.6,32.8-4,33c-1.3,0.4-2.4-0.3-2.6-1.7
		C-6.6,30.8-6.6,30.5-6.7,30.1C-6.7,30.1-6.7,30.1-6.7,30.1z"/>
	<path d="M47,26.4c-0.6-0.2-1.4-0.3-2.1-0.7c-1-0.6-1.1-1.8-0.2-2.7c0.7-0.7,1.5-1.3,2.3-1.9c0.5-0.4,1.1-0.7,1.5-1.2
		c0.4-0.4,0.4-0.7-0.2-0.8c-1.1-0.3-2.2-0.4-3.2-0.7c-0.5-0.1-1.1-0.2-1.6-0.3c-1.1-0.4-1.5-1.4-1.1-2.5c0.4-1,0.9-1.8,1.6-2.5
		c0.4-0.3,0.7-0.7,1-1.1c0.4-0.5,0.5-1,0.2-1.5C45,9.9,44.6,9.6,44,9.7c-0.7,0.1-1.5,0.4-2.2,0.6c-0.3,0.1-0.7,0.2-1,0.1
		c-0.6-0.1-0.8-0.8-0.3-1.2c1.1-1,3.9-1.8,5.5-0.6c1.4,1,1.7,2.8,0.7,4.2c-0.7,0.9-1.5,1.8-2.2,2.8c-0.5,0.7-0.3,1,0.5,1.1
		c1.3,0.2,2.5,0.4,3.8,0.6c0.1,0,0.3,0.1,0.4,0.1c1.9,0.8,2.2,2.4,0.7,3.8c-0.9,0.8-1.9,1.4-2.9,2.1c-0.3,0.2-0.5,0.6-0.8,0.9
		c0.4,0.1,0.8,0.3,1.2,0.3c0.5,0,1.1-0.1,1.6-0.1c0.6,0,1,0.3,1.1,0.8c0,0.5-0.3,0.8-0.8,0.9C48.6,26.1,47.9,26.2,47,26.4z"/>
	<path d="M96.5,26.9c-0.1,0.6-0.2,1.2-0.2,1.8c-0.1,0.6-0.1,1.2-0.1,1.9c0,0.6,0.4,0.8,0.8,0.4c0.8-0.5,1.5-1.2,2.2-1.7
		c0.6-0.5,1.1-1,1.7-1.3c0.8-0.5,1.7-0.3,2.3,0.5c0.7,0.9,0.9,1.9,1.1,2.9c0.1,0.5,0.1,1.1,0.1,1.6c0.1,0.6,0.4,1.2,1.1,1.3
		c0.6,0.1,1.1-0.1,1.5-0.6c0.4-0.6,0.6-1.3,0.9-1.9c0.1-0.3,0.2-0.6,0.4-0.8c0.2-0.2,0.6-0.3,0.9-0.2c0.2,0.1,0.5,0.5,0.4,0.7
		c-0.2,1.8-0.9,3.5-2.6,4.3c-1.7,0.8-3.6,0-4.1-2.1c-0.2-0.7-0.2-1.4-0.3-2.1c-0.1-0.5-0.3-1.1-0.4-1.6c-0.2-0.5-0.5-0.6-0.9-0.2
		c-0.7,0.6-1.4,1.3-2.1,1.9c-0.6,0.4-1.2,0.8-1.9,1.1c-1.2,0.6-2.6-0.1-2.7-1.5c-0.1-1.3,0.1-2.7,0.2-4c0-0.4,0.1-0.7,0-1.1
		c-0.1-0.4-0.3-0.6-0.6-0.2c-0.5,0.6-1,1.1-1.4,1.7c-0.5,0.7-1.1,0.8-1.6,0.3c-0.1-0.2-0.2-0.5-0.1-0.7c0.6-1.2,1.4-2.4,2.6-3.1
		c1.3-0.7,2.6-0.1,2.8,1.4C96.5,26.1,96.5,26.5,96.5,26.9z"/>
	<path d="M83.6,89.1c0.8,0.1,1.7,0.2,2.5,0.4c1.1,0.3,1.6,1,1.6,2.1c0,1-0.3,2-0.4,3c0,0.2-0.1,0.4-0.1,0.6c-0.1,0.7,0,0.8,0.7,0.9
		c1,0.1,2.1,0.1,3.1,0.2c1.3,0.1,1.8,0.9,1.7,2.1c-0.1,1-0.4,2-1.1,2.8c-0.5,0.5-0.4,0.9,0.2,1.2c0.8,0.4,1.6,0.3,2.4,0
		c0.5-0.2,1-0.4,1.3,0.2c0.3,0.4,0.2,0.8-0.1,1.1c-1.4,1.1-4.7,1-5.7-1c-0.4-0.8-0.2-1.5,0.3-2.2c0.3-0.5,0.6-1,0.8-1.6
		c0.2-0.6,0.1-0.8-0.6-0.8c-0.9-0.1-1.8-0.1-2.7-0.2c-1.8-0.1-2.4-1-2.1-2.7c0.2-1,0.4-2,0.5-3c0.1-0.8-0.1-1-0.9-1.1
		c-0.9-0.1-1.8,0-2.8,0c-0.7,0-1.1-0.3-1.1-0.8c0-0.5,0.4-0.9,1.1-0.9c0.5,0,0.9,0,1.4,0C83.6,89.2,83.6,89.2,83.6,89.1z"/>
	<path d="M-17.5-11.9c0.8,0.1,1.5,0.1,2.3,0.2c1.1,0.2,1.8,0.9,1.8,2c-0.1,1.3-0.3,2.5-0.5,3.8C-14-5.1-13.9-5-13.2-5
		c1.1,0.1,2.3,0.2,3.4,0.3C-8.9-4.5-8.5-4-8.5-3.1c0,1.2-0.2,2.3-1,3.2c-0.6,0.6-0.4,1.1,0.5,1.4c0.8,0.2,1.6,0.1,2.4-0.3
		C-6.2,1-5.8,1.2-5.6,1.6C-5.3,2-5.4,2.4-5.8,2.7c-1.3,0.9-4.4,0.9-5.5-0.9c-0.4-0.7-0.4-1.6,0-2.2c0.4-0.6,0.9-1.1,1-1.9
		c0.1-0.5-0.1-0.7-0.6-0.8c-1.1-0.1-2.2-0.1-3.3-0.3c-1.1-0.2-1.6-0.7-1.5-1.9c0.1-1,0.3-2,0.5-3c0-0.2,0.1-0.5,0.1-0.7
		c0.1-0.7-0.1-1-0.8-1.1c-0.5-0.1-1.1-0.1-1.6-0.1c-0.5,0-1,0-1.4,0c-0.5,0-0.8-0.2-0.9-0.8c0-0.6,0.3-0.9,0.8-0.9c0.5,0,1,0,1.6,0
		C-17.5-11.9-17.5-11.9-17.5-11.9z"/>
	<path d="M83.6-11.9c0.7,0.1,1.4,0.1,2.1,0.2c1.3,0.2,2.1,1,2,2.3c0,1-0.3,2-0.4,3c0,0.2-0.1,0.4-0.2,0.6C87-5.2,87.1-5,87.8-5
		c1.1,0.1,2.3,0.2,3.4,0.3c0.9,0.1,1.4,0.7,1.3,1.6c-0.1,1.1-0.2,2.2-1,3.1c-0.7,0.7-0.5,1.3,0.5,1.4c0.7,0.1,1.5,0,2.2-0.2
		c0.6-0.1,1-0.1,1.3,0.4c0.3,0.5,0,0.8-0.4,1.1c-1.4,0.9-4,0.6-5.1-0.6c-0.8-0.9-0.8-1.8-0.1-2.7c0.3-0.5,0.6-1.1,0.8-1.6
		C91-2.9,90.8-3,90.1-3.1c-1.1-0.1-2.2-0.2-3.3-0.3c-1.1-0.2-1.5-0.8-1.5-1.8c0.1-0.8,0.3-1.7,0.4-2.5c0.1-0.5,0.1-0.9,0.2-1.4
		c0.1-0.6-0.2-0.9-0.7-0.9c-0.6-0.1-1.1-0.1-1.7-0.1c-0.5,0-1,0-1.4,0c-0.5,0-0.9-0.2-0.9-0.8c-0.1-0.5,0.3-0.9,0.9-0.9
		C82.6-11.9,83.1-11.8,83.6-11.9C83.6-11.9,83.6-11.9,83.6-11.9z"/>
	<path d="M-17.4,89.1c0.9,0.1,1.7,0.2,2.6,0.5c0.8,0.2,1.4,0.9,1.4,1.7c-0.1,1.3-0.3,2.6-0.5,3.9c-0.1,0.8-0.1,0.9,0.8,1
		c1,0.1,2,0.1,3,0.2c1.2,0.1,1.7,0.7,1.7,2c-0.1,1.1-0.3,2.1-1.1,2.9c-0.5,0.5-0.4,1.1,0.3,1.3c0.6,0.2,1.3,0.1,2,0.1
		c0.1,0,0.2-0.1,0.3-0.1c0.8-0.3,1.2-0.2,1.5,0.3c0.2,0.5,0,1-0.8,1.3c-1.4,0.7-3.5,0.4-4.5-0.6c-0.9-0.9-1-2-0.2-3
		c0.3-0.5,0.6-1.1,0.8-1.7c0.2-0.5-0.1-0.7-0.5-0.7c-0.8-0.1-1.5-0.1-2.3-0.2c-0.4,0-0.7,0-1.1-0.1c-1-0.2-1.5-0.8-1.5-1.8
		c0.1-1.1,0.3-2.1,0.5-3.1c0-0.3,0.1-0.5,0.1-0.8c0-0.6-0.2-0.9-0.8-1c-1-0.1-1.9-0.1-2.9-0.1c-0.8,0-1.1-0.3-1.1-0.9
		c0-0.6,0.4-0.9,1.1-0.9c0.3,0,0.6,0,0.9,0c0.2,0,0.3,0,0.5,0C-17.4,89.2-17.4,89.1-17.4,89.1z"/>
	<path d="M3.3,134.3c-0.6,0-1.1,0-1.6,0c-0.2-0.8-0.3-1.7-0.5-2.5c0,0,0-0.1,0-0.1c-0.3-1.2-0.6-1.2-1.5-0.4c-1,0.9-2,1.8-3.2,2.5
		c-1,0.7-2.1,0.5-2.7-0.3c-0.3-0.4-0.5-0.9-0.5-1.4c0-0.9,0.1-1.8,0.1-2.7c0-0.6,0.1-1.1,0.2-1.7c0-0.2-0.1-0.4-0.2-0.7
		c-0.2,0.1-0.5,0.2-0.6,0.3c-0.4,0.4-0.7,0.8-1,1.2c-0.1,0.1-0.2,0.3-0.3,0.4c-0.4,0.5-0.9,0.6-1.3,0.3c-0.4-0.3-0.4-0.7-0.1-1.3
		c0.6-0.9,1.2-1.9,2.1-2.5c1.4-0.9,2.7-0.4,3.1,1.3c0.1,0.5,0.1,1,0.1,1.4c-0.1,1-0.2,2-0.3,3.1c0,0.3,0.2,0.7,0.2,1
		c0.3-0.1,0.7-0.2,0.9-0.4c0.8-0.6,1.5-1.3,2.3-1.9c0.3-0.3,0.6-0.6,1-0.8c1.1-0.7,2.2-0.5,2.8,0.7c0.4,0.8,0.6,1.6,0.8,2.5
		C3.3,133,3.3,133.6,3.3,134.3z"/>
	<path d="M104.4,134.2c-0.1,0.1-0.1,0.1-0.2,0.1c-1.8,0-1.4,0.2-1.6-1.3c-0.1-0.6-0.2-1.1-0.4-1.6c-0.3-0.9-0.5-0.9-1.2-0.3
		c-0.8,0.7-1.6,1.5-2.5,2.2c-0.6,0.4-1.3,0.7-2,0.9c-0.7,0.2-1.9-0.6-1.9-1.5c-0.1-1.3,0-2.7,0.1-4c0-0.3,0.1-0.7,0.1-1
		c0-0.2-0.1-0.5-0.3-0.6c-0.1-0.1-0.4,0.1-0.5,0.2c-0.5,0.5-0.9,1.1-1.3,1.7c-0.3,0.4-0.7,0.7-1.2,0.5c-0.5-0.2-0.7-0.6-0.5-1
		c0.6-1.1,1.3-2.2,2.4-2.9c1.5-0.9,3-0.2,3.1,1.5c0.1,0.9-0.1,1.8-0.2,2.7c0,0.6-0.1,1.3-0.1,1.9c0,0.6,0.3,0.8,0.8,0.4
		c0.9-0.6,1.7-1.4,2.6-2.1c0.5-0.4,1-0.8,1.6-1.1c0.9-0.4,1.6-0.2,2.1,0.6c0.4,0.7,0.7,1.5,0.9,2.2
		C104.3,132.7,104.3,133.5,104.4,134.2z"/>
	<path d="M107.5,65.9c-2.4,0.1-5,1-7.3,2.8c-0.2,0.2-0.4,0.3-0.6,0.5c-0.5,0.3-1,0.3-1.3-0.1c-0.4-0.5-0.2-0.9,0.2-1.2
		c1.3-1.1,2.7-2,4.3-2.7c2.5-1,5-1.4,7.7-0.8c3.2,0.7,5.5,2.5,6.9,5.5c0.3,0.5,0.1,1-0.4,1.3c-0.5,0.2-0.9,0-1.1-0.5
		c-0.6-1.3-1.5-2.4-2.7-3.2C111.6,66.3,110,65.8,107.5,65.9z"/>
	<path d="M65,36.4c0.2-1,0.3-2,0.6-3c0.5-1.5,2.9-2.3,4.1-1.8c0.6,0.2,1,0.7,1.2,1.4c0.2,0.7,0.4,1.3,0.7,2c0,0.1,0.1,0.2,0.1,0.2
		c0.4,0.3,0.8,0.9,1.2,0.9c0.3,0,0.8-0.6,1-1c0.6-1.3,1-2.7,1.6-4c0.1-0.3,0.5-0.6,0.8-0.7c0.2-0.1,0.6,0.2,0.8,0.5
		c0.1,0.1,0.2,0.5,0.1,0.6c-0.7,1.7-1.4,3.4-2.1,5c-0.2,0.4-0.5,0.8-0.9,1.1c-0.7,0.6-1.5,0.7-2.3,0.2c-1.3-0.8-2.2-2-2.4-3.5
		c-0.2-1-0.8-1.3-1.6-0.7c-0.4,0.3-0.7,0.7-0.8,1.1c-0.2,0.8-0.2,1.7-0.2,2.5c0,0.3,0,0.5,0,0.8c-0.1,0.5-0.4,0.7-0.8,0.7
		c-0.4,0-0.8-0.3-0.8-0.7c0-0.5,0-1,0-1.4C65.1,36.5,65,36.4,65,36.4z"/>
	<path d="M16.5,70.4c-0.2,0.2-0.5,0.6-0.8,0.7c-0.4,0.2-0.8-0.1-0.9-0.5c-0.6-1.3-1.5-2.4-2.7-3.3C10,65.9,7.7,65.6,5.3,66
		c-2.5,0.4-4.7,1.4-6.6,3c-0.1,0.1-0.3,0.3-0.5,0.3c-0.4-0.1-0.8-0.1-1-0.4c-0.3-0.3-0.2-0.7,0.1-1c0.9-0.7,1.7-1.3,2.6-1.9
		c2.2-1.3,4.6-2.1,7.2-2c3.9,0.1,7,1.7,8.9,5.3C16.3,69.6,16.4,69.9,16.5,70.4z"/>
	<path d="M114.5,119.8c0-1.6,1.1-2.8,2.9-3.1c0.8-0.1,1.7-0.2,2.5-0.4c0.5-0.1,0.9-0.5,1.4-0.8c-0.4-0.3-0.7-0.7-1.1-0.9
		c-0.6-0.3-1.2-0.5-1.9-0.7c-0.5-0.2-0.9-0.4-0.8-1c0.1-0.5,0.6-0.8,1.2-0.7c1.2,0.3,2.4,0.7,3.4,1.5c1.5,1.2,1.4,2.8-0.3,3.7
		c-0.8,0.4-1.8,0.6-2.7,0.8c-0.6,0.2-1.2,0.2-1.8,0.4c-1,0.3-1.2,1.3-0.6,2.1c0.6,0.8,1.4,1.1,2.3,1.3c0.6,0.1,1.2,0.2,1.8,0.3
		c0.5,0.1,0.7,0.4,0.7,0.9c0,0.5-0.3,0.8-0.8,0.7c-2-0.1-4-0.6-5.4-2.3c-0.4-0.5-0.6-1.2-0.8-1.8
		C114.4,119.8,114.5,119.8,114.5,119.8z"/>
	<path d="M19.4,22.9c-1.7-0.3-3.2-0.6-4.5-1.5c-1.8-1.3-2-3.7-0.4-5c0.7-0.6,1.7-0.7,2.6-0.9c0.7-0.1,1.5-0.3,2.2-0.4
		c0.1,0,0.2,0,0.2-0.1c0.2-0.2,0.5-0.4,0.7-0.6c-0.2-0.2-0.4-0.5-0.6-0.7c-0.8-0.4-1.6-0.7-2.4-1c-0.5-0.2-0.8-0.4-0.7-0.9
		c0.1-0.5,0.6-0.8,1.1-0.7c1.3,0.2,2.5,0.6,3.5,1.4c1.6,1.3,1.3,3.1-0.7,3.9c-0.7,0.3-1.4,0.4-2.2,0.5c-0.8,0.2-1.6,0.3-2.3,0.6
		c-0.7,0.3-0.8,0.9-0.5,1.6c0.4,0.8,1.1,1.2,1.9,1.5c0.7,0.2,1.5,0.3,2.2,0.5c0.3,0.1,0.7,0.4,0.8,0.7c0.1,0.2-0.1,0.6-0.3,0.9
		C19.9,22.8,19.5,22.8,19.4,22.9z"/>
	<path d="M19.3,123.9c-1.7-0.2-3.3-0.6-4.6-1.7c-1.7-1.4-1.7-3.9,0.1-5c0.5-0.3,1.2-0.4,1.8-0.6c1-0.3,2.1-0.4,3.1-0.8
		c0.7-0.2,0.7-0.6,0.1-1c-0.6-0.4-1.3-0.6-2-0.9c-0.2-0.1-0.6-0.1-0.8-0.3c-0.2-0.2-0.6-0.5-0.5-0.8c0-0.4,0.4-0.9,0.9-0.8
		c1.7,0.3,3.4,0.8,4.4,2.3c0.6,0.8,0.4,1.9-0.5,2.5c-0.9,0.7-2,1-3.2,1.2c-0.6,0.1-1.2,0.1-1.8,0.3c-1.3,0.4-1.6,1.5-0.6,2.4
		c0.6,0.5,1.3,0.8,2.1,1.1c0.5,0.2,1.1,0.2,1.7,0.3c0.5,0.1,0.9,0.5,0.8,0.9C20.3,123.7,19.9,124,19.3,123.9z"/>
	<path d="M114.5,18.7c0-1.5,0.9-2.6,2.4-3c1.1-0.2,2.3-0.4,3.4-0.7c0.4-0.1,0.7-0.4,1-0.7c-0.3-0.3-0.6-0.7-0.9-0.8
		c-0.7-0.3-1.4-0.6-2.1-0.8c-0.5-0.2-0.8-0.4-0.7-0.9c0.1-0.5,0.6-0.8,1.1-0.8c1.2,0.2,2.4,0.6,3.4,1.4c1.7,1.3,1.4,3.2-0.7,4
		c-1,0.4-2.1,0.5-3.1,0.7c-0.1,0-0.2,0-0.3,0.1c-0.7,0.1-1.4,0.3-1.6,1.1c-0.2,0.7,0.3,1.5,1.1,1.9c0.9,0.4,1.9,0.6,2.9,0.9
		c0.4,0.1,0.9,0.2,1,0.7c0.1,0.6-0.3,1.1-0.9,1c-1.8-0.2-3.5-0.6-4.9-1.9C114.9,20.4,114.5,19.6,114.5,18.7z"/>
	<path d="M52.3,76.8c0.2-0.8,0.4-1.6,0.7-2.5c0.1-0.5,0.3-0.9,0.4-1.4c0.2-0.6,0.2-1.2-0.4-1.6c-0.6-0.4-1.2-0.4-1.8-0.1
		c-1.1,0.5-1.9,1.5-2.6,2.5c-0.4,0.6-0.8,0.7-1.3,0.4c-0.4-0.3-0.6-0.6-0.3-1.1c1-1.7,2.3-3.1,4.3-3.7c1.9-0.6,3.9,1.1,3.8,3
		c-0.1,0.8-0.4,1.6-0.6,2.5c-0.2,0.6-0.3,1.2-0.4,1.8c0,0.3,0.1,0.7,0.2,0.8c0.2,0.1,0.6,0,0.8-0.2c0.7-0.5,1.3-1.1,1.9-1.7
		c0.4-0.3,0.7-0.6,1.2-0.2c0.4,0.3,0.5,0.9,0.1,1.3c-0.8,0.8-1.5,1.6-2.5,2.2C54.2,80,52.3,79.5,52.3,76.8z"/>
	<path d="M4.6,81.1c0-0.2-0.1-0.4,0-0.5C4.8,80.3,5,80,5.3,79.9c0.2-0.1,0.7,0.2,0.9,0.4c0.2,0.2,0.2,0.5,0.2,0.8
		c0.3,2.7,1.4,4.7,3.9,6c1.3,0.7,2.7,0.9,4.1,0.3c1.1-0.5,1.5-1.5,1.9-2.5c0.3-0.6,0.5-1.2,0.8-1.8c0.2-0.4,0.5-0.8,1.1-0.6
		c0.5,0.2,0.7,0.7,0.5,1.2c-0.5,1.1-0.9,2.2-1.5,3.2c-1.1,1.9-2.8,2.6-4.9,2.4c-3.4-0.3-6.4-2.9-7.3-6.2C4.8,82.5,4.7,81.8,4.6,81.1
		C4.6,81.1,4.6,81.1,4.6,81.1z"/>
	<path d="M113.5,89.4c-3-0.2-5.4-1.8-6.9-4.8c-0.6-1.1-0.8-2.3-0.9-3.5c-0.1-0.8,0.2-1.3,0.8-1.3c0.5,0,0.9,0.4,0.9,1.2
		c0.3,2.7,1.4,4.9,3.9,6.1c1.3,0.6,2.6,0.8,4,0.3c1-0.4,1.4-1.3,1.8-2.1c0.4-0.8,0.7-1.5,1-2.3c0.2-0.4,0.5-0.7,1-0.5
		c0.5,0.2,0.8,0.7,0.5,1.2c-0.5,1.2-1,2.4-1.6,3.5C117.2,88.7,115.6,89.4,113.5,89.4z"/>
	<path d="M63.4,2.5c-0.8,0-1.4,0.2-1.9,0.7c-0.6,0.5-1,0.5-1.4,0.1c-0.3-0.4-0.3-0.8,0.2-1.3c1.2-1.3,3.5-1.6,5.2-0.8
		c1.2,0.6,2.2,1.3,2.5,2.6c0.1,0.6,0,1.3-0.1,1.9c0,0.3-0.2,0.5-0.2,0.8c-0.3,1.2,0.1,1.8,1.3,1.7c0.5,0,1-0.1,1.4-0.2
		c1.8-0.2,3,1.5,2.4,3.1c-0.1,0.3-0.5,0.6-0.8,0.5c-0.3,0-0.5-0.4-0.8-0.6c0,0,0-0.1,0-0.1c-0.1-1.3-0.2-1.4-1.5-1.1
		C69.4,9.9,69,10,68.6,10c-1.9,0-3.1-1.3-2.8-3.2c0.1-0.3,0.1-0.7,0.2-1c0.8-1.7-0.5-2.9-1.9-3.2C64,2.5,63.7,2.5,63.4,2.5z"/>
	<path d="M63.4,101.9c1.3,0,2.4,0.4,3.3,1.2c1.1,0.9,1.6,2,1.2,3.5c-0.1,0.3-0.2,0.7-0.3,1c-0.4,1.3,0.2,1.9,1.5,1.7
		c0.6-0.1,1.2-0.2,1.7-0.2c0.8,0,1.4,0.3,1.7,1.1c0.2,0.6,0.3,1.3,0.3,2c0,0.4-0.4,0.7-0.8,0.7c-0.4,0-0.7-0.3-0.8-0.8
		c-0.2-1.3-0.2-1.3-1.5-1.1c-0.5,0.1-1,0.1-1.4,0.1c-1.5-0.1-2.4-1-2.4-2.5c0-0.6,0.1-1.3,0.3-1.8c0.4-1.3,0-2.3-1.2-2.8
		c-1.2-0.5-2.4-0.5-3.5,0.5c-0.4,0.4-1,0.4-1.4,0.1c-0.3-0.3-0.3-0.8,0.2-1.3C61.1,102.3,62.2,101.9,63.4,101.9z"/>
	<path d="M35,78.3c1.9,0.1,3.9,0.4,5.5,1.8c0.6,0.5,1.1,1.2,1.5,1.9c0.4,0.6,0.2,1.1-0.4,1.4c-0.6,0.3-0.9-0.1-1.1-0.5
		c-1-1.8-2.6-2.5-4.5-2.7c-2.5-0.3-4.9,0.2-7,1.8c-0.9,0.7-1.4,1.6-1.6,2.8c-0.1,0.6-0.6,1-1,0.9c-0.5-0.1-0.8-0.6-0.7-1.2
		c0.4-2.4,1.9-4,4-5C31.5,78.7,33.2,78.4,35,78.3z"/>
	<path d="M135.7,78.3c2.4,0.1,4.4,0.4,6,1.9c0.5,0.4,0.9,1,1.3,1.6c0.1,0.2,0.2,0.4,0.2,0.6c0.1,0.5-0.2,0.9-0.6,1
		c-0.3,0.1-0.7-0.2-0.9-0.4c-1.2-2.2-3.2-2.8-5.5-2.9c-2-0.1-3.9,0.4-5.6,1.6c-1,0.7-1.7,1.6-1.9,2.8c0,0.2,0,0.5-0.2,0.6
		c-0.3,0.2-0.6,0.5-1,0.5c-0.4,0-0.7-0.4-0.6-0.8c0.1-1.3,0.6-2.4,1.4-3.4c1.3-1.5,2.9-2.3,4.8-2.7C134,78.5,135,78.4,135.7,78.3z"
		/>
	<path d="M116.2,45.7c0.2,0.2,0.5,0.3,0.6,0.5c0.1,0.2,0.1,0.6,0,0.8c-0.2,0.3-0.5,0.5-0.8,0.7c-1.5,1.1-2.7,2.3-3,4.2
		c-0.4,2.3,0.5,4.1,2.1,5.5c1,0.9,2.2,1.5,3.3,2.2c0.4,0.3,0.7,0.6,0.6,1.1c-0.1,0.5-0.5,0.8-1,0.6c-3.3-1.4-5.9-3.4-6.8-7.1
		c-0.5-2.3,0.2-4.4,1.7-6.2c0.7-0.8,1.6-1.4,2.4-2.1C115.6,45.9,115.9,45.8,116.2,45.7z"/>
	<path d="M10.1,53.2c0-2.9,1.4-4.9,3.4-6.5c0.3-0.3,0.7-0.5,1-0.7c0.5-0.3,1-0.2,1.3,0.2c0.3,0.4,0.2,0.9-0.3,1.2
		c-0.6,0.5-1.3,1-1.9,1.6c-2.2,2.2-2.3,5-0.5,7.5c1.1,1.5,2.6,2.5,4.3,3.3c0.6,0.3,0.8,0.8,0.6,1.3c-0.2,0.4-0.5,0.6-0.9,0.4
		c-3-1.3-5.4-3.2-6.6-6.4c-0.1-0.2-0.1-0.4-0.1-0.5C10.2,54,10.2,53.5,10.1,53.2z"/>
	<path d="M51.6,85.1c-1.4,0.1-3.3,0.3-4.8,1.4c-0.4,0.3-0.7,0.7-1,1c-0.5,0.5-0.8,0.6-1.3,0.2C44,87.4,44,87,44.4,86.5
		c0.9-1.3,2.2-2,3.6-2.5c1.9-0.6,3.8-0.8,5.7-0.5c2.7,0.4,4.3,2.1,5.1,4.6c0.2,0.7,0.3,1.4,0.5,2.1c0.1,0.5,0,0.9-0.6,1
		c-0.4,0.1-0.9-0.2-1.1-0.7c-0.2-0.7-0.3-1.4-0.5-2.1C56.2,86.1,54.6,85.1,51.6,85.1z"/>
	<path d="M89.2,17.9c0.1-0.7,0.1-1.5,0.4-2.1c0.7-1.7,2.8-2.1,4.2-0.8c0.3,0.3,0.6,0.6,0.9,1c0.4,0.5,0.8,0.4,1-0.2
		c0.3-0.8,0.5-1.6,0.8-2.3c0.6-1.7,1.9-2,3.3-0.9c0.3,0.3,0.6,0.6,0.9,0.9c0.4,0.5,0.3,0.9-0.1,1.3c-0.4,0.4-0.8,0.2-1.1-0.2
		c0,0,0,0,0,0c-1-1.2-1.2-1.1-1.7,0.4c-0.2,0.8-0.5,1.5-0.8,2.2c-0.7,1.2-1.8,1.3-2.8,0.4c-0.4-0.4-0.8-0.8-1.2-1.2
		c-0.3-0.3-0.8-0.6-1.2-0.3c-0.3,0.2-0.5,0.6-0.6,1c-0.1,0.6,0,1.2,0.1,1.8c0,0.8-0.2,1.2-0.8,1.3c-0.6,0-0.9-0.4-1-1.2
		c0-0.4,0-0.7-0.1-1.1C89.3,17.9,89.2,17.9,89.2,17.9z"/>
	<path d="M-9.9,119.3c0,0.4,0,0.8,0,1.2c0,0.4-0.3,0.7-0.7,0.7c-0.4,0-0.9-0.1-0.9-0.6c-0.1-1.1-0.2-2.2,0-3.3
		c0.4-2,2.8-2.7,4.3-1.3c0.3,0.3,0.6,0.7,0.9,1c0.4,0.4,0.6,0.4,0.8-0.1c0.3-0.7,0.4-1.4,0.7-2.1c0.1-0.4,0.3-0.7,0.5-1.1
		c0.6-1,1.5-1.2,2.6-0.5c0.5,0.3,0.9,0.7,1.2,1.1c0.4,0.5,0.4,1.1,0,1.4c-0.4,0.3-0.8,0.2-1.2-0.2c-0.3-0.3-0.7-0.5-1-0.8
		c-0.2,0.4-0.4,0.8-0.6,1.2c-0.4,0.8-0.6,1.7-1.1,2.4c-0.7,1.1-1.7,1.1-2.6,0.3c-0.4-0.4-0.8-0.8-1.2-1.2c-0.3-0.3-0.7-0.6-1.2-0.4
		c-0.5,0.2-0.7,0.6-0.7,1.2C-10,118.7-10,119-9.9,119.3C-10,119.3-10,119.3-9.9,119.3z"/>
	<path d="M-9.9,18.2c0,0.4,0,0.8,0,1.3c0,0.5-0.3,0.8-0.8,0.7c-0.3,0-0.8-0.4-0.8-0.6c-0.2-1.1-0.4-2.3-0.1-3.4
		c0.5-1.8,2.7-2.5,4.2-1.3c0.4,0.3,0.7,0.7,1,1c0.5,0.6,0.7,0.6,1-0.1c0.3-0.6,0.4-1.3,0.6-2c0.1-0.4,0.3-0.7,0.5-1.1
		c0.6-0.9,1.5-1.1,2.4-0.5c0.5,0.3,1,0.8,1.4,1.2c0.4,0.5,0.4,1-0.1,1.4c-0.5,0.4-0.8,0.1-1.2-0.2c-0.3-0.3-0.7-0.5-1-0.8
		c-0.2,0.4-0.4,0.8-0.6,1.2c-0.4,0.8-0.6,1.7-1.1,2.4c-0.7,1-1.6,1.1-2.6,0.3c-0.5-0.4-0.8-0.9-1.3-1.2c-0.3-0.2-0.8-0.4-1.1-0.3
		c-0.5,0.1-0.6,0.5-0.7,1C-10,17.5-10,17.8-9.9,18.2C-10,18.2-10,18.2-9.9,18.2z"/>
	<path d="M89.2,119.1c0.1-0.7,0.1-1.5,0.4-2.1c0.7-1.7,2.9-2.1,4.2-0.8c0.3,0.3,0.5,0.6,0.8,0.8c0.2,0.2,0.5,0.5,0.6,0.4
		c0.2-0.1,0.4-0.4,0.5-0.7c0.3-0.7,0.5-1.5,0.7-2.3c0.1-0.3,0.3-0.6,0.5-0.8c0.5-0.7,1.3-0.9,2-0.4c0.7,0.4,1.2,1,1.8,1.5
		c0.4,0.4,0.2,0.9-0.2,1.2c-0.4,0.3-0.8,0.2-1.1-0.2c-0.2-0.2-0.4-0.4-0.6-0.6c-0.5-0.5-0.7-0.4-0.9,0.2c-0.2,0.7-0.5,1.5-0.7,2.2
		c-0.1,0.2-0.1,0.3-0.2,0.5c-0.9,1.5-1.9,1.6-3.2,0.5c-0.4-0.4-0.7-0.8-1.2-1.1c-0.7-0.6-1.5-0.3-1.6,0.6c-0.1,0.7,0,1.5,0.1,2.2
		c0,0.5-0.1,0.9-0.6,1c-0.6,0.1-1-0.2-1.1-0.8c-0.1-0.5-0.1-0.9-0.1-1.4C89.3,119.1,89.2,119.1,89.2,119.1z"/>
	<path d="M136.6,28.1c0.3,0,0.9,0.1,1.4,0.2c0.5,0.1,0.9,0,1.2-0.4c0.3-0.4,0.1-0.8-0.2-1.2c-0.4-0.5-0.9-1-1.3-1.5
		c-0.4-0.6-0.4-0.9,0-1.3c0.4-0.3,0.9-0.3,1.3,0.2c0.7,0.8,1.4,1.6,1.8,2.6c0.7,1.5-0.6,3.4-2.3,3.5c-0.6,0-1.2-0.1-1.7-0.2
		c-0.6-0.1-0.8,0.1-0.7,0.6c0.2,0.6,0.4,1.3,0.6,1.9c0.3,0.9,0.6,1.8-0.1,2.6c-0.7,0.8-1.6,0.8-2.5,0.6c-0.3,0-0.5-0.1-0.8-0.2
		c-0.5-0.2-0.7-0.6-0.6-1.1c0.1-0.5,0.5-0.6,0.9-0.5c0.4,0.1,0.7,0.1,1.1,0.1c0.4,0,0.6-0.2,0.4-0.6c-0.2-0.7-0.5-1.3-0.7-2
		c-0.1-0.4-0.2-0.9-0.2-1.3C134.4,28.7,135,28.1,136.6,28.1z"/>
	<path d="M35.6,28.1c0.3,0,0.9,0.2,1.5,0.2c0.4,0,0.8-0.2,1.1-0.4c0.4-0.3,0.2-0.8,0-1.1c-0.4-0.5-0.8-1-1.3-1.6
		c-0.4-0.6-0.5-1-0.1-1.4c0.4-0.4,0.9-0.3,1.3,0.2c0.5,0.6,1.1,1.2,1.5,1.8c0.6,0.9,0.6,1.9,0,2.9c-0.6,1-1.5,1.4-2.6,1.2
		c-0.4-0.1-0.8-0.2-1.2-0.3c-0.6-0.1-0.9,0.1-0.7,0.7c0.3,0.8,0.6,1.6,0.8,2.4c0.1,0.4,0.2,0.7,0.2,1.1c0,0.7-0.4,1.2-1,1.4
		c-0.9,0.4-1.8,0.2-2.7-0.1c-0.5-0.2-0.7-0.6-0.6-1.1c0.1-0.5,0.5-0.6,1-0.5c0.2,0,0.5,0.1,0.7,0.1c0.8,0.1,1-0.1,0.7-0.9
		c-0.3-0.8-0.5-1.5-0.8-2.3c-0.1-0.2-0.1-0.4-0.1-0.6C33.3,28.8,34,28.1,35.6,28.1z"/>
	<path d="M50.7,0.5c0.1-0.8,0.1-1.6,0.4-2.3c0.7-1.7,2.9-2.1,4.3-0.8c0.3,0.3,0.6,0.7,0.9,1c0.3,0.3,0.6,0.4,0.8-0.1
		c0.2-0.6,0.4-1.3,0.7-2c0.2-0.7,0.5-1.5,1.2-1.9c0.2-0.1,0.5-0.2,0.8-0.2c0.8,0,2.5,1.2,2.6,2c0.1,0.3-0.1,0.7-0.4,1
		c-0.3,0.3-0.7,0.2-0.9-0.1c-0.3-0.3-0.5-0.5-0.7-0.8c-0.3-0.3-0.6-0.3-0.8,0.2c-0.2,0.7-0.4,1.5-0.7,2.1c-0.3,0.6-0.7,1.2-1.2,1.7
		c-0.5,0.5-1.1,0.5-1.6,0.1C55.5,0,55-0.5,54.5-1c-0.4-0.3-0.7-0.8-1.3-0.5c-0.6,0.3-0.7,0.8-0.7,1.4c0,0.5,0.1,1.1,0.1,1.6
		c0,0.7-0.2,1.1-0.8,1.1c-0.6,0-0.9-0.3-0.9-1c0-0.4,0-0.7-0.1-1.1C50.8,0.5,50.8,0.5,50.7,0.5z"/>
	<path d="M50.7,101.6c0.2-0.8,0.2-1.6,0.5-2.3c0.8-1.6,2.8-1.9,4.1-0.7c0.3,0.3,0.6,0.6,0.9,1c0.4,0.5,0.7,0.5,0.9-0.1
		c0.2-0.6,0.4-1.2,0.6-1.8c0.2-0.5,0.4-1,0.7-1.4c0.5-0.8,1.2-1.1,2.1-0.6c0.7,0.4,1.3,1,1.8,1.6c0.4,0.4,0.2,0.9-0.2,1.2
		c-0.4,0.4-0.8,0.2-1.1-0.2c-0.2-0.2-0.4-0.5-0.7-0.7c-0.3-0.3-0.6-0.3-0.7,0.2c-0.2,0.7-0.4,1.4-0.7,2.1c-0.1,0.4-0.3,0.7-0.5,1
		c-0.8,1.2-1.8,1.3-2.9,0.4c-0.4-0.4-0.8-0.9-1.2-1.2c-0.3-0.2-0.8-0.4-1.1-0.2c-0.3,0.1-0.6,0.6-0.6,0.9c-0.1,0.6,0,1.3,0.1,1.9
		c0,0.7-0.3,1.2-0.8,1.2c-0.5,0-0.9-0.4-0.9-1.1c0-0.4,0-0.7-0.1-1.1C50.8,101.6,50.7,101.6,50.7,101.6z"/>
	<path d="M110.9,100.2c-0.1,0.6-0.2,1.3-0.4,1.9c-0.1,0.5-0.6,0.7-1.1,0.6c-0.5-0.2-0.6-0.5-0.5-1c0.5-3.5-1.2-6.8-4.4-8.4
		c-1.4-0.7-2.8-0.4-3.8,0.8c-0.1,0.2-0.3,0.4-0.5,0.5c-0.4,0.3-0.8,0.2-1.1-0.1c-0.3-0.3-0.3-0.6,0-1c1.4-2.2,3.8-2.9,6.2-1.8
		C108.2,92.9,110.7,96.9,110.9,100.2z"/>
	<path d="M110.9-0.9c-0.1,0.6-0.2,1.3-0.4,1.9c-0.2,0.5-0.6,0.6-1.1,0.5c-0.5-0.1-0.6-0.5-0.5-0.9c1-3.4-1.8-7.1-4-8.3
		c-1.6-0.9-3-0.7-4.2,0.7c-0.2,0.3-0.6,0.5-0.9,0.5c-0.7,0.1-1-0.7-0.7-1.3c1.4-2.3,3.9-2.9,6.5-1.6C108.3-8,110.8-4.1,110.9-0.9z"
		/>
	<path d="M83.9,48.3c-3.7-0.3-6.7-1.8-8.7-5c-0.3-0.5-0.4-1-0.6-1.5c-0.1-0.6,0.1-1.1,0.6-1.2c0.6-0.2,0.9,0.2,1,0.7
		c0.6,3.1,4.6,5.2,7.4,5.2c1.6,0,3.2-0.9,3.4-2.7c0-0.2,0.1-0.3,0.2-0.5c0.2-0.4,0.6-0.6,1-0.5c0.5,0.1,0.6,0.5,0.6,0.9
		c-0.2,2.3-1.6,4.1-4,4.4C84.6,48.2,84.2,48.3,83.9,48.3z"/>
	<path d="M-17.9,48.3c-2.9-0.3-5.8-1.7-7.8-4.7c-0.4-0.6-0.6-1.3-0.8-2c-0.1-0.5,0.1-0.9,0.7-1c0.5-0.1,0.9,0.1,1,0.6
		c0.5,2,1.8,3.3,3.6,4.2c0.9,0.5,1.9,0.8,2.9,1c1,0.3,2,0.1,2.9-0.4c0.9-0.5,1.3-1.3,1.5-2.2c0.1-0.3,0.2-0.6,0.4-0.8
		c0.2-0.2,0.7-0.2,0.9-0.1c0.2,0.2,0.4,0.6,0.4,0.9C-12.4,46.7-14.3,48.4-17.9,48.3z"/>
	<path d="M2.1,91c1.3,0,2.6,0.7,3.7,1.6c2,1.7,3.4,3.8,3.8,6.5c0.1,0.9,0,1.8-0.1,2.7c-0.1,0.6-0.6,1-1.2,0.8
		c-0.5-0.2-0.7-0.6-0.5-1.3c0.4-1.5,0.1-2.9-0.6-4.2c-0.8-1.7-2-3.1-3.8-4c-1.5-0.7-2.8-0.5-3.9,0.8c-0.2,0.2-0.4,0.5-0.6,0.5
		c-0.3,0-0.8,0-1-0.2c-0.2-0.2-0.2-0.7,0-0.9C-1.1,91.9,0.1,91,2.1,91z"/>
	<path d="M9.8-0.8C9.7-0.3,9.6,0.3,9.5,0.8C9.3,1.4,8.9,1.6,8.3,1.5C7.8,1.3,7.7,1,7.8,0.3c0.5-1.9,0-3.5-1-5.1
		C5.9-6.2,4.7-7.5,3-8.1C1.8-8.6,0.7-8.3-0.2-7.4C-0.4-7.2-0.6-7-0.8-6.8c-0.4,0.4-0.8,0.4-1.2,0C-2.3-7.1-2.3-7.5-2-7.9
		c1.3-2,3.6-2.8,5.7-1.9C7-8.5,9.8-4.3,9.8-0.8z"/>
	<path d="M129,44.7c1.9,0.1,3.6,0.5,4.8,2c0.9,1.1,1.2,2.5,1.6,3.8c0.1,0.5-0.2,0.8-0.7,0.9c-0.5,0.1-0.8-0.2-1-0.6
		c-0.2-0.4-0.3-0.8-0.4-1.3c-0.5-1.8-1.6-2.8-3.4-3.1c-2.7-0.4-5.6,1-6.6,3.4c-0.1,0.2-0.1,0.4-0.2,0.6c-0.2,0.5-0.6,0.8-1,0.6
		c-0.5-0.1-0.7-0.6-0.6-1.1c0.4-1.8,1.5-3,3-4C125.9,45.1,127.4,44.6,129,44.7z"/>
	<path d="M28,44.5c1,0.2,2,0.4,3,0.8c1.7,0.6,2.5,2.1,3,3.7c0.1,0.5,0.3,0.9,0.4,1.4c0.1,0.5-0.1,0.9-0.6,1c-0.4,0.1-0.8-0.1-1-0.5
		c-0.2-0.5-0.4-1-0.5-1.5c-0.6-2.3-2.3-3-4.4-3c-2.3,0.1-4.2,0.9-5.4,3c-0.2,0.3-0.3,0.7-0.4,1.1c-0.2,0.4-0.5,0.7-1,0.6
		c-0.5-0.2-0.8-0.5-0.6-1.1c0.2-1.2,0.9-2.2,1.7-3C23.8,45.5,25.7,44.7,28,44.5z"/>
	<path d="M82.1,57.8c0-4.3,4.2-7.3,8.2-5.9c0.5,0.2,0.8,0.5,0.6,1c-0.1,0.5-0.6,0.8-1.2,0.6c-1.7-0.4-3.3-0.2-4.6,1
		c-1.6,1.6-1.8,4.3-0.4,5.7c0.5,0.5,1.3,0.8,2,1.1c0.7,0.3,1.2,1,0.7,1.5c-0.2,0.2-0.5,0.4-0.7,0.3C84.2,62.6,82.1,61,82.1,57.8z"/>
	<path d="M-17.3,57.7c0.1,1.7,1.2,3.1,2.9,3.5c0.3,0.1,0.6,0.1,0.8,0.3c0.2,0.3,0.3,0.7,0.2,1c-0.1,0.2-0.5,0.5-0.8,0.4
		c-2-0.4-3.6-1.3-4.4-3.3c-1-2.7,0.4-6.2,3.1-7.5c1.5-0.7,3.1-0.9,4.8-0.4c0.6,0.2,0.8,0.5,0.7,1.1c-0.1,0.5-0.6,0.7-1.2,0.6
		c-2.4-0.6-4.3,0.1-5.4,2.1C-16.9,56.3-17.1,57-17.3,57.7z"/>
	<path d="M72,123.7c-0.1,1.7-0.7,3.7-2.4,5.1c-0.2,0.2-0.4,0.4-0.6,0.3c-0.4-0.1-0.8-0.2-1-0.5c-0.1-0.2,0-0.7,0.2-0.9
		c1.8-1.5,2.3-3.5,2-5.7c-0.3-2-1.2-3.8-3.3-4.5c-0.6-0.2-1.3-0.2-2-0.2c-0.3,0-0.6,0-0.8-0.1c-0.2-0.2-0.4-0.6-0.4-0.9
		c0.1-0.3,0.5-0.6,0.8-0.7c1.4-0.3,2.7,0,3.9,0.7C70.6,117.8,71.9,120.4,72,123.7z"/>
	<path d="M72,22.2c-0.1,2-0.6,3.9-2.2,5.3c-0.2,0.2-0.4,0.3-0.5,0.4c-0.5,0.3-0.9,0.2-1.2-0.2c-0.3-0.4-0.2-0.8,0.2-1.1
		c0.9-0.7,1.5-1.6,1.8-2.7c0.7-2.7-0.2-6-2.6-7.2c-0.8-0.4-1.6-0.5-2.5-0.4c-0.3,0-0.8-0.1-1-0.4c-0.5-0.5,0-1.2,0.7-1.3
		c2.6-0.3,5.1,1,6.3,3.3C71.6,19.2,71.9,20.6,72,22.2z"/>
	<path d="M27.3-11c1,0,2,0.3,3,0.8c0.4,0.2,0.8,0.5,0.5,1.1c-0.2,0.5-0.7,0.7-1.2,0.4c-1-0.5-2.1-0.7-3.2-0.5c-1.8,0.4-3,1.5-4,3
		c-1.1,1.6-1.6,3.3-1.5,5.3c0,0.5-0.1,0.9-0.6,0.9c-0.5,0.1-1-0.2-1-0.7c0-1.1-0.1-2.2,0.2-3.3c0.7-2.6,2.2-4.7,4.5-6.1
		C25-10.7,26.1-11,27.3-11z"/>
	<path d="M19.2,37.1c-3.1-0.1-5.5-0.8-7.2-2.9c-0.8-1-1.2-2.1-1.3-3.4c-0.1-0.7,0.2-1.1,0.7-1.1c0.6,0,0.9,0.3,1,1
		c0.1,1.5,0.7,2.7,1.9,3.5c1.7,1.2,3.6,1.4,5.6,1.1c1.3-0.2,2.5-0.7,3.6-1.5c0.4-0.3,0.7-0.3,1,0.1c0.3,0.4,0.4,0.9,0,1.2
		c-0.7,0.5-1.5,1.1-2.3,1.4C21.2,36.8,19.9,36.9,19.2,37.1z"/>
	<path d="M120.1,99.2c0-3.8,2.5-7.4,6.1-8.7c1.7-0.6,3.4-0.5,5,0.3c0.6,0.3,0.8,0.8,0.6,1.3c-0.3,0.5-0.7,0.6-1.3,0.3
		c-2.3-1.1-4.6-0.5-6.5,1.7c-1.4,1.7-2.2,3.7-2.1,6c0,0.6-0.2,1-0.7,1.1c-0.5,0-1-0.4-1-0.9C120.2,99.9,120.2,99.6,120.1,99.2z"/>
	<path d="M120.1-1.9c0.3-3.9,2-6.9,5.6-8.6c1.8-0.9,3.7-0.7,5.5,0.2c0.6,0.3,0.7,0.7,0.5,1.2c-0.2,0.4-0.7,0.6-1.2,0.4
		c-1-0.4-2-0.7-3-0.5c-2,0.3-3.3,1.6-4.3,3.2c-1,1.5-1.4,3.2-1.3,5c0,0.5-0.1,0.9-0.7,1c-0.5,0.1-1-0.3-1-0.9
		C120.2-1.2,120.2-1.6,120.1-1.9z"/>
	<path d="M120,37.1c-2.7-0.1-5-0.7-6.7-2.7c-1-1.1-1.5-2.4-1.5-3.8c0-0.5,0.1-0.9,0.7-0.9c0.5-0.1,0.9,0.2,1,0.7
		c0.3,3.4,2.9,4.8,5.7,4.9c2,0.1,3.8-0.4,5.4-1.5c0.4-0.3,0.8-0.5,1.2,0c0.3,0.4,0.3,1-0.2,1.4c-1,0.8-2.1,1.3-3.4,1.6
		C121.4,36.9,120.5,37,120,37.1z"/>
	<path d="M19.1,99.5c0-3.9,2.5-7.7,6.1-9c1.7-0.6,3.4-0.5,5,0.4c0.6,0.3,0.8,0.7,0.6,1.2c-0.3,0.6-0.7,0.7-1.4,0.3
		c-2.2-1.1-4.5-0.6-6.3,1.5c-1.5,1.8-2.3,3.8-2.3,6.2c0,0.7-0.2,1-0.7,1.1c-0.5,0-0.9-0.3-1-0.9C19.1,99.9,19.1,99.6,19.1,99.5z"/>
	<path d="M-4.7,78.4c0.1-1,0.8-2.3,1.9-3.3c1.2-1.2,2.6-2,4.4-2.3c1.4-0.2,2.6,0.1,3.8,0.9C5.7,74,6,74.4,5.7,74.9
		c-0.3,0.5-0.9,0.6-1.4,0.2c-0.8-0.6-1.7-0.8-2.7-0.6c-2,0.5-3.5,1.7-4.4,3.6c-0.5,1.1-0.1,2,1,2.5c0.3,0.1,0.5,0.2,0.8,0.4
		c0.4,0.2,0.5,0.6,0.4,1c-0.1,0.4-0.4,0.6-0.8,0.6C-2.9,82.3-4.8,81-4.7,78.4z"/>
	<path d="M96.3,78.8c0.1-1.7,1.1-3,2.5-4.2c1.1-1,2.4-1.6,3.9-1.8c1.4-0.2,2.7,0.1,3.8,1c0.4,0.3,0.7,0.6,0.3,1.1
		c-0.3,0.4-0.8,0.6-1.3,0.3c-2-1.4-3.7-0.6-5.3,0.6c-0.9,0.6-1.6,1.4-2,2.5c-0.4,1,0,1.8,0.9,2.3c0.3,0.1,0.6,0.2,0.9,0.4
		c0.4,0.2,0.7,0.6,0.5,1.1c-0.2,0.5-0.5,0.6-1.1,0.5C97.6,82.1,96.3,80.7,96.3,78.8z"/>
	<path d="M140.1,91.2c-0.1,1.7-0.5,3.6-1.9,5.2c-0.7,0.9-1.7,1.5-2.9,1.4c-1.1,0-2.3-0.2-3.4-0.4c-0.5-0.1-0.7-0.4-0.6-0.9
		c0.1-0.5,0.5-0.8,1-0.7c0.6,0.1,1.2,0.2,1.8,0.3c1.9,0.2,3.2-0.6,3.7-2.5c0.4-1.2,0.6-2.3,0.5-3.6c-0.1-0.6-0.4-1.1-0.9-1.5
		c-0.6-0.5-0.7-0.8-0.3-1.3c0.3-0.4,0.8-0.5,1.4-0.1C139.8,88,140.1,89.4,140.1,91.2z"/>
	<path d="M140.1-10.3c0,1.7-0.4,3.3-1.2,4.7c-0.8,1.5-2.1,2.4-3.9,2.4c-1,0-1.9-0.2-2.8-0.4c-0.7-0.1-0.9-0.5-0.8-1
		c0.1-0.5,0.5-0.8,1.2-0.7c0.6,0.1,1.1,0.3,1.7,0.3c1.7,0.1,2.7-0.4,3.4-2c0.5-1.1,0.8-2.3,0.7-3.5c0-0.8-0.2-1.5-1-2.1
		c-0.6-0.4-0.7-0.8-0.3-1.3c0.3-0.5,0.8-0.5,1.4-0.1c1,0.6,1.4,1.6,1.6,2.7C140.1-11,140.1-10.6,140.1-10.3z"/>
	<path d="M33.6,98c-0.9-0.2-1.8-0.3-2.6-0.5c-0.5-0.1-0.8-0.4-0.7-0.9c0.1-0.5,0.5-0.8,1.1-0.7c0.4,0.1,0.9,0.2,1.3,0.2
		c2.4,0.3,3.4-0.2,4.2-2.5c0.3-0.9,0.5-2,0.6-3c0.1-0.9-0.3-1.6-1-2.1c-0.5-0.4-0.6-0.8-0.3-1.2c0.3-0.4,0.8-0.5,1.3-0.2
		c0.8,0.5,1.3,1.3,1.5,2.2c0.5,2.3,0,4.5-1.2,6.6C36.8,97.3,35.5,97.9,33.6,98z"/>
	<path d="M39.1-10.5C39-8.6,38.6-7,37.8-5.6c-0.9,1.6-2.2,2.4-4,2.3c-0.9,0-1.8-0.2-2.7-0.3c-0.7-0.1-1-0.5-0.9-1.1
		c0.1-0.5,0.6-0.8,1.3-0.7c0.7,0.1,1.4,0.3,2,0.3c1.3,0.1,2.3-0.5,2.9-1.7c0.6-1.2,0.9-2.5,0.9-3.8c0-0.9-0.3-1.6-1-2.1
		c-0.5-0.4-0.6-0.8-0.3-1.2c0.3-0.5,0.7-0.5,1.3-0.2c0.8,0.5,1.3,1.2,1.5,2C39-11.5,39-10.9,39.1-10.5z"/>
	<path d="M99.9,52.7c-0.1-1.1-0.4-2.1-0.9-3.1c-0.3-0.7-0.3-1,0.3-1.3c0.5-0.3,0.9-0.1,1.2,0.5c0.8,1.4,1.1,2.8,1,4.4
		c-0.2,2.2-1,4.1-2.9,5.3c-1.9,1.1-3.8,0.9-5.7-0.1c-0.4-0.2-0.6-0.5-0.4-1c0.2-0.5,0.6-0.7,1.1-0.5c0.4,0.1,0.7,0.3,1.1,0.4
		c2.1,0.6,4-0.3,4.7-2.4C99.7,54.2,99.8,53.4,99.9,52.7z"/>
	<path d="M0.5,52.8c-0.1,2.4-0.8,4.4-2.9,5.7c-1.9,1.1-3.8,0.9-5.7-0.1c-0.4-0.2-0.6-0.6-0.4-1c0.2-0.4,0.6-0.7,1.2-0.5
		c0.4,0.1,0.8,0.3,1.2,0.4c1.8,0.5,3.6-0.3,4.3-2C-1,53.4-1,51.5-2,49.7c-0.3-0.6-0.2-1,0.3-1.3c0.5-0.3,0.9-0.1,1.2,0.5
		C0.2,50,0.6,51.3,0.5,52.8z"/>
	<path d="M2.1,20.9c0.1-2.8,1.3-4.8,3.1-6.5c0.4-0.3,0.8-0.3,1.2,0.1c0.4,0.4,0.3,0.8,0,1.2c-0.6,0.8-1.4,1.6-1.9,2.5
		c-1.1,1.9-0.7,4.1,0.9,5.3c0.9,0.7,2,0.9,3.1,1c0.7,0,1.1,0.3,1.1,0.9c0,0.5-0.2,0.9-0.7,0.9c-2.1,0-5.2-0.9-6.2-3.4
		C2.3,22.2,2.2,21.4,2.1,20.9z"/>
	<path d="M61.7,60.6c-2-0.2-3.8-0.7-5.1-2.3c-1-1.3-1.3-2.8-1-4.3c0.3-2,1.3-3.6,2.7-5c0.5-0.5,0.9-0.6,1.4-0.1
		c0.4,0.4,0.4,0.8-0.1,1.4c-0.8,0.9-1.6,1.8-2,3c-1,2.5,0.3,4.9,3,5.5c0.4,0.1,0.9,0.1,1.3,0.2c0.8,0.1,1.2,0.4,1.1,1
		C62.9,60.4,62.5,60.6,61.7,60.6z"/>
	<path d="M103.2,20.6c0.1-2.5,1.2-4.5,3-6.1c0.4-0.3,0.8-0.3,1.1,0c0.4,0.4,0.4,0.7,0.1,1.2c-0.7,0.9-1.5,1.8-2,2.8
		c-1.4,2.8,0.1,5.5,3.2,5.9c0.4,0.1,0.7,0.1,1.1,0.1c0.6,0.1,1,0.5,0.9,1c-0.1,0.5-0.4,0.8-1,0.7c-2-0.2-3.8-0.7-5.2-2.2
		C103.5,23,103.2,21.9,103.2,20.6z"/>
	<path d="M103.2,121.7c0-2.5,1.2-4.4,2.9-6.1c0.5-0.4,0.9-0.4,1.3,0c0.4,0.4,0.3,0.8-0.1,1.2c-0.7,0.9-1.5,1.8-2,2.8
		c-1.3,2.5,0,5.1,2.8,5.8c0.6,0.1,1.2,0.2,1.7,0.3c0.5,0.1,0.7,0.4,0.7,0.9c0,0.4-0.3,0.8-0.8,0.7c-2.1,0-4-0.6-5.5-2.2
		C103.5,124.2,103.2,123,103.2,121.7z"/>
	<path d="M2.1,121.7c0.1-2.5,1.2-4.5,3-6.1c0.4-0.4,0.9-0.4,1.3,0c0.3,0.4,0.3,0.8-0.1,1.2c-0.9,1-1.7,2-2.2,3.3
		c-0.8,2.3,0.4,4.6,2.7,5.2c0.6,0.1,1.2,0.2,1.8,0.3c0.7,0.1,1,0.4,1,1c0,0.5-0.4,0.7-1.1,0.7c-1.9-0.1-3.6-0.6-4.9-2
		C2.5,124.4,2.2,123.1,2.1,121.7z"/>
	<path d="M118.6,104.2c1.2,0,2.3,0.2,3.3,0.8c1.3,0.8,2.2,2.7,2,4.3c-0.1,0.5-0.4,0.8-0.9,0.8c-0.5,0-0.8-0.3-0.8-0.8
		c-0.1-0.5,0-1.1-0.2-1.5c-0.5-1.3-1.6-1.8-2.9-1.8c-2.4,0-4.5,1-5.9,3c-0.5,0.7-0.9,0.7-1.4,0.3c-0.4-0.4-0.3-0.8-0.1-1.2
		c0.7-1.3,1.9-2.2,3.2-2.8C116.1,104.5,117.4,104.2,118.6,104.2z"/>
	<path d="M118.8,3c1.8,0.1,3.6,0.6,4.5,2.5c0.4,0.8,0.4,1.7,0.5,2.6c0.1,0.5-0.3,0.9-0.9,0.9c-0.6,0-0.8-0.4-0.9-0.9
		c-0.1-0.5,0-1-0.2-1.5c-0.4-1.1-1.3-1.7-2.4-1.8c-2.6-0.2-4.7,0.8-6.3,2.9c-0.2,0.3-0.5,0.5-0.8,0.6c-0.2,0-0.6-0.2-0.7-0.4
		c-0.1-0.3-0.1-0.7,0.1-1c0.6-1.1,1.6-2,2.7-2.6C115.8,3.5,117.2,3.1,118.8,3z"/>
	<path d="M17.1,104.2c2.3,0,3.9,0.5,4.9,2c0.6,0.9,0.8,1.9,0.7,3c0,0.5-0.3,0.9-0.9,0.9c-0.6,0-0.8-0.3-0.8-0.9
		c-0.1-0.7-0.2-1.4-0.5-2c-0.8-1.3-2.2-1.5-3.6-1.3c-2.1,0.3-3.8,1.2-5,3c-0.3,0.4-0.6,0.7-1.1,0.3c-0.5-0.3-0.6-0.7-0.3-1.2
		c0.7-1.4,1.9-2.3,3.3-3C15.1,104.5,16.4,104.2,17.1,104.2z"/>
	<path d="M17.7,4.7c-2.3,0.2-4.3,1-5.6,3c-0.4,0.5-0.8,0.7-1.2,0.4c-0.4-0.3-0.6-0.7-0.3-1.2c0.8-1.5,2.1-2.5,3.6-3.1
		c1.7-0.7,3.4-1,5.3-0.5c2.4,0.6,3.5,2.6,3.3,4.9c0,0.5-0.4,0.8-0.9,0.8c-0.5,0-0.7-0.4-0.8-0.9c-0.1-0.7-0.2-1.4-0.5-2
		C20,5,18.9,4.7,17.7,4.7z"/>
	<path d="M29.9,126.6c0,2.8-0.7,4.7-2.5,6.1c-0.2,0.1-0.4,0.2-0.6,0.3c-0.5,0.3-0.9,0-1.1-0.4c-0.3-0.4-0.2-0.8,0.2-1.1
		c0.8-0.5,1.4-1.2,1.8-2.1c1.1-2.5,0-6.2-2.3-7.3c-0.3-0.1-0.6-0.1-0.8-0.2c-0.3-0.1-0.6-0.1-0.8-0.3c-0.2-0.2-0.4-0.7-0.3-0.9
		c0.1-0.3,0.6-0.5,0.9-0.5c1.9,0.2,3.3,1.2,4.3,2.7C29.5,124.2,29.9,125.6,29.9,126.6z"/>
	<path d="M45.1,65.1c-0.2,2.6-1.4,5-4.2,6.5c-0.9,0.5-1.8,0.6-2.8,0.6c-0.5,0-1-0.5-0.9-1c0.1-0.6,0.4-0.8,1-0.8
		c2.5,0.2,4.3-2.1,4.9-3.9c0.4-1.2,0.6-2.4,0.1-3.5c-0.2-0.5-0.6-0.9-0.9-1.3c-0.2-0.3-0.4-0.6-0.4-0.9c0-0.3,0.2-0.6,0.5-0.8
		c0.2-0.1,0.6,0,0.8,0.1C44.3,61,45.1,62.8,45.1,65.1z"/>
	<path d="M131,126.8c-0.1,2.7-0.8,4.6-2.7,6c-0.7,0.5-1.1,0.5-1.5,0.1c-0.4-0.4-0.4-0.7,0-1.1c0.4-0.3,0.8-0.6,1.1-0.9
		c1.3-1.5,1.5-3.3,1-5.2c-0.4-1.5-1.1-2.7-2.5-3.4c-0.3-0.1-0.7-0.2-1-0.3c-0.6-0.1-1-0.6-0.9-1.1c0.1-0.5,0.5-0.7,1.2-0.6
		c2.2,0.4,3.7,1.7,4.5,3.7C130.7,125,130.9,126.1,131,126.8z"/>
	<path d="M131,26.3c-0.1,2.1-0.8,4.1-2.9,5.4c-0.4,0.3-0.9,0.3-1.2-0.1c-0.4-0.4-0.5-0.9,0.1-1.2c2.8-1.6,2.8-5.9,1.1-8.1
		c-0.6-0.8-1.4-1.4-2.4-1.6c-0.2,0-0.4-0.1-0.5-0.1c-0.5-0.2-0.6-0.6-0.6-1.1c0.1-0.5,0.5-0.6,0.9-0.5c2,0.1,3.4,1.2,4.4,2.9
		C130.6,23.2,131,24.7,131,26.3z"/>
	<path d="M29.9,26c0,2.3-0.7,4.3-2.7,5.7c-0.1,0.1-0.2,0.1-0.3,0.2c-0.5,0.2-0.9,0.1-1.2-0.4c-0.2-0.4-0.1-0.8,0.3-1.1
		c3-1.9,2.7-6.6,0.5-8.6c-0.5-0.5-1.2-0.7-1.8-1c-0.1-0.1-0.3-0.1-0.5-0.1c-0.5-0.2-0.7-0.5-0.7-1c0.1-0.5,0.5-0.6,0.9-0.6
		c1.6,0.1,2.9,0.9,3.9,2.1C29.4,22.6,29.9,24.3,29.9,26z"/>
	<path d="M102.6,40.2c-0.5,0-1,0-1.4,0c-0.5,0-0.8-0.3-0.9-0.8c0-0.5,0.3-0.8,0.7-0.9c2-0.1,4.1-0.2,6,0.7c1.8,0.8,2.6,2.3,2.5,4.2
		c-0.1,1.8-0.7,3.3-2,4.5c-0.6,0.5-0.9,0.5-1.3,0.1c-0.4-0.4-0.4-0.9,0.2-1.4c1-0.9,1.4-2,1.4-3.3c0-1.4-0.7-2.4-2.1-2.7
		c-0.4-0.1-0.9-0.2-1.3-0.3C103.8,40.2,103.2,40.2,102.6,40.2C102.6,40.2,102.6,40.2,102.6,40.2z"/>
	<path d="M75.4,0.9c0-2.9,1.3-4.6,3.5-5.3c0.6-0.2,1,0,1.2,0.5c0.2,0.4-0.1,0.9-0.6,1c-1.4,0.4-2.2,1.3-2.4,2.8
		c-0.1,1.5,0.3,2.8,1.5,3.7c0.9,0.7,2,0.7,3,0.2c0.2-0.1,0.3-0.2,0.5-0.2c0.5-0.2,0.8,0,1,0.4c0.2,0.4,0.1,0.8-0.3,1
		c-1.4,1.1-3.8,1-5.3-0.2C76.1,3.8,75.4,2.3,75.4,0.9z"/>
	<path d="M1.5,40.2c-0.5,0-1,0-1.4,0c-0.5,0-0.8-0.3-0.8-0.8c0-0.5,0.2-0.9,0.7-0.9c2.2-0.1,4.4-0.2,6.4,0.9c1.2,0.7,2,1.7,2.1,3.2
		c0.2,2-0.4,3.7-1.8,5.2c-0.6,0.6-1.1,0.7-1.4,0.3c-0.4-0.4-0.3-1,0.3-1.6c0.9-0.9,1.3-2,1.3-3.3c0-1.3-0.8-2.4-2.1-2.7
		c-1-0.2-2-0.3-3.1-0.5C1.6,40.2,1.5,40.2,1.5,40.2z"/>
	<path d="M80.5,105.4c0.3-0.1,0.9-0.3,1.4-0.5c0.6-0.3,1-0.2,1.3,0.3c0.2,0.4,0,0.9-0.5,1.2c-1.8,1.1-4,0.8-5.5-0.7
		c-2.1-2-2.4-5.5-0.6-7.5c0.6-0.6,1.4-1,2.2-1.5c0.3-0.1,0.8-0.1,1,0.1c0.6,0.4,0.4,1.1-0.3,1.4c-0.9,0.3-1.6,0.7-2.1,1.6
		c-0.7,1.3-0.5,2.6,0.2,3.9C78.2,104.7,79.1,105.4,80.5,105.4z"/>
	<path d="M-25.8,101.6c0.1-2.2,1.3-4,3.3-4.7c0.2-0.1,0.5-0.2,0.7-0.1c0.3,0.1,0.7,0.4,0.8,0.7c0.1,0.2-0.2,0.6-0.4,0.8
		c-0.3,0.2-0.7,0.3-1,0.5c-1,0.6-1.5,1.5-1.6,2.7c0,1,0.3,1.9,0.8,2.7c0.9,1.3,2.3,1.6,4,0.9c0.7-0.3,1-0.2,1.3,0.3
		c0.2,0.5,0,0.9-0.6,1.2c-2.5,1.3-5.4,0.3-6.6-2.3C-25.4,103.4-25.5,102.5-25.8,101.6z"/>
	<path d="M-20.7,6c-2,0-3.7-1.2-4.6-3.5c-0.9-2.2-0.2-4.8,1.6-6.1c0.5-0.3,1.1-0.5,1.6-0.8c0.5-0.2,0.8,0.1,1,0.5
		c0.2,0.5,0,0.9-0.4,1.1c-0.2,0.1-0.4,0.1-0.6,0.2C-23.4-2-24-0.9-24,0.5c0,1.8,1.1,3.4,2.7,3.6c0.6,0.1,1.3-0.1,1.9-0.2
		c0.2,0,0.3-0.2,0.4-0.2c0.5-0.1,0.8-0.1,1.1,0.4c0.2,0.5,0.1,0.8-0.3,1.1C-18.8,5.6-19.8,6-20.7,6z"/>
	<path d="M46.7,49.6c1.3,0,2.9,1,4.1,2.9c0.1,0.2,0.2,0.4,0.2,0.6c0.1,0.5-0.2,0.8-0.6,0.9c-0.3,0.1-0.7-0.1-0.9-0.3
		c-0.3-0.2-0.4-0.6-0.6-0.9c-1.3-1.6-3.6-1.9-5.6-0.7c-1.2,0.7-2.1,1.7-2.6,3.1c-0.2,0.6-0.7,0.9-1.2,0.6c-0.5-0.2-0.6-0.6-0.4-1.2
		C40.3,51.5,42.8,49.6,46.7,49.6z"/>
	<path d="M48.8,30.1c2.1,0.1,3.8,1.1,4.9,3.1c0.3,0.6,0.2,1-0.3,1.3c-0.4,0.2-0.9,0.1-1.2-0.4c-0.4-0.8-1-1.4-1.8-1.8
		c-1.7-0.8-3.2-0.4-4.7,0.6c-1,0.6-1.7,1.5-2.1,2.6c-0.2,0.5-0.4,1-1.2,0.9c-0.6-0.1-0.8-0.6-0.5-1.4c0.6-1.6,1.6-2.9,3.1-3.8
		C46.1,30.5,47.3,30.1,48.8,30.1z"/>
	<path d="M66.9,89.3c0.6,0.1,1.4,0.1,2.2,0.2c1.7,0.2,2.9,1,3.5,2.7c0.8,2.2,0,5.4-1.9,6.8c-0.1,0.1-0.2,0.2-0.3,0.2
		c-0.4,0.2-0.8,0-1.1-0.3c-0.3-0.4-0.2-0.7,0.1-1c0.3-0.4,0.7-0.6,1-1c1.1-1.4,1-3,0.3-4.5c-0.4-0.9-1.3-1.1-2.2-1.3
		c-0.7-0.1-1.5,0-2.2-0.1c-0.3,0-0.7-0.1-0.8-0.3c-0.2-0.2-0.3-0.7-0.2-0.9c0.1-0.2,0.4-0.4,0.7-0.5C66.2,89.2,66.5,89.3,66.9,89.3z
		"/>
	<path d="M67.2-11.8c0.8,0.1,1.6,0.2,2.4,0.4c1.6,0.3,2.5,1.3,3,2.7c0.7,2.2,0,5.1-1.8,6.6c-0.2,0.1-0.4,0.4-0.6,0.3
		c-0.3-0.1-0.7-0.2-1-0.4c-0.3-0.3-0.2-0.6,0.1-0.9c0.1-0.1,0.2-0.2,0.3-0.3c1.7-1.4,1.8-3.2,1.2-5.1c-0.3-0.8-1-1.3-1.8-1.4
		c-0.8-0.1-1.7-0.2-2.5-0.2c-0.3,0-0.6,0-0.9-0.1c-0.5-0.2-0.6-0.6-0.5-1c0.1-0.4,0.4-0.6,0.8-0.5C66.4-11.8,66.8-11.8,67.2-11.8
		C67.2-11.8,67.2-11.8,67.2-11.8z"/>
	<path d="M137.2,134.4c-0.6,0-1,0-1.5,0c-0.1,0-0.3-0.1-0.3-0.2c-0.3-1-0.7-2-0.8-3c-0.2-1.4,0.6-2.1,2.1-2c0.5,0,1.1,0.2,1.6,0.3
		c0.5,0.1,1,0,1.1-0.5c0.1-0.3,0-0.8-0.1-1.1c-0.4-0.6-0.9-1.1-1.4-1.7c-0.3-0.4-0.3-0.8,0-1.1c0.4-0.3,0.8-0.5,1.2,0
		c0.7,0.8,1.5,1.7,2,2.6c0.9,1.8-0.8,3.9-2.8,3.6c-0.4-0.1-0.8-0.2-1.2-0.2c-0.6-0.1-0.8,0.1-0.6,0.6c0.2,0.6,0.4,1.3,0.6,1.9
		C137,133.7,137,134,137.2,134.4z"/>
	<path d="M36.1,134.4c-0.5,0-1,0-1.5,0c-0.1,0-0.3-0.2-0.4-0.3c-0.3-0.8-0.6-1.6-0.8-2.5c-0.3-1.5,0.5-2.5,2.1-2.3
		c0.5,0,1,0.2,1.5,0.2c0.5,0.1,0.9,0,1.2-0.5c0.3-0.4,0.1-0.8-0.2-1.2c-0.4-0.5-0.8-1-1.2-1.5c-0.4-0.5-0.5-1-0.1-1.3
		c0.5-0.4,0.9-0.4,1.4,0.2c0.5,0.6,1.1,1.3,1.5,2c0.6,1,0.5,2-0.2,3c-0.7,0.9-1.6,1.2-2.8,1c-0.3-0.1-0.6-0.1-0.9-0.2
		c-0.7-0.1-0.8,0.1-0.6,0.8c0.2,0.7,0.5,1.4,0.7,2.1C36,134,36,134.1,36.1,134.4z"/>
	<path d="M48.9,39.9c-0.4,0-0.7,0-1.1,0c-0.5-0.1-0.7-0.4-0.8-0.9c0-0.4,0.2-0.6,0.5-0.7c2-0.5,5.3,0,6.9,2c1.2,1.5,1.4,3.6,0.3,5.4
		c-0.3,0.4-0.6,0.9-0.9,1.3c-0.3,0.3-0.6,0.5-1,0.2c-0.4-0.3-0.6-0.7-0.3-1.2c0.3-0.4,0.6-0.9,0.8-1.3c1.1-2.3-0.2-3.7-1.9-4.4
		c-0.8-0.3-1.7-0.4-2.6-0.6C49,39.7,49,39.8,48.9,39.9z"/>
	<path d="M-19.3,122.5c2.1,0.1,4,1.1,5.6,2.6c0.4,0.4,0.5,0.8,0.1,1.2c-0.4,0.4-0.8,0.5-1.3,0c-0.9-0.8-1.8-1.5-3-1.9
		c-2.2-0.7-4.3,0.2-5.3,2.4c-0.1,0.2-0.2,0.5-0.4,0.7c-0.3,0.3-0.6,0.5-1.1,0.2c-0.4-0.2-0.5-0.6-0.4-1
		C-24.1,124.4-22.3,122.5-19.3,122.5z"/>
	<path d="M-19.7,21.3c2.5,0.1,4.4,1.1,6,2.7c0.4,0.4,0.4,0.8,0,1.2c-0.4,0.4-0.8,0.4-1.2,0.1c-0.8-0.6-1.6-1.3-2.6-1.7
		c-2.3-1.1-4.7-0.2-5.7,2.1c0,0.1-0.1,0.2-0.1,0.2c-0.3,0.7-0.8,1-1.4,0.7c-0.5-0.2-0.6-0.7-0.2-1.5c0.8-1.7,1.9-3,3.7-3.6
		C-20.6,21.4-20,21.4-19.7,21.3z"/>
	<path d="M81.6,21.4c2.3,0.1,4.2,1.1,5.7,2.7c0.4,0.4,0.4,0.8,0,1.2c-0.4,0.4-0.8,0.3-1.2,0c-0.7-0.6-1.5-1.2-2.3-1.6
		c-2.7-1.3-4.9-0.4-6.2,2.3c-0.3,0.6-0.7,0.9-1.2,0.7c-0.4-0.1-0.7-0.4-0.5-0.9C76.7,23.5,78.7,21.2,81.6,21.4z"/>
	<path d="M81.8,124.2c-2.2,0.1-3.4,1.2-4.1,2.9c-0.3,0.7-0.9,0.9-1.4,0.6c-0.3-0.2-0.5-0.5-0.3-0.9c1.2-3.8,5.2-5.4,8.7-3.5
		c0.9,0.5,1.7,1.1,2.5,1.8c0.6,0.5,0.6,0.9,0.1,1.4c-0.4,0.4-0.8,0.4-1.3-0.1c-0.9-0.8-1.8-1.5-3-1.9
		C82.6,124.3,82.1,124.2,81.8,124.2z"/>
	<path d="M79.6,86.6c-1.7-0.1-3.4-0.7-4.7-2.2c-1.5-1.9-1.2-4,0.8-5.3c0.6-0.4,1.3-0.7,2-0.9c0.5-0.2,0.9,0,1.1,0.5
		c0.2,0.5-0.1,0.9-0.6,1.1c-0.6,0.2-1.2,0.5-1.7,0.8c-1,0.7-1.2,1.6-0.4,2.6c0.9,1.2,2.1,1.6,3.5,1.7c0.2,0,0.4,0,0.6,0.1
		c0.5,0.1,0.8,0.3,0.8,0.9c0,0.5-0.4,0.8-0.9,0.8C80,86.6,79.8,86.6,79.6,86.6z"/>
	<path d="M-21.4,86.6c-2.2-0.2-4.2-0.9-5.3-3c-0.8-1.5-0.5-3.1,0.8-4.1c0.8-0.6,1.7-1,2.6-1.3c0.5-0.2,1,0.1,1.1,0.5
		c0.1,0.4-0.1,0.9-0.6,1.1c-0.6,0.2-1.2,0.5-1.7,0.8c-1.1,0.7-1.3,1.6-0.4,2.7c0.9,1.1,2.1,1.5,3.5,1.6c0.2,0,0.4,0,0.6,0.1
		c0.5,0.1,0.8,0.4,0.7,0.8c0,0.5-0.3,0.8-0.8,0.8C-21,86.6-21.2,86.6-21.4,86.6z"/>
	<path d="M69.6,73.3c-0.3,1-0.6,2.1-0.9,3.1c-0.1,0.2-0.5,0.5-0.8,0.5c-0.4,0-0.7-0.3-0.7-0.8c0-0.3,0.1-0.6,0.2-0.8
		c1-2.5,0.2-4.4-2.4-5.2c-1-0.3-2-0.4-3.1-0.6c-0.6-0.1-0.9-0.3-0.9-0.9c0-0.4,0.2-0.8,0.6-0.8c2.5,0,4.9,0.4,6.7,2.4
		c0.8,0.9,1.2,1.9,1.1,3.2C69.4,73.2,69.5,73.2,69.6,73.3z"/>
	<path d="M-23.2,54.2c0,1.9-1.2,3.7-3.1,4.5c-0.5,0.2-0.9,0.2-1.2-0.3c-0.2-0.5,0-0.9,0.5-1.3c0.5-0.4,1.1-0.7,1.5-1.2
		c0.9-1.2,0.7-2.8-0.5-4c-0.6-0.6-1.3-1.1-2.2-1.2c-0.3-0.1-0.6-0.1-0.8-0.3c-0.2-0.3-0.3-0.7-0.3-1c0-0.2,0.5-0.5,0.7-0.5
		C-26,49.2-23.3,51.1-23.2,54.2z"/>
	<path d="M77.8,54.3c0,2-1.3,3.8-3.2,4.5c-0.4,0.2-0.8,0.1-1-0.3c-0.2-0.4-0.2-0.8,0.2-1.1c0.3-0.2,0.6-0.4,0.8-0.5
		c1.6-1,2-2.7,0.9-4.3c-0.6-1-1.5-1.6-2.7-1.9c-0.3-0.1-0.6-0.1-0.8-0.3c-0.2-0.3-0.3-0.7-0.3-1c0-0.2,0.5-0.5,0.8-0.4
		C75,49.2,77.8,51,77.8,54.3z"/>
	<path d="M134.9,17.3c-2.4-0.3-4.7-1.1-6.3-3.4c-0.3-0.4-0.4-1-0.5-1.6c-0.1-0.5,0.2-0.9,0.7-1c0.5-0.1,0.9,0.2,1,0.6
		c0.2,1.2,0.9,1.9,1.9,2.4c1.2,0.7,2.5,1.2,3.9,1.1c0.7,0,1.3-0.4,1.5-1.1c0.2-0.5,0.5-0.8,1.1-0.6c0.5,0.2,0.7,0.6,0.6,1.1
		c-0.2,1.1-1.2,2-2.4,2.2C135.9,17.3,135.5,17.3,134.9,17.3z"/>
	<path d="M33.6,17.3c-2-0.2-4.2-1-5.8-3c-0.5-0.6-0.7-1.3-0.7-2.1c0-0.5,0.3-0.8,0.7-0.8c0.3,0,0.8,0.3,0.8,0.6
		c0.2,1.5,1.3,2.3,2.6,2.9c0.9,0.4,2,0.6,3,0.8c0.8,0.1,1.5-0.2,1.8-1.1c0.2-0.6,0.7-0.8,1.2-0.6c0.5,0.2,0.7,0.7,0.4,1.3
		C37.1,16.6,36,17.3,33.6,17.3z"/>
	<path d="M135.2,118.5c-2.7-0.3-5-1.1-6.5-3.4c-0.3-0.4-0.4-1-0.5-1.6c-0.1-0.5,0.1-0.9,0.6-1c0.5-0.1,0.9,0.1,1,0.6
		c0.2,1.1,0.8,1.8,1.7,2.4c1.3,0.8,2.7,1.3,4.2,1.2c0.7,0,1.2-0.4,1.4-1.1c0.2-0.5,0.5-0.8,1-0.6c0.5,0.1,0.8,0.6,0.6,1.2
		c-0.2,1-0.9,1.7-1.8,2C136.3,118.3,135.7,118.4,135.2,118.5z"/>
	<path d="M33.8,118.4c-2.2-0.2-4.4-1-6-3c-0.5-0.6-0.7-1.3-0.7-2.1c0-0.4,0.2-0.8,0.7-0.8c0.5,0,0.8,0.2,0.9,0.6
		c0.2,1.3,1.1,2.1,2.2,2.6c1.1,0.6,2.3,1,3.5,0.9c0.7,0,1.3-0.3,1.6-1c0.3-0.7,0.6-0.9,1.1-0.7c0.6,0.2,0.8,0.7,0.5,1.4
		C37,117.8,35.9,118.4,33.8,118.4z"/>
	<path d="M42.5,44.4c1,0,1.9-0.3,2.8-0.8c0.3-0.2,0.7-0.4,1.1-0.1c0.6,0.4,0.6,0.9,0.1,1.3c-1.6,1.2-3.4,1.6-5.3,1.2
		c-1.3-0.3-2.4-0.7-3.2-1.9c-0.7-1.2-0.6-3.2,0.3-4.3c0.3-0.4,0.6-0.5,1-0.3c0.4,0.2,0.6,0.6,0.4,1c-0.1,0.2-0.1,0.3-0.2,0.5
		c-0.7,1.7-0.1,2.9,1.8,3.2C41.7,44.4,42.1,44.4,42.5,44.4z"/>
	<path d="M104.8,105.8c0,2.3-0.9,3.7-2.5,4.3c-0.4,0.2-0.9,0.3-1.2-0.1c-0.5-0.5-0.3-1.1,0.4-1.4c0.9-0.4,1.5-1,1.6-2
		c0.2-1.9-1.4-3.6-3.3-3.5c-0.1,0-0.3,0-0.4,0c-0.6,0-1-0.4-1-0.9c0-0.5,0.3-0.8,0.9-0.9c1.2-0.1,2.3,0.1,3.3,0.8
		C104.1,103.2,104.7,104.6,104.8,105.8z"/>
	<path d="M-1.4,103.1c-0.1,0-0.3,0-0.4,0c-0.5,0-0.8-0.4-0.9-0.9c-0.1-0.5,0.3-0.7,0.8-0.8c1.1-0.2,2.2,0.1,3.2,0.6
		c2.5,1.3,3.3,5,1.5,7c-0.5,0.5-1.2,0.9-1.8,1.2c-0.5,0.2-0.9,0.1-1.1-0.4c-0.2-0.5,0-0.9,0.5-1.1c1.7-0.6,1.9-2.1,1.6-3.1
		C1.5,104,0.2,103-1.4,103.1z"/>
	<path d="M104.7,5.2c0,1.9-1.1,3.4-2.8,3.9c-0.5,0.2-0.9,0-1.1-0.5c-0.2-0.5,0-0.9,0.5-1.1c1.6-0.5,1.9-1.9,1.6-3.1
		c-0.3-1.4-1.6-2.5-3-2.5c-0.3,0-0.6,0-0.9,0c-0.5-0.1-0.7-0.4-0.7-0.9c0-0.5,0.3-0.7,0.8-0.7C102.2-0.1,104.7,2.1,104.7,5.2z"/>
	<path d="M-1.4,0.3c3.6,0,5.9,3.2,4.8,6.5C3,8,2.1,8.8,0.9,9.1C0.4,9.3,0,9.1-0.2,8.6c-0.2-0.4-0.1-0.8,0.3-1c0.1,0,0.1-0.1,0.2-0.1
		c1.5-0.4,1.9-1.9,1.6-3C1.6,3,0.2,1.9-1.2,1.9c-0.3,0-0.7,0.1-0.9-0.1C-2.4,1.6-2.7,1.3-2.7,1c0-0.2,0.4-0.5,0.7-0.7
		C-1.8,0.2-1.5,0.3-1.4,0.3z"/>
	<path d="M81.8,33.8c0.3-2.1,1.4-4.1,3.6-5.5c0.4-0.3,0.8-0.2,1.1,0.2c0.3,0.4,0.3,0.7-0.1,1.1c-0.7,0.8-1.5,1.5-2.1,2.4
		c-0.4,0.6-0.6,1.3-0.7,2c-0.2,0.8,0.3,1.2,1,1.3c0.2,0,0.4,0,0.6,0c0.5,0,0.8,0.3,0.9,0.8c0,0.5-0.3,0.9-0.8,0.9
		C83.6,37.2,81.8,36.4,81.8,33.8z"/>
	<path d="M-19.2,33.9c0.3-2.2,1.4-4.2,3.5-5.6c0.4-0.3,0.8-0.2,1.1,0.2c0.3,0.4,0.3,0.8-0.1,1.2c-0.5,0.4-1,0.8-1.4,1.3
		c-0.5,0.8-1,1.7-1.4,2.6c-0.4,1,0.1,1.6,1.2,1.7c0.1,0,0.3,0,0.4,0c0.5,0.1,0.8,0.3,0.8,0.8c0,0.5-0.3,0.8-0.7,0.9
		C-17.5,37.5-19.2,36.1-19.2,33.9z"/>
	<path d="M53.9,62.1c-1.3,0-2.2,0.6-3,1.6c-0.1,0.2-0.2,0.3-0.3,0.5c-0.3,0.3-0.7,0.4-1.1,0.1c-0.3-0.2-0.5-0.6-0.3-1
		c0.9-1.7,2.3-2.6,4.1-2.8c2.1-0.2,4.2,0.9,5.1,2.8c0.3,0.7,0.2,1.2-0.3,1.5c-0.5,0.2-0.8,0.1-1.2-0.7
		C56.3,62.8,55.3,62.2,53.9,62.1z"/>
	<path d="M129.6,5.3c0-2,1.3-3.5,3.2-3.7c1.8-0.3,3.5,0.9,4,2.7c0.1,0.2,0.2,0.5,0.2,0.7c0.1,0.7-0.1,1.1-0.6,1.2
		c-0.5,0.1-0.9-0.3-1.1-0.9c-0.1-0.4-0.2-0.8-0.4-1.1c-0.5-0.7-1.3-1-2.1-0.8c-0.8,0.2-1.3,0.9-1.4,1.8c0,0.3,0,0.6,0.1,0.9
		c0,0.5-0.3,0.8-0.7,0.9c-0.5,0.1-0.8-0.2-0.9-0.6C129.6,6.1,129.6,5.7,129.6,5.3z"/>
	<path d="M55.4,23c0-2.8,2.9-4.6,5.4-3.4c0.3,0.1,0.5,0.6,0.5,0.9c0,0.4-0.4,0.7-0.9,0.7c-0.3,0-0.6-0.1-0.9-0.2
		c-1.2-0.1-2,0.4-2.3,1.5c-0.2,1,0.3,1.8,1.3,2.2c0.3,0.1,0.6,0.2,0.7,0.4c0.2,0.2,0.3,0.7,0.1,0.9c-0.1,0.3-0.6,0.5-0.8,0.5
		C57,26.2,55.3,24.8,55.4,23z"/>
	<path d="M129.6,106.4c0-1.9,1.2-3.4,2.9-3.7c2.1-0.3,3.8,0.7,4.4,2.7c0.1,0.2,0.1,0.4,0.2,0.6c0.1,0.7-0.1,1.2-0.6,1.2
		c-0.6,0.1-1-0.3-1.1-0.9c-0.1-0.4-0.2-0.8-0.4-1.1c-0.4-0.7-1.3-1-2.1-0.7c-0.9,0.2-1.3,0.8-1.4,1.7c0,0.3,0,0.6,0.1,0.9
		c0,0.5-0.2,0.8-0.7,0.9c-0.5,0.1-0.9-0.1-1-0.6C129.6,107.2,129.6,106.8,129.6,106.4z"/>
	<path d="M-11.5,79.2c1.6,0.1,2.9,1.1,3.4,2.6c0.5,1.8-0.1,3.5-1.6,4.4c-0.2,0.2-0.5,0.3-0.8,0.4c-0.4,0.1-0.8,0.1-1-0.3
		c-0.2-0.4-0.2-0.8,0.3-1.2c0.4-0.3,0.9-0.6,1.3-1.1c0.5-0.7,0.4-1.5-0.1-2.3c-0.5-0.6-1.3-0.9-2.1-0.6c-0.2,0.1-0.4,0.2-0.6,0.2
		c-0.6,0.2-1,0.1-1.2-0.4c-0.3-0.6,0.1-0.9,0.5-1.1C-12.9,79.6-12.2,79.4-11.5,79.2z"/>
	<path d="M32.2,1.6c2,0,3.6,1.6,3.8,3.6c0,0.5-0.1,0.9-0.6,1c-0.5,0.1-0.9-0.2-1-0.7c-0.2-0.7-0.3-1.3-1-1.8c-0.6-0.4-1.3-0.5-2-0.2
		c-0.7,0.3-1.1,0.9-1.1,1.7c0,0.3,0.1,0.6,0.1,0.9C30.3,6.7,30,7,29.6,7c-0.3,0-0.8-0.3-0.8-0.6C28.1,4.1,29.3,1.6,32.2,1.6z"/>
	<path d="M55.4,124c0-2.7,2.7-4.5,5.2-3.5c0.6,0.2,0.9,0.6,0.7,1c-0.2,0.6-0.7,0.8-1.4,0.6c-1.3-0.4-2.4,0.1-2.7,1.4
		c-0.2,0.9,0.2,1.7,1.1,2.1c0.2,0.1,0.5,0.2,0.7,0.3c0.4,0.2,0.7,0.5,0.5,1c-0.1,0.5-0.5,0.7-1,0.6C57.2,127.4,55.3,126,55.4,124z"
		/>
	<path d="M93.2,82.9c-0.1,1.6-1.1,3-2.6,3.6c-0.5,0.2-0.9,0.2-1.1-0.3c-0.3-0.5-0.1-0.9,0.4-1.2c0.6-0.4,1.3-0.8,1.5-1.6
		c0.2-0.8-0.1-1.4-0.6-1.9c-0.5-0.5-1.1-0.6-1.7-0.4c-0.3,0.1-0.6,0.2-0.8,0.3c-0.5,0.2-0.8,0.1-1.1-0.3c-0.3-0.4-0.2-0.8,0.2-1.2
		c1.6-1.3,4.4-0.6,5.3,1.2C92.9,81.7,93,82.3,93.2,82.9z"/>
	<path d="M32.2,102.7c2,0,3.7,1.6,3.7,3.6c0,0.5-0.1,0.9-0.6,0.9c-0.5,0.1-0.9-0.2-1-0.7c-0.1-0.3-0.1-0.6-0.2-0.8
		c-0.4-0.9-1.3-1.5-2.2-1.3c-1.1,0.2-1.7,1-1.6,2.1c0,0.2,0.1,0.5,0.1,0.7c0,0.5-0.3,0.8-0.8,0.8c-0.5,0-0.8-0.2-0.9-0.6
		C28.1,104.9,29.7,102.6,32.2,102.7z"/>
	<path d="M67.3,48.6c-1.5,0-2.7-1.1-3.6-2.7c-0.2-0.3-0.3-0.6-0.4-1c-0.2-0.5,0.1-0.9,0.6-1.1c0.5-0.2,0.8,0.1,1,0.5
		c0.2,0.4,0.4,0.8,0.6,1.2c1,1.6,2.7,1.8,4.1,0.6c0.4-0.4,0.7-0.8,1.1-1.2c0.3-0.3,0.6-0.6,1.1-0.2c0.5,0.3,0.6,0.7,0.3,1.2
		C71.2,47.4,69.4,48.6,67.3,48.6z"/>
	<path d="M144.6,65c0,1.2,0,2.3,0,3.5c0,0.6-0.1,1-0.5,1.4c-1.3,1.4-2.7,2.2-4.6,2.3c-0.2,0-0.4,0-0.6,0c-0.5-0.1-0.7-0.5-0.7-1
		c0-0.5,0.4-0.8,0.8-0.7c3.1,0.4,6.1-3.6,5.2-7.1c-0.2-0.6-0.7-1.2-1-1.7c-0.2-0.3-0.4-0.7-0.4-1c0-0.7,0.7-0.9,1.2-0.5
		c0.4,0.3,0.7,0.6,0.6,1.2C144.6,62.5,144.6,63.8,144.6,65z"/>
	<path d="M53.5,134.4c-0.6,0-1.2,0-1.7,0c-0.1,0-0.3-0.1-0.4-0.2c-1.3-1.4-3.1-1.4-4.6-0.8c-0.5,0.2-0.9,0.5-1.3,0.8
		c-0.1,0.1-0.2,0.1-0.3,0.1c-0.7,0-1.4,0-2.1,0c0.4-1.3,3-3.3,5.8-3.1C51,131.4,53.4,132.9,53.5,134.4z"/>
	<path d="M-29.1,68.5c0.1-1.8,0.8-3.3,1.9-4.6c0.3-0.4,0.7-0.5,1.2-0.2c0.4,0.3,0.5,0.8,0.2,1.3c-0.4,0.6-0.8,1.1-1.1,1.7
		c-0.9,1.8-0.3,3.3,0.9,4.6c0.2,0.2,0.4,0.5,0.6,0.7c0.3,0.4,0.1,0.8-0.2,1.1c-0.3,0.3-0.7,0.4-1,0.1C-28,72-29,70.5-29.1,68.5z"/>
	<path d="M72,68.8c0-2.1,0.8-3.5,1.9-4.8c0.3-0.4,0.7-0.5,1.2-0.1c0.4,0.4,0.4,0.7,0.1,1.3c-0.5,0.8-1,1.6-1.3,2.5
		c-0.4,1.3,0.1,2.5,1,3.5c0.2,0.3,0.5,0.5,0.8,0.8c0.3,0.4,0.3,0.8-0.1,1.1c-0.3,0.3-0.7,0.4-1.1,0.1C73,72,72,70.5,72,68.8z"/>
	<path d="M144.6,44.4c0.1,1.9,0.3,1.8-1.6,1.7c-1.5-0.1-2.8-0.5-3.8-1.8c-1.1-1.4-0.7-3.5,0.2-4.6c0.2-0.2,0.6-0.3,0.9-0.2
		c0.3,0.1,0.4,0.5,0.6,0.8c0.1,0.1-0.1,0.4-0.2,0.6c-0.8,1.7-0.2,3.1,1.8,3.4C143.1,44.4,143.8,44.4,144.6,44.4z"/>
	<path d="M17.8,75.5c1.4,0.1,2.6,0.6,3.6,1.5c0.5,0.5,0.5,0.9,0.2,1.3c-0.3,0.4-0.8,0.4-1.3,0c-0.5-0.3-1-0.7-1.5-0.9
		c-1.4-0.4-2.7,0.1-3.6,1.3c-0.1,0.2-0.2,0.3-0.3,0.5c-0.3,0.4-0.6,0.6-1.1,0.4c-0.5-0.2-0.6-0.8-0.4-1.2c0.6-1.1,1.4-2,2.5-2.4
		C16.5,75.8,17.1,75.7,17.8,75.5z"/>
	<path d="M122.9,77.9c-0.2,0.3-0.4,0.6-0.6,0.7c-0.2,0.1-0.6,0-0.9-0.1c-0.3-0.1-0.5-0.4-0.8-0.5c-1.7-1-3.5-0.6-4.6,1.1
		c-0.1,0.1-0.2,0.3-0.3,0.4c-0.3,0.4-0.6,0.5-1,0.2c-0.4-0.3-0.7-0.6-0.4-1.1c0.7-1.5,1.9-2.5,3.6-2.8c1.7-0.3,3.2,0.3,4.5,1.4
		C122.6,77.3,122.7,77.6,122.9,77.9z"/>
	<path d="M127.5,42c-1.4-0.1-2.6-0.6-3.6-1.7c-0.4-0.4-0.5-0.8,0-1.2c0.4-0.4,0.8-0.4,1.2-0.1c0.3,0.3,0.6,0.5,1,0.7
		c1.3,0.7,2.6,0.4,3.7-0.6c0.3-0.3,0.5-0.6,0.8-0.9c0.4-0.3,0.8-0.3,1.1,0c0.4,0.3,0.4,0.7,0.1,1.1C130.8,40.9,129.4,41.9,127.5,42z
		"/>
	<path d="M26.5,42c-1.4-0.1-2.6-0.6-3.6-1.6c-0.4-0.4-0.4-0.8-0.1-1.2c0.4-0.4,0.8-0.4,1.2,0c0.3,0.3,0.7,0.6,1.1,0.8
		c1.4,0.7,2.8,0.3,3.9-0.9c0.2-0.2,0.4-0.6,0.7-0.7c0.3-0.1,0.8,0,1,0.2c0.2,0.1,0.2,0.7,0.1,0.9C29.9,40.9,28.5,41.9,26.5,42z"/>
	<path d="M56.2,6.2c1.3,0.1,2.5,1,2.9,2.2c0.4,1-0.1,2.7-1.1,3.3c-0.2,0.1-0.7,0.2-0.9,0c-0.2-0.2-0.3-0.6-0.4-1
		c0-0.2,0.2-0.4,0.3-0.6c0.3-0.5,0.5-1,0.2-1.5C57,8.2,56.4,8,55.8,8.1c-0.3,0-0.5,0.2-0.8,0.3c-0.6,0.3-1,0.1-1.3-0.4
		c-0.3-0.5,0.1-0.8,0.5-1C54.9,6.7,55.5,6.5,56.2,6.2z"/>
	<path d="M50.8,93.2c0,1.8-0.9,2.9-2.4,3.3c-1.2,0.3-3-0.6-3.4-1.8c-0.1-0.2,0.1-0.7,0.3-0.8c0.2-0.1,0.7-0.1,1,0
		c0.2,0.1,0.4,0.4,0.6,0.6c0.4,0.3,0.8,0.6,1.2,0.4c0.5-0.2,0.9-0.6,0.9-1.2c0-0.3,0-0.7-0.1-1c-0.1-0.6,0.2-1.1,0.7-1.2
		c0.6-0.1,0.8,0.3,0.9,0.8C50.7,92.6,50.7,93,50.8,93.2z"/>
	<path d="M48-4.5c-1.5,0-2.4-0.7-3-1.8c-0.1-0.2,0-0.6,0.2-0.8c0.3-0.3,0.7-0.4,1.1-0.1c0.2,0.1,0.4,0.3,0.5,0.5
		c0.4,0.3,0.8,0.6,1.3,0.4C48.7-6.5,49-7,49-7.6c0-0.3-0.1-0.6-0.1-0.9c-0.1-0.6,0.2-1.1,0.7-1.2c0.6-0.1,0.8,0.4,0.9,0.8
		c0.5,1.9,0,3.3-1.5,4.1C48.6-4.6,48.2-4.6,48-4.5z"/>
	<path d="M61.7,41.7c-1.9,0-3.3-1.4-3.3-3.1c0-1.1,1-2.4,2-2.7c0.2-0.1,0.7,0.1,0.8,0.3c0.1,0.3,0.1,0.7,0,1c0,0.2-0.3,0.3-0.5,0.4
		c-0.5,0.4-0.9,0.8-0.7,1.4c0.2,0.7,0.8,1,1.6,1c0.2,0,0.5-0.1,0.7-0.1c0.5,0,0.8,0.3,0.9,0.8c0.1,0.5-0.2,0.7-0.6,0.9
		C62.4,41.7,62,41.7,61.7,41.7z"/>
	<path d="M62.8,79.2c1.8,0.1,2.9,1,3.3,2.5c0.4,1.7-0.9,3.1-2.5,3.5c-0.2,0-0.6-0.1-0.7-0.3c-0.1-0.2-0.2-0.6-0.1-0.9
		c0.1-0.2,0.4-0.4,0.7-0.6c0.7-0.4,1-0.8,0.9-1.4c-0.1-0.6-0.7-1.2-1.4-1.2c-0.1,0-0.3,0-0.4,0c-0.6,0-1.1-0.5-1-1
		c0.1-0.6,0.5-0.7,1-0.7C62.7,79.2,62.7,79.2,62.8,79.2z"/>
	<path d="M56.2,107.4c1.3,0.1,2.4,0.9,2.9,2.1c0.4,1-0.1,2.6-1,3.3c-0.3,0.3-0.7,0.3-1,0.1c-0.3-0.3-0.5-0.7-0.2-1.1
		c0.1-0.2,0.2-0.3,0.4-0.5c0.3-0.5,0.4-1,0-1.5c-0.3-0.5-1-0.7-1.6-0.5c-0.2,0.1-0.4,0.2-0.6,0.3c-0.6,0.2-1.1,0-1.3-0.5
		c-0.2-0.6,0.2-0.8,0.6-1C54.9,107.8,55.6,107.6,56.2,107.4z"/>
	<path d="M87.9,108.8c0.9,0,1.9,0.4,2.8,1.1c0.3,0.2,0.5,0.6,0.3,1c-0.3,0.4-0.6,0.7-1.2,0.5c-0.3-0.1-0.6-0.3-0.8-0.4
		c-1-0.5-1.8-0.4-2.6,0.4c-0.6,0.6-0.9,0.7-1.3,0.3c-0.5-0.4-0.5-0.9,0-1.5C85.8,109.3,86.7,108.8,87.9,108.8z"/>
	<path d="M-21.6,14.6c0.2,0,0.3,0,0.5,0c0.5,0,0.8,0.2,0.9,0.7c0.1,0.5-0.2,0.8-0.7,1c-0.2,0.1-0.5,0.1-0.7,0.1
		c-1.5,0-2,0.5-2.4,1.9c-0.1,0.5-0.4,0.8-0.9,0.7c-0.5,0-0.8-0.5-0.9-1c0-1.2,0.9-2.5,2.1-3c0.7-0.2,1.4-0.3,2-0.5
		C-21.6,14.5-21.6,14.6-21.6,14.6z"/>
	<path d="M67.2,56.9c0.1-1,0.4-1.9,0.9-2.8c0.3-0.4,0.6-0.6,1.1-0.4c0.5,0.3,0.6,0.7,0.4,1.2c-0.1,0.3-0.3,0.6-0.4,0.9
		c-0.5,1.1-0.3,1.7,0.6,2.5c0.7,0.5,0.7,1.1,0.1,1.5c-0.4,0.3-0.8,0.2-1.2-0.1C67.8,59,67.3,58.1,67.2,56.9z"/>
	<path d="M87.8,7.7c1.1,0,2,0.4,2.9,1c0.3,0.2,0.6,0.5,0.4,0.9c-0.2,0.4-0.6,0.7-1.1,0.5c-0.4-0.1-0.7-0.3-1-0.5
		c-1.2-0.5-1.7-0.4-2.6,0.6c-0.5,0.6-1,0.6-1.4,0c-0.1-0.3-0.1-0.7,0-1C85.6,8.2,86.6,7.7,87.8,7.7z"/>
	<path d="M94.6,46.1c-0.5-0.1-1.3-0.4-2.1-0.6c-0.4-0.1-0.7-0.5-0.5-0.9c0.2-0.5,0.5-0.7,1-0.6c0.3,0.1,0.6,0.2,0.9,0.3
		c1.1,0.4,1.9,0.2,2.5-0.8c0.4-0.6,0.8-0.7,1.2-0.5c0.5,0.3,0.6,0.7,0.3,1.4C97.4,45.5,96.4,46,94.6,46.1z"/>
	<path d="M-13.1,108.8c0.9,0,1.9,0.4,2.8,1c0.4,0.3,0.5,0.7,0.3,1.1c-0.3,0.4-0.7,0.6-1.2,0.3c-0.4-0.2-0.8-0.5-1.3-0.6
		c-0.8-0.3-1.5,0-2.1,0.7c-0.5,0.6-0.9,0.7-1.3,0.3c-0.4-0.3-0.5-0.9-0.1-1.5C-15.3,109.3-14.4,108.8-13.1,108.8z"/>
	<path d="M75.3,119c0-1.4,0.9-2.6,2.3-3c0.7-0.2,1.5-0.2,2.2-0.3c0.5,0,0.9,0.2,0.9,0.8c0,0.5-0.4,0.9-0.9,0.9c-0.3,0-0.5,0-0.8,0
		c-1.2,0.1-1.8,0.6-2,1.7c-0.1,0.5-0.2,0.9-0.9,0.9C75.6,120,75.3,119.6,75.3,119z"/>
	<path d="M-21.5,115.7c0.1,0,0.1,0,0.2,0c0.7,0,1.1,0.3,1.1,0.8c0,0.5-0.4,0.9-1.1,1c-0.5,0-1.1,0.1-1.6,0.2c-0.7,0.2-1,0.8-1.1,1.5
		c-0.1,0.7-0.4,1-0.9,0.9c-0.5-0.1-0.9-0.5-0.8-1.1c0.1-1.4,1.1-2.6,2.4-3C-22.7,115.8-22.1,115.7-21.5,115.7
		C-21.5,115.7-21.5,115.7-21.5,115.7z"/>
	<path d="M-6.1,46.2c-0.8-0.2-1.6-0.5-2.4-0.8C-8.9,45.3-9.1,45-9,44.5c0.1-0.5,0.5-0.7,0.9-0.7c0.3,0,0.7,0.2,1,0.3
		c1.1,0.4,1.9,0.2,2.6-0.8c0.4-0.6,0.8-0.8,1.3-0.5c0.5,0.3,0.5,0.9,0.2,1.4C-3.7,45.5-4.7,46.1-6.1,46.2z"/>
	<path d="M106.7,55.9c1.1,0,2,0.4,2.9,1c0.4,0.2,0.6,0.6,0.4,1c-0.2,0.4-0.6,0.6-1,0.5c-0.4-0.1-0.7-0.3-1.1-0.5
		c-1.2-0.5-1.7-0.4-2.5,0.6c-0.6,0.6-1.1,0.6-1.5-0.1c-0.1-0.2-0.1-0.6,0-0.8C104.5,56.5,105.4,55.9,106.7,55.9z"/>
	<path d="M75.3,17.9c0-1.6,1.2-2.9,3-3.2c0.5-0.1,1.1-0.1,1.7-0.1c0.4,0,0.7,0.2,0.8,0.6c0.1,0.4-0.1,0.8-0.5,1
		c-0.3,0.1-0.7,0.1-1,0.1c-1.4,0.1-2,0.6-2.2,1.8c-0.1,0.5-0.3,0.9-0.9,0.9C75.6,18.9,75.3,18.5,75.3,17.9z"/>
	<path d="M5.6,55.9c1.1,0,2.1,0.4,3,1c0.3,0.2,0.6,0.5,0.4,1c-0.2,0.4-0.6,0.7-1.1,0.5c-0.4-0.1-0.7-0.3-1.1-0.5
		c-1.2-0.5-1.7-0.3-2.5,0.6c-0.5,0.6-1,0.6-1.4,0c-0.2-0.3-0.1-0.8,0-1.1C3.4,56.4,4.5,55.9,5.6,55.9z"/>
	<path d="M-12.8,7.7c0.6,0,1.6,0.4,2.4,0.9C-10,8.9-9.8,9.2-10,9.7c-0.2,0.5-0.6,0.6-1.1,0.4c-0.4-0.1-0.7-0.3-1.1-0.5
		c-1.1-0.4-1.6-0.3-2.4,0.6c-0.6,0.7-1.2,0.7-1.5,0c-0.1-0.3,0-0.8,0.2-1.1C-15.3,8.1-14.3,7.7-12.8,7.7z"/>
	<path d="M144.6,50.1c0,0.5,0,1.1,0,1.6c0,0.1-0.2,0.3-0.3,0.4c-1.1,0.7-2,1.7-2.5,3c-0.1,0.1-0.1,0.3-0.2,0.4
		c-0.3,0.4-0.6,0.5-1,0.3c-0.4-0.2-0.6-0.5-0.5-0.9c0.3-0.7,0.6-1.4,1-2.1c0.7-1.2,1.7-2,3-2.6c0.1-0.1,0.2-0.1,0.3-0.1
		C144.4,50,144.5,50.1,144.6,50.1z"/>
	<path d="M-19.1,134.4c0.3-1.4,0.9-2.4,1.7-3.4c0.5-0.5,1-1,1.6-1.4c0.5-0.4,1-0.3,1.3,0.1c0.3,0.5,0.2,0.9-0.3,1.3
		c-1.1,0.8-1.8,1.8-2.3,3c-0.1,0.2-0.3,0.3-0.4,0.3C-18.1,134.4-18.5,134.4-19.1,134.4z"/>
	<path d="M81.9,134.4c0.3-1.5,1-2.6,1.9-3.6c0.4-0.4,0.9-0.8,1.4-1.2c0.5-0.4,1-0.3,1.3,0.2c0.3,0.4,0.2,0.8-0.3,1.2
		c-1,0.7-1.8,1.7-2.3,2.8c-0.2,0.5-0.4,0.6-0.9,0.6C82.7,134.3,82.3,134.4,81.9,134.4z"/>
	<path d="M65.7,134.1c0.4-0.3,0.7-0.7,1.1-0.9c0.7-0.3,1.5-0.5,2.2-0.6c1-0.1,1.8,0.8,1.8,1.7c-1.7,0-3.3,0-5,0
		C65.8,134.3,65.7,134.2,65.7,134.1z"/>
	<path d="M13.1,134.4c-0.4,0-0.9,0-1.4,0c-0.2,0-0.5-0.2-0.5-0.3c-0.2-0.8-0.4-1.6-0.6-2.4c-0.1-0.5,0.3-0.8,0.7-0.8
		c0.3,0,0.6,0.3,1,0.5c0,0,0,0.1,0,0.1C12.6,132.4,12.9,133.3,13.1,134.4z"/>
	<path d="M114.2,134.4c-0.5,0-1,0-1.5,0c-0.1,0-0.4-0.2-0.4-0.3c-0.2-0.8-0.4-1.5-0.6-2.3c-0.1-0.6,0.2-1,0.7-1
		c0.5,0,0.8,0.3,0.9,0.9C113.6,132.5,113.9,133.4,114.2,134.4z"/>
	<path d="M144.6,9.6c-0.7,0.3-1.3,0.6-2,0.8c-0.5,0.2-1.1,0-1.3-0.4c-0.2-0.5,0.1-0.8,0.4-1c0.8-0.6,1.7-0.9,2.8-1
		C144.6,8.6,144.6,9.1,144.6,9.6z"/>
	<path d="M144.6,109.1c0,0.5,0,0.9,0,1.4c0,0.1-0.2,0.3-0.4,0.4c-0.5,0.2-1.1,0.4-1.6,0.6c-0.5,0.2-1,0.1-1.3-0.4
		c-0.3-0.5,0-0.8,0.4-1C142.6,109.5,143.5,109.1,144.6,109.1z"/>
	<path d="M-26.5,134.4c0.4-1,0.7-1.8,1.1-2.6c0.1-0.2,0.6-0.4,0.8-0.3c0.3,0.2,0.7,0.6,0.6,0.9c-0.1,0.6-0.4,1.3-0.6,1.9
		c0,0.1-0.2,0.1-0.2,0.1C-25.3,134.4-25.8,134.4-26.5,134.4z"/>
	<path d="M74.6,134.4c0.4-0.9,0.7-1.8,1.1-2.5c0.2-0.4,0.5-0.6,0.9-0.4c0.4,0.2,0.7,0.6,0.6,1.1c-0.2,0.5-0.4,1-0.6,1.5
		c-0.1,0.1-0.2,0.2-0.3,0.3C75.7,134.4,75.2,134.4,74.6,134.4z"/>
	<path d="M144.6,32.7c0,1,0,2,0,3c0,0.4-0.6,0.7-1,0.6c-0.4-0.1-0.8-0.4-0.7-0.9c0.3-1.1,0.8-2,1.5-2.9
		C144.5,32.7,144.5,32.7,144.6,32.7z"/>
	<path d="M109.2,134.3c-0.6,0-1.2,0-1.8,0c0.2-0.7,0.3-1.4,0.6-1.9c0.1-0.3,0.6-0.4,1-0.4c0.4,0,0.6,0.4,0.6,0.9
		C109.5,133.4,109.4,133.8,109.2,134.3z"/>
	<path d="M6.4,134.3c0.2-0.6,0.3-1.3,0.6-1.8c0.1-0.3,0.7-0.5,1-0.5c0.4,0,0.5,0.4,0.5,0.9C8.5,134.3,8,134.6,6.4,134.3z"/>
	<path d="M144.6,115c0,1.4,0,2.7,0,4.2c-0.7-0.2-1.1-0.6-1.2-1.2c-0.2-1.2,0.4-2.1,1-3C144.5,114.9,144.5,114.9,144.6,115z"/>
	<path d="M144.6,13.8c0,1.5,0,2.8,0,4.2c-0.6-0.1-0.9-0.5-1.1-1C143.1,16.3,143.6,14.6,144.6,13.8z"/>
</g>
</svg>
