<?xml version="1.0" encoding="utf-8"?>
<!-- Generator: Adobe Illustrator 20.1.0, SVG Export Plug-In . SVG Version: 6.00 Build 0)  -->
<svg version="1.1" id="Outline_Icons" xmlns="http://www.w3.org/2000/svg" xmlns:xlink="http://www.w3.org/1999/xlink" x="0px"
	 y="0px" width="150px" height="150px" viewBox="0 0 150 150" style="enable-background:new 0 0 150 150;" xml:space="preserve">
<path d="M92.2,69.4c-0.2-0.3-0.5-0.6-0.9-0.6H76.3l3.8-17.1c0.1-0.5-0.1-1-0.6-1.2c-0.4-0.2-1-0.1-1.2,0.3L57.8,79.5
	c-0.2,0.3-0.3,0.7-0.1,1.1c0.2,0.3,0.5,0.6,0.9,0.6h15.1l-3.8,17.1c-0.1,0.5,0.1,1,0.6,1.2c0.1,0.1,0.3,0.1,0.4,0.1
	c0.3,0,0.6-0.2,0.8-0.4l20.4-28.6C92.4,70.2,92.4,69.8,92.2,69.4z M73,93.8l3-13.5c0.1-0.3,0-0.6-0.2-0.9c-0.2-0.2-0.5-0.4-0.8-0.4
	H60.7L77,56.2l-3,13.5c-0.1,0.3,0,0.6,0.2,0.9c0.2,0.2,0.5,0.4,0.8,0.4h14.3L73,93.8z"/>
</svg>
