<?xml version="1.0" encoding="utf-8"?>
<!-- Generator: Adobe Illustrator 20.1.0, SVG Export Plug-In . SVG Version: 6.00 Build 0)  -->
<svg version="1.1" id="Outline_Icons" xmlns="http://www.w3.org/2000/svg" xmlns:xlink="http://www.w3.org/1999/xlink" x="0px"
	 y="0px" width="100px" height="100px" viewBox="0 0 100 100" style="enable-background:new 0 0 100 100;" xml:space="preserve">
<style type="text/css">
	.st0{opacity:0.6;fill:#FFFFFF;}
</style>
<path class="st0" d="M67.2,44.4c-0.2-0.3-0.5-0.6-0.9-0.6h-15l3.8-17.1c0.1-0.5-0.1-1-0.6-1.2c-0.4-0.2-1-0.1-1.2,0.3L32.8,54.5
	c-0.2,0.3-0.3,0.7-0.1,1.1c0.2,0.3,0.5,0.6,0.9,0.6h15.1l-3.8,17.1c-0.1,0.5,0.1,1,0.6,1.2c0.1,0.1,0.3,0.1,0.4,0.1
	c0.3,0,0.6-0.2,0.8-0.4l20.4-28.6C67.4,45.2,67.4,44.8,67.2,44.4z M48,68.8l3-13.5c0.1-0.3,0-0.6-0.2-0.9C50.6,54.2,50.3,54,50,54
	H35.7L52,31.2l-3,13.5c-0.1,0.3,0,0.6,0.2,0.9c0.2,0.2,0.5,0.4,0.8,0.4h14.3L48,68.8z"/>
</svg>
