<?xml version="1.0" encoding="utf-8"?>
<!-- Generator: Adobe Illustrator 20.1.0, SVG Export Plug-In . SVG Version: 6.00 Build 0)  -->
<svg version="1.1" id="Outline_Icons" xmlns="http://www.w3.org/2000/svg" xmlns:xlink="http://www.w3.org/1999/xlink" x="0px"
	 y="0px" width="200px" height="200px" viewBox="0 0 200 200" style="enable-background:new 0 0 200 200;" xml:space="preserve">
<style type="text/css">
	.st0{font-family:'MyriadPro-Regular';}
	.st1{font-size:12px;}
</style>
<path d="M128.8,90.7c-0.3-0.6-0.9-0.9-1.5-0.9h-25.2l6.4-28.6c0.2-0.8-0.2-1.6-1-1.9c-0.7-0.3-1.6-0.1-2.1,0.6l-34.1,47.8
	c-0.4,0.5-0.4,1.2-0.1,1.8c0.3,0.6,0.9,0.9,1.5,0.9h25.2l-6.4,28.6c-0.2,0.8,0.2,1.6,1,1.9c0.2,0.1,0.5,0.1,0.7,0.1
	c0.5,0,1.1-0.3,1.4-0.7l34.1-47.8C129.1,91.9,129.1,91.3,128.8,90.7z M96.7,131.4l5-22.5c0.1-0.5,0-1-0.3-1.4
	c-0.3-0.4-0.8-0.6-1.3-0.6H76l27.3-38.3l-5,22.5c-0.1,0.5,0,1,0.3,1.4c0.3,0.4,0.8,0.6,1.3,0.6h24L96.7,131.4z"/>
<text transform="matrix(1 0 0 1 61.5 39)" class="st0 st1">CUBEFACE ONE</text>
</svg>
