<svg id="Outline_Icons" xmlns="http://www.w3.org/2000/svg" xmlns:xlink="http://www.w3.org/1999/xlink" width="512" height="512" viewBox="0 0 512 512"><style>.st0{clip-path:url(#SVGID_2_)}</style><defs><path id="SVGID_1_" d="M163.5 163.5h185v185h-185z"/></defs><clipPath id="SVGID_2_"><use xlink:href="#SVGID_1_" overflow="visible"/></clipPath><path d="M298.4 333.1h-84.8c-2.1 0-3.9-1.7-3.9-3.9V245l-16.8 14c-1.5 1.3-3.8 1.2-5.2-.2l-23.1-23.1c-1.5-1.5-1.5-3.9 0-5.5l31.1-31.1c7.9-7.9 18.8-12.4 30-12.4h60.6c11.3 0 22 4.4 30 12.4l31.1 31.1c.7.7 1.1 1.7 1.1 2.7s-.4 2-1.1 2.7l-23.1 23.1c-1.4 1.4-3.7 1.5-5.2.2l-16.8-14v84.3c-.1 2.2-1.8 3.9-3.9 3.9zm-80.9-7.7h77.1v-88.6c0-1.5.9-2.9 2.2-3.5 1.4-.6 2.9-.4 4.1.5l20.4 17 17.9-17.9-28.4-28.4c-6.6-6.6-15.3-10.2-24.5-10.2h-3.6c-1.9 13.1-13.1 23.1-26.7 23.1s-24.8-10.1-26.7-23.1h-3.6c-9.1 0-18.1 3.7-24.5 10.2l-28.4 28.4 17.9 17.9 20.4-17c1.2-1 2.8-1.2 4.1-.5 1.4.6 2.2 2 2.2 3.5v88.6zm19.6-131.1c1.8 8.8 9.6 15.4 18.9 15.4 9.3 0 17.1-6.6 18.9-15.4h-37.8z" class="st0"/></svg>