<svg id="Outline_Icons" xmlns="http://www.w3.org/2000/svg" width="512" height="512" viewBox="0 0 512 512"><style>.st0{opacity:.8}</style><path class="st0" d="M311.5 222.6c-.7-.8-1.8-1.1-2.8-.6-1.7.7-3.1 1.1-4.5 1.1 1.5-1.8 2.2-3.8 3-6.4l.4-1.3c.3-.9 0-2-.8-2.6-.8-.6-1.9-.7-2.7-.2-3.7 2.2-7.6 3.8-11.8 4.7-4.5-4.2-10.5-6.6-16.6-6.6-13.3 0-24.1 10.8-24.1 24.1 0 .8 0 1.6.1 2.3-15.6-1.6-30.1-9.4-40.1-21.6-.5-.6-1.3-.9-2-.9-.8.1-1.5.5-1.9 1.2-2.1 3.7-3.3 7.9-3.3 12.1 0 5 1.5 9.8 4.3 13.7-.3-.1-.6-.3-.9-.5-.7-.4-1.6-.3-2.4.2-.7.4-1.2 1.4-1.2 2.2 0 7.8 3.8 14.9 9.7 19.3-.6.1-1.1.3-1.5.8-.6.6-.7 1.5-.5 2.3 2.5 7.8 8.6 13.6 16.2 15.8-7.6 4.4-16.5 6.2-25.5 5.2-1.1-.1-2.2.5-2.5 1.6-.4 1.1 0 2.2 1 2.8 10.4 6.6 22.3 10.1 34.6 10.1 40.2 0 64.2-32.6 64.2-64.2v-1.6c.5-.4 1.1-.8 1.7-1.1 3.7-2.5 7.6-5.2 10.1-9 .5-.9.5-2.1-.2-2.9zm-12.7 7.9c-1 .6-1.9 1.3-2.8 1.9-.7.5-1 1.2-1 2 0 .9.1 1.8.1 2.7 0 29.2-22.2 59.4-59.4 59.4-8.2 0-16.2-1.7-23.6-4.9 8.7-.8 16.9-4.1 23.9-9.6.8-.6 1.1-1.7.8-2.6-.3-1-1.2-1.6-2.2-1.6-7-.1-13.2-4-16.5-9.9 2.2 0 4.5-.3 6.6-.8 1.1-.3 1.8-1.3 1.8-2.4 0-1.1-.8-2-1.9-2.3-7.8-1.6-13.7-7.7-15.2-15.4 2.3.8 4.6 1.2 7 1.3 1.2.1 2-.6 2.4-1.7s-.1-2.1-.9-2.7c-5.4-3.6-8.6-9.6-8.6-16.1 0-2.3.4-4.5 1.2-6.6 11.4 12.4 27.2 19.9 44.1 20.7.8 0 1.5-.3 2-.9.5-.6.7-1.3.5-2.1-.3-1.4-.5-2.9-.5-4.4 0-10.7 8.7-19.3 19.3-19.3 5.3 0 10.5 2.2 14.1 6.1.6.6 1.4.9 2.2.7 3.1-.6 6.1-1.5 9-2.7-.6 1-1.5 1.7-3.2 2.7-.8.4-1.2 1.3-1.2 2.2 0 .9.5 1.7 1.3 2 1.6.8 3.1 1.3 4.7 1.4-1.4 1.1-2.7 2-4 2.9z"/></svg>