<svg id="Outline_Icons" xmlns="http://www.w3.org/2000/svg" width="100" height="100" viewBox="0 0 100 100"><path d="M55.4-17.1c2.6 1.3 3.5 3.7 3.8 6.4.1.4-.1.8-.6.9-.5.1-.9-.2-1-.7-.2-.8-.4-1.7-.7-2.5-.5-1.5-1.6-2.5-3.1-2.8-2.4-.5-4.7-.3-6.8 1-.5.3-.9.8-1.3 1.2-.4.4-.8.5-1.3.2-.4-.3-.4-.8-.1-1.3.9-1.3 2.2-2 3.6-2.5 2.5.1 5 .1 7.5.1zM119.5-17.1c-.5 1.1-.8 2.2-1.4 3.2-1.3 2.1-3.6 2.7-6 2.1-2.6-.6-4.4-2.3-5.5-4.7l-.3-.6h1.9c.9 1.5 2 2.7 3.7 3.4 1.8.7 3.8.5 4.7-.9.5-.8.8-1.6 1.2-2.4.5-.1 1.1-.1 1.7-.1zM18.6-17.1c-.4.9-.8 1.9-1.2 2.8-1.3 2.4-3.5 3.1-6.2 2.5-2.9-.7-4.8-2.5-5.9-5.3h1.9c1.1 2.1 2.7 3.4 5.1 3.7 1.5.2 2.7-.3 3.4-1.7.3-.7.6-1.4 1-2h1.9zM-32.2 31.5c1.3 0 1.9.6 2.2 2 .2.8.4 1.7 1.1 2.3.6.6 1.1.5 1.5-.2.5-.9.8-1.9 1.2-2.9.2-.6.5-1.2.7-1.7.2-.5.5-.7 1-.5.5.2.7.6.5 1.1-.3.8-.5 1.6-.9 2.3-.4 1-.9 2-1.4 2.9-.9 1.5-2.2 1.7-3.6.5-.9-.8-1.6-1.7-1.7-3 0-.4-.1-.9-.7-1 .1-.6.1-1.2.1-1.8zM-32.2 116.9c.4.3.9.6 1.2 1 2.6 2.9 2.5 8-.1 10.6-.3.3-.7.5-1.1.7v-2.4c.2-.2.5-.4.7-.6.9-1.7 1-3.5.3-5.3-.2-.6-.7-1-1-1.6v-2.4zM-32.2 15.7c.9.5 1.6 1.3 2 2.2 1.5 2.9 1.6 5.7-.2 8.5-.4.7-1 1.4-1.9 1.7v-2.4c.2-.2.5-.4.7-.7 1-2.1.9-4.1-.1-6.2-.1-.2-.4-.4-.6-.6.1-.8.1-1.6.1-2.5zM-32.2-11.6c1.3.2 2.5.5 3.3 1.7.8 1.4 1.1 2.9.7 4.5-.3 1.3-.9 2.4-1.9 3.3-.2.2-.5.4-.7.4-.3 0-.7-.2-.9-.4-.1-.2 0-.6.1-.9.1-.2.4-.4.6-.6 1.2-1.2 1.5-3.4.8-4.9-.4-.8-1.1-1.2-2-1.2v-1.9zM-32.2 89.5c.8.3 1.6.5 2.4.8.4.2.7.6.9.9 1.5 2.4.9 5.9-1.2 7.7-.6.5-1.1.6-1.5.1-.3-.3-.3-.7 0-1 .1-.1.1-.2.2-.2 1.5-1.1 1.8-2.7 1.5-4.4-.2-1.3-.9-2-2.3-2.2v-1.7zM77-17.1c.9.6 1.8.9 2.9.9.8 0 1.1.3 1.1.9 0 .6-.5.9-1.2.9-1.9-.1-3.7-.7-5-2.3-.1-.1-.1-.2-.2-.4H77zM-24-17.1c.8.7 1.8.9 2.8.9.8 0 1.1.3 1.1.9 0 .6-.4.9-1.2.9-2.1-.1-4-.8-5.2-2.6.9-.1 1.7-.1 2.5-.1zM-32.2 109.4c.6-.1 1.3-.2 1.9-.2 1.5 0 2.7 1.7 2.1 3.2-.1.3-.5.5-.8.5-.4.1-.7-.3-.8-.7v-.5c0-.7-.2-.8-.8-.8-.5 0-1 .1-1.6.1v-1.6zM-32.2 8.2c.5 0 1-.1 1.4-.1 2.2-.3 2.9 1.5 2.7 3-.1.5-.4.7-.9.6-.5 0-.8-.3-.8-.8-.2-1.3-.2-1.3-1.6-1-.3.1-.6 0-.9.1.1-.6.1-1.2.1-1.8zM-32.2 46.6c.6-.5 1.3-1 1.8-1.6.6-.6.8-.7 1.2-.3.5.4.5.8.1 1.4-.8 1.1-1.8 2-3.2 2.4.1-.7.1-1.3.1-1.9zM92.9-17.1c-.4 1.2-1.2 2-2.4 2.5-.4.2-.7.1-1-.2-.3-.4-.3-.7 0-1.1.2-.2.4-.3.6-.4.3-.3.6-.5.8-.8h2zM-8.2-17.1c-.1 1.1-1.6 2.4-2.6 2.6-.2 0-.7-.2-.7-.4-.1-.3 0-.8.2-1.1.1-.2.5-.3.7-.5.2-.2.4-.4.5-.6h1.9zM-32.2 132.6c1.1-.1 1.8.5 2.1 1.8h-2.1v-1.8zM-32.2 57.1c.4.5.9 1 1.3 1.5.1.2.2.6.1.7-.2.3-.5.4-.8.6-.2.1-.4 0-.6-.1v-2.7zM65.6-17.1c-.5.4-.9.8-1.4 1.1-.3.2-.8.2-1.1 0-.4-.2-.4-.7-.2-1.1h2.7zM128.8-17.1c-.1.3-.2.7-.3 1-.2.5-.5.7-1 .6-.5-.1-.6-.5-.6-.9v-.7h1.9zM27.7-17.1c0 .3-.1.6-.1.9-.1.6-.6.9-1.1.8-.6-.1-.7-.5-.6-1 0-.2.1-.4.1-.6.5-.1 1.1-.1 1.7-.1zM-32.2 71.2c.1.2.3.3.4.5.4 1.2.3 2.3 0 3.5 0 .1-.2.2-.3.3-.1-1.5-.1-2.9-.1-4.3zM-32.2 53.6c1 .3 1.2.8.7 1.7-.2.4-.5.9-.7 1.3v-3zM24.7 71.8c.5.3 1.1.5 1.6.8.6.3.8.8.5 1.3-.1.2-.6.5-.8.4-1-.3-2-.6-2.7-1.4-.8-.8-.9-1.8.1-2.5.9-.6 1.9-1.1 2.9-1.5.9-.4 1.9-.5 2.7-.9.5-.2.8-.7 1.1-1.1.1-.2-.1-.7-.2-.8-.5-.3-1.1-.6-1.7-.7-1.1-.3-2.3-.4-3.4-.8-1.3-.4-2.4-1-2.9-2.3-.3-.9-.1-1.6.6-2.2 1-.8 2.3-1.1 3.6-1.5.7-.2 1.5-.4 2.1-.8.3-.2.7-.7.7-1 0-.3-.4-.7-.8-.9-.9-.3-1.8-.5-2.7-.6-.7-.1-1-.3-1-.8 0-.4.2-.8.6-.8 1.4-.2 4.1.3 5.1 1.8.8 1.1.5 2.6-.7 3.5-1.1.9-2.4 1.1-3.7 1.5-.6.2-1.3.4-1.9.7-.6.3-.6.6-.1.9.7.4 1.4.8 2.1 1 1.4.4 2.9.7 4.2 1.2 1.9.7 2.3 2.2 1.2 4-.3 1-1.2 1.4-2.2 1.7-1.2.4-2.3.7-3.4 1.1-.3.1-.6.3-.8.5-.1 0-.1.1-.1.2zM126.7 53.6c1.2.1 2.3.2 3.3.8.9.5 1.7 1.3 1.7 2.4 0 1.2-.7 2-1.7 2.5s-2.1.8-3.2 1.1c-.6.2-1.3.5-1.9.8-.4.2-.4.5-.1.8.6.6 1.4.9 2.2 1.1 1.4.3 2.7.7 4.1 1.1.3.1.6.3.9.5 1.2.9 1.3 2.2.3 3.7-.6.8-1.4 1.2-2.3 1.4-1.2.4-2.3.8-3.5 1.1-.1 0-.1 0-.2.1-.2.2-.4.3-.6.5.2.2.4.4.6.5.3.2.7.3 1 .4.5.3.7.7.5 1.2-.2.5-.6.7-1.1.4-.8-.4-1.6-.7-2.3-1.2-1-.8-1-1.9.1-2.7.9-.6 1.9-1 2.8-1.4.9-.4 1.8-.6 2.8-.8.7-.2 1-.7 1.2-1.3.1-.6-.4-.8-.8-1-1-.3-2-.6-3-.8-1.1-.2-2.2-.4-3.2-1.1-.9-.6-1.7-1.4-1.5-2.6.1-1.1 1.1-1.6 2-2 1.2-.4 2.4-.7 3.5-1.1.4-.1.7-.3 1.1-.5.8-.6.8-1.4-.1-1.8-.8-.3-1.6-.5-2.4-.7h-.2c-.8 0-1.2-.3-1.2-.8 0-.2.5-.6 1.2-.6zM78.6 72c.2-.9.3-1.9.5-2.7.5-1.6 4.1-3.3 5.9-1.6.8.8 1.1 1.7 1.2 2.8.1.8.1 1.6.3 2.4.1.6.5.8.9.3.3-.5.6-1 .7-1.6.3-1.2.3-2.4.7-3.5.4-1.3 1.5-1.9 2.9-1.9 1.3.1 2.6.9 2.9 2.2.2.9.3 1.9.3 2.8 0 .9.1 1.7.7 2.5.3.3.2.8-.1 1.1-.4.3-.9.4-1.2 0-.4-.4-.7-1-.9-1.5-.2-.7-.2-1.4-.2-2.1-.1-.6-.1-1.3-.2-1.9-.1-.8-.6-1.2-1.5-1.3-.6-.1-1 .2-1.3 1-.2.5-.2 1-.3 1.5-.2 1-.3 2.1-.8 3.1-.4 1.1-1.4 1.6-2.6 1.7-.7 0-1.3-.3-1.5-1-.2-.5-.3-1.1-.4-1.7-.1-.9-.2-1.8-.3-2.6-.2-1-.8-1.3-1.8-1.2-1.2.2-1.9.9-2 2.1-.1.8 0 1.6 0 2.4 0 .7-.3 1.1-.9 1.1-.5 0-.8-.4-.9-1v-.2-.8-.4c0 .1 0 0-.1 0zM-20.5 72.4v1.3c0 .5-.3.8-.7.8-.3 0-.8-.3-.8-.5-.2-1.7-.4-3.3.4-4.9 1.1-2 4.4-2.6 5.9-1.1.9.9 1.1 2.1 1.2 3.2.1.6.1 1.2.2 1.7 0 .2.2.5.3.5.2 0 .5-.1.6-.2.2-.3.5-.7.6-1.1.3-1.2.4-2.4.7-3.6.3-1.3 1.3-2.1 2.5-2.2 1.3-.1 2.7.5 3.2 1.7.3.7.4 1.4.5 2.2.1.5-.1 1.1 0 1.6.1.7.4 1.3.7 1.9.3.5.3.8-.1 1.2-.4.3-.8.3-1.2 0-.6-.6-.9-1.3-1-2.2-.1-.7 0-1.4-.1-2.1 0-.5-.1-1-.2-1.5-.2-.8-.8-1.1-1.6-1-.6 0-1 .4-1.1 1.2-.2 1-.3 1.9-.4 2.9-.2 1.4-.8 2.4-2.1 3-1.3.6-2.4.1-2.7-1.3-.2-.7-.2-1.5-.3-2.3 0-.3 0-.6-.1-.9-.1-1-.6-1.7-1.3-1.8-.9-.1-2.2.4-2.5 1.2-.3.7-.3 1.6-.5 2.4-.2-.1-.2-.1-.1-.1zM47.2 127.4c-.4-.1-.9-.1-1.3-.2-1.8-.4-2.3-2-1.1-3.3.7-.8 1.7-1.3 2.6-2 .4-.3.8-.6 1.1-.9.5-.5.4-.8-.2-1-.6-.2-1.3-.3-1.9-.4-.8-.1-1.7-.2-2.5-.4-1.4-.3-2.1-1.5-1.4-2.8.4-.8 1-1.6 1.5-2.3.3-.4.7-.8 1-1.2.3-.4.5-.9.2-1.5-.3-.5-.8-.8-1.3-.7-.7.1-1.3.3-2 .5-.2.1-.4.3-.6.3-.4-.1-.7-.2-1-.4-.3-.3-.2-.6.1-.9 1-1.1 3.7-1.6 5.1-.9 1.7.9 2.2 2.8 1.1 4.4-.3.5-.8.9-1.1 1.3-.4.5-.8 1-1.2 1.6-.4.6-.2.9.5 1 1.1.1 2.2.2 3.3.4.6.1 1.2.4 1.8.7.9.6 1.2 1.8.5 2.6-.8.9-1.7 1.5-2.6 2.3-.4.3-.9.6-1.3.9-.1.1-.3.4-.3.5.1.1.3.3.5.3h1.9c.2 0 .4-.1.6-.1.5 0 .9.3 1 .8.1.5-.3.8-.8.9-.8.4-1.5.4-2.2.5zM-6.7 30.1c.1-1 .3-2 .4-3 0-.4-.1-.8-.2-1.2-.3.2-.7.4-.9.6-.4.5-.7 1-1.1 1.5-.4.5-.8.6-1.3.3-.4-.3-.5-.7-.1-1.3.7-1.1 1.4-2.2 2.6-2.8 1.1-.5 2.2 0 2.5 1.1.1.6.2 1.2.1 1.7-.1 1.1-.2 2.2-.3 3.2 0 .3.1.5.2.8.3-.1.6-.1.8-.2.9-.7 1.7-1.3 2.5-2.1 2-1.8 3.3-1.5 4.3 1 .2.6.2 1.3.3 1.9.1.5.1 1 .2 1.5s.4 1 1 1c.4 0 .9-.2 1.3-.4.7-.6.9-1.4 1.2-2.2.1-.3.3-.6.5-.8.5-.3 1.1 0 1.1.5.1 1.7-1.5 4.9-4 4.7-1.4.1-2.5-.9-2.7-2.7-.1-.9-.3-1.8-.4-2.7 0-.2-.1-.4-.2-.5-.3-.5-.5-.6-1-.2-1 .9-2 1.7-3 2.6-.3.3-.7.4-1.1.6-1.3.4-2.4-.3-2.6-1.7 0-.5 0-.8-.1-1.2zM47 26.4c-.6-.2-1.4-.3-2.1-.7-1-.6-1.1-1.8-.2-2.7.7-.7 1.5-1.3 2.3-1.9.5-.4 1.1-.7 1.5-1.2.4-.4.4-.7-.2-.8-1.1-.3-2.2-.4-3.2-.7-.5-.1-1.1-.2-1.6-.3-1.1-.4-1.5-1.4-1.1-2.5.4-1 .9-1.8 1.6-2.5.4-.3.7-.7 1-1.1.4-.5.5-1 .2-1.5-.2-.6-.6-.9-1.2-.8-.7.1-1.5.4-2.2.6-.3.1-.7.2-1 .1-.6-.1-.8-.8-.3-1.2 1.1-1 3.9-1.8 5.5-.6 1.4 1 1.7 2.8.7 4.2-.7.9-1.5 1.8-2.2 2.8-.5.7-.3 1 .5 1.1 1.3.2 2.5.4 3.8.6.1 0 .3.1.4.1 1.9.8 2.2 2.4.7 3.8-.9.8-1.9 1.4-2.9 2.1-.3.2-.5.6-.8.9.4.1.8.3 1.2.3.5 0 1.1-.1 1.6-.1.6 0 1 .3 1.1.8 0 .5-.3.8-.8.9-.7 0-1.4.1-2.3.3zM96.5 26.9c-.1.6-.2 1.2-.2 1.8-.1.6-.1 1.2-.1 1.9 0 .6.4.8.8.4.8-.5 1.5-1.2 2.2-1.7.6-.5 1.1-1 1.7-1.3.8-.5 1.7-.3 2.3.5.7.9.9 1.9 1.1 2.9.1.5.1 1.1.1 1.6.1.6.4 1.2 1.1 1.3.6.1 1.1-.1 1.5-.6.4-.6.6-1.3.9-1.9.1-.3.2-.6.4-.8.2-.2.6-.3.9-.2.2.1.5.5.4.7-.2 1.8-.9 3.5-2.6 4.3-1.7.8-3.6 0-4.1-2.1-.2-.7-.2-1.4-.3-2.1-.1-.5-.3-1.1-.4-1.6-.2-.5-.5-.6-.9-.2-.7.6-1.4 1.3-2.1 1.9-.6.4-1.2.8-1.9 1.1-1.2.6-2.6-.1-2.7-1.5-.1-1.3.1-2.7.2-4 0-.4.1-.7 0-1.1-.1-.4-.3-.6-.6-.2-.5.6-1 1.1-1.4 1.7-.5.7-1.1.8-1.6.3-.1-.2-.2-.5-.1-.7.6-1.2 1.4-2.4 2.6-3.1 1.3-.7 2.6-.1 2.8 1.4v1.3zM83.6 89.1c.8.1 1.7.2 2.5.4 1.1.3 1.6 1 1.6 2.1 0 1-.3 2-.4 3 0 .2-.1.4-.1.6-.1.7 0 .8.7.9 1 .1 2.1.1 3.1.2 1.3.1 1.8.9 1.7 2.1-.1 1-.4 2-1.1 2.8-.5.5-.4.9.2 1.2.8.4 1.6.3 2.4 0 .5-.2 1-.4 1.3.2.3.4.2.8-.1 1.1-1.4 1.1-4.7 1-5.7-1-.4-.8-.2-1.5.3-2.2.3-.5.6-1 .8-1.6.2-.6.1-.8-.6-.8-.9-.1-1.8-.1-2.7-.2-1.8-.1-2.4-1-2.1-2.7.2-1 .4-2 .5-3 .1-.8-.1-1-.9-1.1-.9-.1-1.8 0-2.8 0-.7 0-1.1-.3-1.1-.8s.4-.9 1.1-.9h1.4v-.3zM-17.5-11.9c.8.1 1.5.1 2.3.2 1.1.2 1.8.9 1.8 2-.1 1.3-.3 2.5-.5 3.8-.1.8 0 .9.7.9 1.1.1 2.3.2 3.4.3.9.2 1.3.7 1.3 1.6 0 1.2-.2 2.3-1 3.2-.6.6-.4 1.1.5 1.4.8.2 1.6.1 2.4-.3.4-.2.8 0 1 .4.3.4.2.8-.2 1.1-1.3.9-4.4.9-5.5-.9-.4-.7-.4-1.6 0-2.2.4-.6.9-1.1 1-1.9.1-.5-.1-.7-.6-.8-1.1-.1-2.2-.1-3.3-.3-1.1-.2-1.6-.7-1.5-1.9.1-1 .3-2 .5-3 0-.2.1-.5.1-.7.1-.7-.1-1-.8-1.1-.5-.1-1.1-.1-1.6-.1h-1.4c-.5 0-.8-.2-.9-.8 0-.6.3-.9.8-.9h1.6-.1zM83.6-11.9c.7.1 1.4.1 2.1.2 1.3.2 2.1 1 2 2.3 0 1-.3 2-.4 3 0 .2-.1.4-.2.6-.1.6 0 .8.7.8 1.1.1 2.3.2 3.4.3.9.1 1.4.7 1.3 1.6-.1 1.1-.2 2.2-1 3.1-.7.7-.5 1.3.5 1.4.7.1 1.5 0 2.2-.2.6-.1 1-.1 1.3.4.3.5 0 .8-.4 1.1-1.4.9-4 .6-5.1-.6-.8-.9-.8-1.8-.1-2.7.3-.5.6-1.1.8-1.6.3-.7.1-.8-.6-.9l-3.3-.3c-1.1-.2-1.5-.8-1.5-1.8.1-.8.3-1.7.4-2.5.1-.5.1-.9.2-1.4.1-.6-.2-.9-.7-.9-.6-.1-1.1-.1-1.7-.1h-1.4c-.5 0-.9-.2-.9-.8-.1-.5.3-.9.9-.9.5-.1 1 0 1.5-.1zM-17.4 89.1c.9.1 1.7.2 2.6.5.8.2 1.4.9 1.4 1.7-.1 1.3-.3 2.6-.5 3.9-.1.8-.1.9.8 1 1 .1 2 .1 3 .2 1.2.1 1.7.7 1.7 2-.1 1.1-.3 2.1-1.1 2.9-.5.5-.4 1.1.3 1.3.6.2 1.3.1 2 .1.1 0 .2-.1.3-.1.8-.3 1.2-.2 1.5.3.2.5 0 1-.8 1.3-1.4.7-3.5.4-4.5-.6-.9-.9-1-2-.2-3 .3-.5.6-1.1.8-1.7.2-.5-.1-.7-.5-.7-.8-.1-1.5-.1-2.3-.2-.4 0-.7 0-1.1-.1-1-.2-1.5-.8-1.5-1.8.1-1.1.3-2.1.5-3.1 0-.3.1-.5.1-.8 0-.6-.2-.9-.8-1-1-.1-1.9-.1-2.9-.1-.8 0-1.1-.3-1.1-.9 0-.6.4-.9 1.1-.9h1.4c-.2-.1-.2-.2-.2-.2zM3.3 134.3H1.7c-.2-.8-.3-1.7-.5-2.5v-.1c-.3-1.2-.6-1.2-1.5-.4-1 .9-2 1.8-3.2 2.5-1 .7-2.1.5-2.7-.3-.3-.4-.5-.9-.5-1.4 0-.9.1-1.8.1-2.7 0-.6.1-1.1.2-1.7 0-.2-.1-.4-.2-.7-.2.1-.5.2-.6.3-.4.4-.7.8-1 1.2-.1.1-.2.3-.3.4-.4.5-.9.6-1.3.3s-.4-.7-.1-1.3c.6-.9 1.2-1.9 2.1-2.5 1.4-.9 2.7-.4 3.1 1.3.1.5.1 1 .1 1.4-.1 1-.2 2-.3 3.1 0 .3.2.7.2 1 .3-.1.7-.2.9-.4.8-.6 1.5-1.3 2.3-1.9.3-.3.6-.6 1-.8 1.1-.7 2.2-.5 2.8.7.4.8.6 1.6.8 2.5.2.7.2 1.3.2 2zM104.4 134.2c-.1.1-.1.1-.2.1-1.8 0-1.4.2-1.6-1.3-.1-.6-.2-1.1-.4-1.6-.3-.9-.5-.9-1.2-.3-.8.7-1.6 1.5-2.5 2.2-.6.4-1.3.7-2 .9-.7.2-1.9-.6-1.9-1.5-.1-1.3 0-2.7.1-4 0-.3.1-.7.1-1 0-.2-.1-.5-.3-.6-.1-.1-.4.1-.5.2-.5.5-.9 1.1-1.3 1.7-.3.4-.7.7-1.2.5-.5-.2-.7-.6-.5-1 .6-1.1 1.3-2.2 2.4-2.9 1.5-.9 3-.2 3.1 1.5.1.9-.1 1.8-.2 2.7 0 .6-.1 1.3-.1 1.9 0 .6.3.8.8.4.9-.6 1.7-1.4 2.6-2.1.5-.4 1-.8 1.6-1.1.9-.4 1.6-.2 2.1.6.4.7.7 1.5.9 2.2.1 1 .1 1.8.2 2.5zM107.5 65.9c-2.4.1-5 1-7.3 2.8-.2.2-.4.3-.6.5-.5.3-1 .3-1.3-.1-.4-.5-.2-.9.2-1.2 1.3-1.1 2.7-2 4.3-2.7 2.5-1 5-1.4 7.7-.8 3.2.7 5.5 2.5 6.9 5.5.3.5.1 1-.4 1.3-.5.2-.9 0-1.1-.5-.6-1.3-1.5-2.4-2.7-3.2-1.6-1.2-3.2-1.7-5.7-1.6zM65 36.4c.2-1 .3-2 .6-3 .5-1.5 2.9-2.3 4.1-1.8.6.2 1 .7 1.2 1.4.2.7.4 1.3.7 2 0 .1.1.2.1.2.4.3.8.9 1.2.9.3 0 .8-.6 1-1 .6-1.3 1-2.7 1.6-4 .1-.3.5-.6.8-.7.2-.1.6.2.8.5.1.1.2.5.1.6-.7 1.7-1.4 3.4-2.1 5-.2.4-.5.8-.9 1.1-.7.6-1.5.7-2.3.2-1.3-.8-2.2-2-2.4-3.5-.2-1-.8-1.3-1.6-.7-.4.3-.7.7-.8 1.1-.2.8-.2 1.7-.2 2.5v.8c-.1.5-.4.7-.8.7s-.8-.3-.8-.7v-1.4c-.2-.1-.3-.2-.3-.2zM16.5 70.4c-.2.2-.5.6-.8.7-.4.2-.8-.1-.9-.5-.6-1.3-1.5-2.4-2.7-3.3-2.1-1.4-4.4-1.7-6.8-1.3-2.5.4-4.7 1.4-6.6 3-.1.1-.3.3-.5.3-.4-.1-.8-.1-1-.4-.3-.3-.2-.7.1-1 .9-.7 1.7-1.3 2.6-1.9 2.2-1.3 4.6-2.1 7.2-2 3.9.1 7 1.7 8.9 5.3.3.3.4.6.5 1.1zM114.5 119.8c0-1.6 1.1-2.8 2.9-3.1.8-.1 1.7-.2 2.5-.4.5-.1.9-.5 1.4-.8-.4-.3-.7-.7-1.1-.9-.6-.3-1.2-.5-1.9-.7-.5-.2-.9-.4-.8-1 .1-.5.6-.8 1.2-.7 1.2.3 2.4.7 3.4 1.5 1.5 1.2 1.4 2.8-.3 3.7-.8.4-1.8.6-2.7.8-.6.2-1.2.2-1.8.4-1 .3-1.2 1.3-.6 2.1s1.4 1.1 2.3 1.3l1.8.3c.5.1.7.4.7.9s-.3.8-.8.7c-2-.1-4-.6-5.4-2.3-.4-.5-.6-1.2-.8-1.8-.1 0 0 0 0 0zM19.4 22.9c-1.7-.3-3.2-.6-4.5-1.5-1.8-1.3-2-3.7-.4-5 .7-.6 1.7-.7 2.6-.9.7-.1 1.5-.3 2.2-.4.1 0 .2 0 .2-.1.2-.2.5-.4.7-.6-.2-.2-.4-.5-.6-.7-.8-.4-1.6-.7-2.4-1-.5-.2-.8-.4-.7-.9.1-.5.6-.8 1.1-.7 1.3.2 2.5.6 3.5 1.4 1.6 1.3 1.3 3.1-.7 3.9-.7.3-1.4.4-2.2.5-.8.2-1.6.3-2.3.6-.7.3-.8.9-.5 1.6.4.8 1.1 1.2 1.9 1.5.7.2 1.5.3 2.2.5.3.1.7.4.8.7.1.2-.1.6-.3.9-.1.1-.5.1-.6.2zM19.3 123.9c-1.7-.2-3.3-.6-4.6-1.7-1.7-1.4-1.7-3.9.1-5 .5-.3 1.2-.4 1.8-.6 1-.3 2.1-.4 3.1-.8.7-.2.7-.6.1-1s-1.3-.6-2-.9c-.2-.1-.6-.1-.8-.3-.2-.2-.6-.5-.5-.8 0-.4.4-.9.9-.8 1.7.3 3.4.8 4.4 2.3.6.8.4 1.9-.5 2.5-.9.7-2 1-3.2 1.2-.6.1-1.2.1-1.8.3-1.3.4-1.6 1.5-.6 2.4.6.5 1.3.8 2.1 1.1.5.2 1.1.2 1.7.3.5.1.9.5.8.9 0 .7-.4 1-1 .9zM114.5 18.7c0-1.5.9-2.6 2.4-3 1.1-.2 2.3-.4 3.4-.7.4-.1.7-.4 1-.7-.3-.3-.6-.7-.9-.8-.7-.3-1.4-.6-2.1-.8-.5-.2-.8-.4-.7-.9.1-.5.6-.8 1.1-.8 1.2.2 2.4.6 3.4 1.4 1.7 1.3 1.4 3.2-.7 4-1 .4-2.1.5-3.1.7-.1 0-.2 0-.3.1-.7.1-1.4.3-1.6 1.1-.2.7.3 1.5 1.1 1.9.9.4 1.9.6 2.9.9.4.1.9.2 1 .7.1.6-.3 1.1-.9 1-1.8-.2-3.5-.6-4.9-1.9-.7-.5-1.1-1.3-1.1-2.2zM52.3 76.8c.2-.8.4-1.6.7-2.5.1-.5.3-.9.4-1.4.2-.6.2-1.2-.4-1.6-.6-.4-1.2-.4-1.8-.1-1.1.5-1.9 1.5-2.6 2.5-.4.6-.8.7-1.3.4-.4-.3-.6-.6-.3-1.1 1-1.7 2.3-3.1 4.3-3.7 1.9-.6 3.9 1.1 3.8 3-.1.8-.4 1.6-.6 2.5-.2.6-.3 1.2-.4 1.8 0 .3.1.7.2.8.2.1.6 0 .8-.2.7-.5 1.3-1.1 1.9-1.7.4-.3.7-.6 1.2-.2.4.3.5.9.1 1.3-.8.8-1.5 1.6-2.5 2.2-1.6 1.2-3.5.7-3.5-2zM4.6 81.1c0-.2-.1-.4 0-.5.2-.3.4-.6.7-.7.2-.1.7.2.9.4.2.2.2.5.2.8.3 2.7 1.4 4.7 3.9 6 1.3.7 2.7.9 4.1.3 1.1-.5 1.5-1.5 1.9-2.5.3-.6.5-1.2.8-1.8.2-.4.5-.8 1.1-.6.5.2.7.7.5 1.2-.5 1.1-.9 2.2-1.5 3.2-1.1 1.9-2.8 2.6-4.9 2.4-3.4-.3-6.4-2.9-7.3-6.2-.2-.6-.3-1.3-.4-2zM113.5 89.4c-3-.2-5.4-1.8-6.9-4.8-.6-1.1-.8-2.3-.9-3.5-.1-.8.2-1.3.8-1.3.5 0 .9.4.9 1.2.3 2.7 1.4 4.9 3.9 6.1 1.3.6 2.6.8 4 .3 1-.4 1.4-1.3 1.8-2.1.4-.8.7-1.5 1-2.3.2-.4.5-.7 1-.5.5.2.8.7.5 1.2-.5 1.2-1 2.4-1.6 3.5-.8 1.5-2.4 2.2-4.5 2.2zM63.4 2.5c-.8 0-1.4.2-1.9.7-.6.5-1 .5-1.4.1-.3-.4-.3-.8.2-1.3 1.2-1.3 3.5-1.6 5.2-.8 1.2.6 2.2 1.3 2.5 2.6.1.6 0 1.3-.1 1.9 0 .3-.2.5-.2.8-.3 1.2.1 1.8 1.3 1.7.5 0 1-.1 1.4-.2 1.8-.2 3 1.5 2.4 3.1-.1.3-.5.6-.8.5-.3 0-.5-.4-.8-.6v-.1c-.1-1.3-.2-1.4-1.5-1.1-.3.1-.7.2-1.1.2-1.9 0-3.1-1.3-2.8-3.2.1-.3.1-.7.2-1 .8-1.7-.5-2.9-1.9-3.2-.1-.1-.4-.1-.7-.1zM63.4 101.9c1.3 0 2.4.4 3.3 1.2 1.1.9 1.6 2 1.2 3.5-.1.3-.2.7-.3 1-.4 1.3.2 1.9 1.5 1.7.6-.1 1.2-.2 1.7-.2.8 0 1.4.3 1.7 1.1.2.6.3 1.3.3 2 0 .4-.4.7-.8.7s-.7-.3-.8-.8c-.2-1.3-.2-1.3-1.5-1.1-.5.1-1 .1-1.4.1-1.5-.1-2.4-1-2.4-2.5 0-.6.1-1.3.3-1.8.4-1.3 0-2.3-1.2-2.8s-2.4-.5-3.5.5c-.4.4-1 .4-1.4.1-.3-.3-.3-.8.2-1.3.8-1 1.9-1.4 3.1-1.4zM35 78.3c1.9.1 3.9.4 5.5 1.8.6.5 1.1 1.2 1.5 1.9.4.6.2 1.1-.4 1.4-.6.3-.9-.1-1.1-.5-1-1.8-2.6-2.5-4.5-2.7-2.5-.3-4.9.2-7 1.8-.9.7-1.4 1.6-1.6 2.8-.1.6-.6 1-1 .9-.5-.1-.8-.6-.7-1.2.4-2.4 1.9-4 4-5 1.8-.8 3.5-1.1 5.3-1.2zM135.7 78.3c2.4.1 4.4.4 6 1.9.5.4.9 1 1.3 1.6.1.2.2.4.2.6.1.5-.2.9-.6 1-.3.1-.7-.2-.9-.4-1.2-2.2-3.2-2.8-5.5-2.9-2-.1-3.9.4-5.6 1.6-1 .7-1.7 1.6-1.9 2.8 0 .2 0 .5-.2.6-.3.2-.6.5-1 .5s-.7-.4-.6-.8c.1-1.3.6-2.4 1.4-3.4 1.3-1.5 2.9-2.3 4.8-2.7.9-.2 1.9-.3 2.6-.4zM116.2 45.7c.2.2.5.3.6.5.1.2.1.6 0 .8-.2.3-.5.5-.8.7-1.5 1.1-2.7 2.3-3 4.2-.4 2.3.5 4.1 2.1 5.5 1 .9 2.2 1.5 3.3 2.2.4.3.7.6.6 1.1-.1.5-.5.8-1 .6-3.3-1.4-5.9-3.4-6.8-7.1-.5-2.3.2-4.4 1.7-6.2.7-.8 1.6-1.4 2.4-2.1.3 0 .6-.1.9-.2zM10.1 53.2c0-2.9 1.4-4.9 3.4-6.5.3-.3.7-.5 1-.7.5-.3 1-.2 1.3.2.3.4.2.9-.3 1.2-.6.5-1.3 1-1.9 1.6-2.2 2.2-2.3 5-.5 7.5 1.1 1.5 2.6 2.5 4.3 3.3.6.3.8.8.6 1.3-.2.4-.5.6-.9.4-3-1.3-5.4-3.2-6.6-6.4-.1-.2-.1-.4-.1-.5-.2-.6-.2-1.1-.3-1.4zM51.6 85.1c-1.4.1-3.3.3-4.8 1.4-.4.3-.7.7-1 1-.5.5-.8.6-1.3.2-.5-.3-.5-.7-.1-1.2.9-1.3 2.2-2 3.6-2.5 1.9-.6 3.8-.8 5.7-.5 2.7.4 4.3 2.1 5.1 4.6.2.7.3 1.4.5 2.1.1.5 0 .9-.6 1-.4.1-.9-.2-1.1-.7-.2-.7-.3-1.4-.5-2.1-.9-2.3-2.5-3.3-5.5-3.3zM89.2 17.9c.1-.7.1-1.5.4-2.1.7-1.7 2.8-2.1 4.2-.8.3.3.6.6.9 1 .4.5.8.4 1-.2.3-.8.5-1.6.8-2.3.6-1.7 1.9-2 3.3-.9l.9.9c.4.5.3.9-.1 1.3s-.8.2-1.1-.2c-1-1.2-1.2-1.1-1.7.4-.2.8-.5 1.5-.8 2.2-.7 1.2-1.8 1.3-2.8.4L93 16.4c-.3-.3-.8-.6-1.2-.3-.3.2-.5.6-.6 1-.1.6 0 1.2.1 1.8 0 .8-.2 1.2-.8 1.3-.6 0-.9-.4-1-1.2 0-.4 0-.7-.1-1.1h-.2zM-9.9 119.3v1.2c0 .4-.3.7-.7.7-.4 0-.9-.1-.9-.6-.1-1.1-.2-2.2 0-3.3.4-2 2.8-2.7 4.3-1.3.3.3.6.7.9 1 .4.4.6.4.8-.1.3-.7.4-1.4.7-2.1.1-.4.3-.7.5-1.1.6-1 1.5-1.2 2.6-.5.5.3.9.7 1.2 1.1.4.5.4 1.1 0 1.4-.4.3-.8.2-1.2-.2-.3-.3-.7-.5-1-.8l-.6 1.2c-.4.8-.6 1.7-1.1 2.4-.7 1.1-1.7 1.1-2.6.3l-1.2-1.2c-.3-.3-.7-.6-1.2-.4-.5.2-.7.6-.7 1.2.1.5.1.8.2 1.1-.1 0-.1 0 0 0zM-9.9 18.2v1.3c0 .5-.3.8-.8.7-.3 0-.8-.4-.8-.6-.2-1.1-.4-2.3-.1-3.4.5-1.8 2.7-2.5 4.2-1.3.4.3.7.7 1 1 .5.6.7.6 1-.1.3-.6.4-1.3.6-2 .1-.4.3-.7.5-1.1.6-.9 1.5-1.1 2.4-.5.5.3 1 .8 1.4 1.2.4.5.4 1-.1 1.4-.5.4-.8.1-1.2-.2-.3-.3-.7-.5-1-.8l-.6 1.2c-.4.8-.6 1.7-1.1 2.4-.7 1-1.6 1.1-2.6.3-.5-.4-.8-.9-1.3-1.2-.3-.2-.8-.4-1.1-.3-.5.1-.6.5-.7 1 .2.3.2.6.3 1-.1 0-.1 0 0 0zM89.2 119.1c.1-.7.1-1.5.4-2.1.7-1.7 2.9-2.1 4.2-.8.3.3.5.6.8.8.2.2.5.5.6.4.2-.1.4-.4.5-.7.3-.7.5-1.5.7-2.3.1-.3.3-.6.5-.8.5-.7 1.3-.9 2-.4.7.4 1.2 1 1.8 1.5.4.4.2.9-.2 1.2-.4.3-.8.2-1.1-.2l-.6-.6c-.5-.5-.7-.4-.9.2-.2.7-.5 1.5-.7 2.2-.1.2-.1.3-.2.5-.9 1.5-1.9 1.6-3.2.5-.4-.4-.7-.8-1.2-1.1-.7-.6-1.5-.3-1.6.6-.1.7 0 1.5.1 2.2 0 .5-.1.9-.6 1-.6.1-1-.2-1.1-.8-.1-.5-.1-.9-.1-1.4 0 .1-.1.1-.1.1zM136.6 28.1c.3 0 .9.1 1.4.2.5.1.9 0 1.2-.4.3-.4.1-.8-.2-1.2-.4-.5-.9-1-1.3-1.5-.4-.6-.4-.9 0-1.3.4-.3.9-.3 1.3.2.7.8 1.4 1.6 1.8 2.6.7 1.5-.6 3.4-2.3 3.5-.6 0-1.2-.1-1.7-.2-.6-.1-.8.1-.7.6.2.6.4 1.3.6 1.9.3.9.6 1.8-.1 2.6s-1.6.8-2.5.6c-.3 0-.5-.1-.8-.2-.5-.2-.7-.6-.6-1.1.1-.5.5-.6.9-.5.4.1.7.1 1.1.1.4 0 .6-.2.4-.6-.2-.7-.5-1.3-.7-2-.1-.4-.2-.9-.2-1.3.2-1.4.8-2 2.4-2zM35.6 28.1c.3 0 .9.2 1.5.2.4 0 .8-.2 1.1-.4.4-.3.2-.8 0-1.1-.4-.5-.8-1-1.3-1.6-.4-.6-.5-1-.1-1.4.4-.4.9-.3 1.3.2.5.6 1.1 1.2 1.5 1.8.6.9.6 1.9 0 2.9s-1.5 1.4-2.6 1.2l-1.2-.3c-.6-.1-.9.1-.7.7.3.8.6 1.6.8 2.4.1.4.2.7.2 1.1 0 .7-.4 1.2-1 1.4-.9.4-1.8.2-2.7-.1-.5-.2-.7-.6-.6-1.1.1-.5.5-.6 1-.5.2 0 .5.1.7.1.8.1 1-.1.7-.9-.3-.8-.5-1.5-.8-2.3-.1-.2-.1-.4-.1-.6 0-1 .7-1.7 2.3-1.7zM50.7.5c.1-.8.1-1.6.4-2.3.7-1.7 2.9-2.1 4.3-.8.3.3.6.7.9 1 .3.3.6.4.8-.1.2-.6.4-1.3.7-2 .2-.7.5-1.5 1.2-1.9.2-.1.5-.2.8-.2.8 0 2.5 1.2 2.6 2 .1.3-.1.7-.4 1-.3.3-.7.2-.9-.1-.3-.3-.5-.5-.7-.8-.3-.3-.6-.3-.8.2-.2.7-.4 1.5-.7 2.1-.3.6-.7 1.2-1.2 1.7s-1.1.5-1.6.1C55.5 0 55-.5 54.5-1c-.4-.3-.7-.8-1.3-.5-.6.3-.7.8-.7 1.4 0 .5.1 1.1.1 1.6 0 .7-.2 1.1-.8 1.1-.6 0-.9-.3-.9-1 0-.4 0-.7-.1-1.1h-.1zM50.7 101.6c.2-.8.2-1.6.5-2.3.8-1.6 2.8-1.9 4.1-.7.3.3.6.6.9 1 .4.5.7.5.9-.1l.6-1.8c.2-.5.4-1 .7-1.4.5-.8 1.2-1.1 2.1-.6.7.4 1.3 1 1.8 1.6.4.4.2.9-.2 1.2-.4.4-.8.2-1.1-.2-.2-.2-.4-.5-.7-.7-.3-.3-.6-.3-.7.2-.2.7-.4 1.4-.7 2.1-.1.4-.3.7-.5 1-.8 1.2-1.8 1.3-2.9.4-.4-.4-.8-.9-1.2-1.2-.3-.2-.8-.4-1.1-.2-.3.1-.6.6-.6.9-.1.6 0 1.3.1 1.9 0 .7-.3 1.2-.8 1.2s-.9-.4-.9-1.1c0-.4 0-.7-.1-1.1-.1-.1-.2-.1-.2-.1zM110.9 100.2c-.1.6-.2 1.3-.4 1.9-.1.5-.6.7-1.1.6-.5-.2-.6-.5-.5-1 .5-3.5-1.2-6.8-4.4-8.4-1.4-.7-2.8-.4-3.8.8-.1.2-.3.4-.5.5-.4.3-.8.2-1.1-.1-.3-.3-.3-.6 0-1 1.4-2.2 3.8-2.9 6.2-1.8 2.9 1.2 5.4 5.2 5.6 8.5zM110.9-.9c-.1.6-.2 1.3-.4 1.9-.2.5-.6.6-1.1.5-.5-.1-.6-.5-.5-.9 1-3.4-1.8-7.1-4-8.3-1.6-.9-3-.7-4.2.7-.2.3-.6.5-.9.5-.7.1-1-.7-.7-1.3 1.4-2.3 3.9-2.9 6.5-1.6 2.7 1.4 5.2 5.3 5.3 8.5zM83.9 48.3c-3.7-.3-6.7-1.8-8.7-5-.3-.5-.4-1-.6-1.5-.1-.6.1-1.1.6-1.2.6-.2.9.2 1 .7.6 3.1 4.6 5.2 7.4 5.2 1.6 0 3.2-.9 3.4-2.7 0-.2.1-.3.2-.5.2-.4.6-.6 1-.5.5.1.6.5.6.9-.2 2.3-1.6 4.1-4 4.4-.2.1-.6.2-.9.2zM-17.9 48.3c-2.9-.3-5.8-1.7-7.8-4.7-.4-.6-.6-1.3-.8-2-.1-.5.1-.9.7-1 .5-.1.9.1 1 .6.5 2 1.8 3.3 3.6 4.2.9.5 1.9.8 2.9 1 1 .3 2 .1 2.9-.4.9-.5 1.3-1.3 1.5-2.2.1-.3.2-.6.4-.8.2-.2.7-.2.9-.1.2.2.4.6.4.9-.2 2.9-2.1 4.6-5.7 4.5zM2.1 91c1.3 0 2.6.7 3.7 1.6 2 1.7 3.4 3.8 3.8 6.5.1.9 0 1.8-.1 2.7-.1.6-.6 1-1.2.8-.5-.2-.7-.6-.5-1.3.4-1.5.1-2.9-.6-4.2-.8-1.7-2-3.1-3.8-4-1.5-.7-2.8-.5-3.9.8-.2.2-.4.5-.6.5-.3 0-.8 0-1-.2-.2-.2-.2-.7 0-.9 1-1.4 2.2-2.3 4.2-2.3zM9.8-.8C9.7-.3 9.6.3 9.5.8c-.2.6-.6.8-1.2.7-.5-.2-.6-.5-.5-1.2.5-1.9 0-3.5-1-5.1C5.9-6.2 4.7-7.5 3-8.1c-1.2-.5-2.3-.2-3.2.7l-.6.6c-.4.4-.8.4-1.2 0-.3-.3-.3-.7 0-1.1 1.3-2 3.6-2.8 5.7-1.9C7-8.5 9.8-4.3 9.8-.8zM129 44.7c1.9.1 3.6.5 4.8 2 .9 1.1 1.2 2.5 1.6 3.8.1.5-.2.8-.7.9-.5.1-.8-.2-1-.6-.2-.4-.3-.8-.4-1.3-.5-1.8-1.6-2.8-3.4-3.1-2.7-.4-5.6 1-6.6 3.4-.1.2-.1.4-.2.6-.2.5-.6.8-1 .6-.5-.1-.7-.6-.6-1.1.4-1.8 1.5-3 3-4 1.4-.8 2.9-1.3 4.5-1.2zM28 44.5c1 .2 2 .4 3 .8 1.7.6 2.5 2.1 3 3.7.1.5.3.9.4 1.4.1.5-.1.9-.6 1-.4.1-.8-.1-1-.5-.2-.5-.4-1-.5-1.5-.6-2.3-2.3-3-4.4-3-2.3.1-4.2.9-5.4 3-.2.3-.3.7-.4 1.1-.2.4-.5.7-1 .6-.5-.2-.8-.5-.6-1.1.2-1.2.9-2.2 1.7-3 1.6-1.5 3.5-2.3 5.8-2.5zM82.1 57.8c0-4.3 4.2-7.3 8.2-5.9.5.2.8.5.6 1-.1.5-.6.8-1.2.6-1.7-.4-3.3-.2-4.6 1-1.6 1.6-1.8 4.3-.4 5.7.5.5 1.3.8 2 1.1.7.3 1.2 1 .7 1.5-.2.2-.5.4-.7.3-2.5-.5-4.6-2.1-4.6-5.3zM-17.3 57.7c.1 1.7 1.2 3.1 2.9 3.5.3.1.6.1.8.3.2.3.3.7.2 1-.1.2-.5.5-.8.4-2-.4-3.6-1.3-4.4-3.3-1-2.7.4-6.2 3.1-7.5 1.5-.7 3.1-.9 4.8-.4.6.2.8.5.7 1.1-.1.5-.6.7-1.2.6-2.4-.6-4.3.1-5.4 2.1-.3.8-.5 1.5-.7 2.2zM72 123.7c-.1 1.7-.7 3.7-2.4 5.1-.2.2-.4.4-.6.3-.4-.1-.8-.2-1-.5-.1-.2 0-.7.2-.9 1.8-1.5 2.3-3.5 2-5.7-.3-2-1.2-3.8-3.3-4.5-.6-.2-1.3-.2-2-.2-.3 0-.6 0-.8-.1-.2-.2-.4-.6-.4-.9.1-.3.5-.6.8-.7 1.4-.3 2.7 0 3.9.7 2.2 1.5 3.5 4.1 3.6 7.4zM72 22.2c-.1 2-.6 3.9-2.2 5.3-.2.2-.4.3-.5.4-.5.3-.9.2-1.2-.2-.3-.4-.2-.8.2-1.1.9-.7 1.5-1.6 1.8-2.7.7-2.7-.2-6-2.6-7.2-.8-.4-1.6-.5-2.5-.4-.3 0-.8-.1-1-.4-.5-.5 0-1.2.7-1.3 2.6-.3 5.1 1 6.3 3.3.6 1.3.9 2.7 1 4.3zM27.3-11c1 0 2 .3 3 .8.4.2.8.5.5 1.1-.2.5-.7.7-1.2.4-1-.5-2.1-.7-3.2-.5-1.8.4-3 1.5-4 3-1.1 1.6-1.6 3.3-1.5 5.3 0 .5-.1.9-.6.9-.5.1-1-.2-1-.7 0-1.1-.1-2.2.2-3.3.7-2.6 2.2-4.7 4.5-6.1 1-.6 2.1-.9 3.3-.9zM19.2 37.1c-3.1-.1-5.5-.8-7.2-2.9-.8-1-1.2-2.1-1.3-3.4-.1-.7.2-1.1.7-1.1.6 0 .9.3 1 1 .1 1.5.7 2.7 1.9 3.5 1.7 1.2 3.6 1.4 5.6 1.1 1.3-.2 2.5-.7 3.6-1.5.4-.3.7-.3 1 .1.3.4.4.9 0 1.2-.7.5-1.5 1.1-2.3 1.4-1 .3-2.3.4-3 .6zM120.1 99.2c0-3.8 2.5-7.4 6.1-8.7 1.7-.6 3.4-.5 5 .3.6.3.8.8.6 1.3-.3.5-.7.6-1.3.3-2.3-1.1-4.6-.5-6.5 1.7-1.4 1.7-2.2 3.7-2.1 6 0 .6-.2 1-.7 1.1-.5 0-1-.4-1-.9 0-.4 0-.7-.1-1.1zM120.1-1.9c.3-3.9 2-6.9 5.6-8.6 1.8-.9 3.7-.7 5.5.2.6.3.7.7.5 1.2-.2.4-.7.6-1.2.4-1-.4-2-.7-3-.5-2 .3-3.3 1.6-4.3 3.2-1 1.5-1.4 3.2-1.3 5 0 .5-.1.9-.7 1-.5.1-1-.3-1-.9 0-.3 0-.7-.1-1zM120 37.1c-2.7-.1-5-.7-6.7-2.7-1-1.1-1.5-2.4-1.5-3.8 0-.5.1-.9.7-.9.5-.1.9.2 1 .7.3 3.4 2.9 4.8 5.7 4.9 2 .1 3.8-.4 5.4-1.5.4-.3.8-.5 1.2 0 .3.4.3 1-.2 1.4-1 .8-2.1 1.3-3.4 1.6-.8.1-1.7.2-2.2.3zM19.1 99.5c0-3.9 2.5-7.7 6.1-9 1.7-.6 3.4-.5 5 .4.6.3.8.7.6 1.2-.3.6-.7.7-1.4.3-2.2-1.1-4.5-.6-6.3 1.5-1.5 1.8-2.3 3.8-2.3 6.2 0 .7-.2 1-.7 1.1-.5 0-.9-.3-1-.9v-.8zM-4.7 78.4c.1-1 .8-2.3 1.9-3.3 1.2-1.2 2.6-2 4.4-2.3 1.4-.2 2.6.1 3.8.9.3.3.6.7.3 1.2s-.9.6-1.4.2c-.8-.6-1.7-.8-2.7-.6-2 .5-3.5 1.7-4.4 3.6-.5 1.1-.1 2 1 2.5.3.1.5.2.8.4.4.2.5.6.4 1-.1.4-.4.6-.8.6-1.5-.3-3.4-1.6-3.3-4.2zM96.3 78.8c.1-1.7 1.1-3 2.5-4.2 1.1-1 2.4-1.6 3.9-1.8 1.4-.2 2.7.1 3.8 1 .4.3.7.6.3 1.1-.3.4-.8.6-1.3.3-2-1.4-3.7-.6-5.3.6-.9.6-1.6 1.4-2 2.5-.4 1 0 1.8.9 2.3.3.1.6.2.9.4.4.2.7.6.5 1.1-.2.5-.5.6-1.1.5-1.8-.5-3.1-1.9-3.1-3.8zM140.1 91.2c-.1 1.7-.5 3.6-1.9 5.2-.7.9-1.7 1.5-2.9 1.4-1.1 0-2.3-.2-3.4-.4-.5-.1-.7-.4-.6-.9.1-.5.5-.8 1-.7l1.8.3c1.9.2 3.2-.6 3.7-2.5.4-1.2.6-2.3.5-3.6-.1-.6-.4-1.1-.9-1.5-.6-.5-.7-.8-.3-1.3.3-.4.8-.5 1.4-.1 1.3.9 1.6 2.3 1.6 4.1zM140.1-10.3c0 1.7-.4 3.3-1.2 4.7-.8 1.5-2.1 2.4-3.9 2.4-1 0-1.9-.2-2.8-.4-.7-.1-.9-.5-.8-1 .1-.5.5-.8 1.2-.7.6.1 1.1.3 1.7.3 1.7.1 2.7-.4 3.4-2 .5-1.1.8-2.3.7-3.5 0-.8-.2-1.5-1-2.1-.6-.4-.7-.8-.3-1.3.3-.5.8-.5 1.4-.1 1 .6 1.4 1.6 1.6 2.7v1zM33.6 98c-.9-.2-1.8-.3-2.6-.5-.5-.1-.8-.4-.7-.9.1-.5.5-.8 1.1-.7.4.1.9.2 1.3.2 2.4.3 3.4-.2 4.2-2.5.3-.9.5-2 .6-3 .1-.9-.3-1.6-1-2.1-.5-.4-.6-.8-.3-1.2.3-.4.8-.5 1.3-.2.8.5 1.3 1.3 1.5 2.2.5 2.3 0 4.5-1.2 6.6-1 1.4-2.3 2-4.2 2.1zM39.1-10.5c-.1 1.9-.5 3.5-1.3 4.9-.9 1.6-2.2 2.4-4 2.3-.9 0-1.8-.2-2.7-.3-.7-.1-1-.5-.9-1.1.1-.5.6-.8 1.3-.7.7.1 1.4.3 2 .3 1.3.1 2.3-.5 2.9-1.7.6-1.2.9-2.5.9-3.8 0-.9-.3-1.6-1-2.1-.5-.4-.6-.8-.3-1.2.3-.5.7-.5 1.3-.2.8.5 1.3 1.2 1.5 2 .2.6.2 1.2.3 1.6zM99.9 52.7c-.1-1.1-.4-2.1-.9-3.1-.3-.7-.3-1 .3-1.3.5-.3.9-.1 1.2.5.8 1.4 1.1 2.8 1 4.4-.2 2.2-1 4.1-2.9 5.3-1.9 1.1-3.8.9-5.7-.1-.4-.2-.6-.5-.4-1 .2-.5.6-.7 1.1-.5.4.1.7.3 1.1.4 2.1.6 4-.3 4.7-2.4.3-.7.4-1.5.5-2.2zM.5 52.8c-.1 2.4-.8 4.4-2.9 5.7-1.9 1.1-3.8.9-5.7-.1-.4-.2-.6-.6-.4-1 .2-.4.6-.7 1.2-.5.4.1.8.3 1.2.4 1.8.5 3.6-.3 4.3-2 .8-1.9.8-3.8-.2-5.6-.3-.6-.2-1 .3-1.3.5-.3.9-.1 1.2.5.7 1.1 1.1 2.4 1 3.9zM2.1 20.9c.1-2.8 1.3-4.8 3.1-6.5.4-.3.8-.3 1.2.1.4.4.3.8 0 1.2-.6.8-1.4 1.6-1.9 2.5-1.1 1.9-.7 4.1.9 5.3.9.7 2 .9 3.1 1 .7 0 1.1.3 1.1.9 0 .5-.2.9-.7.9-2.1 0-5.2-.9-6.2-3.4-.4-.7-.5-1.5-.6-2zM61.7 60.6c-2-.2-3.8-.7-5.1-2.3-1-1.3-1.3-2.8-1-4.3.3-2 1.3-3.6 2.7-5 .5-.5.9-.6 1.4-.1.4.4.4.8-.1 1.4-.8.9-1.6 1.8-2 3-1 2.5.3 4.9 3 5.5.4.1.9.1 1.3.2.8.1 1.2.4 1.1 1-.1.4-.5.6-1.3.6zM103.2 20.6c.1-2.5 1.2-4.5 3-6.1.4-.3.8-.3 1.1 0 .4.4.4.7.1 1.2-.7.9-1.5 1.8-2 2.8-1.4 2.8.1 5.5 3.2 5.9.4.1.7.1 1.1.1.6.1 1 .5.9 1-.1.5-.4.8-1 .7-2-.2-3.8-.7-5.2-2.2-.9-1-1.2-2.1-1.2-3.4zM103.2 121.7c0-2.5 1.2-4.4 2.9-6.1.5-.4.9-.4 1.3 0s.3.8-.1 1.2c-.7.9-1.5 1.8-2 2.8-1.3 2.5 0 5.1 2.8 5.8.6.1 1.2.2 1.7.3.5.1.7.4.7.9 0 .4-.3.8-.8.7-2.1 0-4-.6-5.5-2.2-.7-.9-1-2.1-1-3.4zM2.1 121.7c.1-2.5 1.2-4.5 3-6.1.4-.4.9-.4 1.3 0 .3.4.3.8-.1 1.2-.9 1-1.7 2-2.2 3.3-.8 2.3.4 4.6 2.7 5.2l1.8.3c.7.1 1 .4 1 1 0 .5-.4.7-1.1.7-1.9-.1-3.6-.6-4.9-2-1.1-.9-1.4-2.2-1.5-3.6zM118.6 104.2c1.2 0 2.3.2 3.3.8 1.3.8 2.2 2.7 2 4.3-.1.5-.4.8-.9.8s-.8-.3-.8-.8c-.1-.5 0-1.1-.2-1.5-.5-1.3-1.6-1.8-2.9-1.8-2.4 0-4.5 1-5.9 3-.5.7-.9.7-1.4.3-.4-.4-.3-.8-.1-1.2.7-1.3 1.9-2.2 3.2-2.8 1.2-.8 2.5-1.1 3.7-1.1zM118.8 3c1.8.1 3.6.6 4.5 2.5.4.8.4 1.7.5 2.6.1.5-.3.9-.9.9-.6 0-.8-.4-.9-.9-.1-.5 0-1-.2-1.5-.4-1.1-1.3-1.7-2.4-1.8-2.6-.2-4.7.8-6.3 2.9-.2.3-.5.5-.8.6-.2 0-.6-.2-.7-.4-.1-.3-.1-.7.1-1 .6-1.1 1.6-2 2.7-2.6 1.4-.8 2.8-1.2 4.4-1.3zM17.1 104.2c2.3 0 3.9.5 4.9 2 .6.9.8 1.9.7 3 0 .5-.3.9-.9.9-.6 0-.8-.3-.8-.9-.1-.7-.2-1.4-.5-2-.8-1.3-2.2-1.5-3.6-1.3-2.1.3-3.8 1.2-5 3-.3.4-.6.7-1.1.3-.5-.3-.6-.7-.3-1.2.7-1.4 1.9-2.3 3.3-3 1.3-.5 2.6-.8 3.3-.8zM17.7 4.7c-2.3.2-4.3 1-5.6 3-.4.5-.8.7-1.2.4-.4-.3-.6-.7-.3-1.2.8-1.5 2.1-2.5 3.6-3.1 1.7-.7 3.4-1 5.3-.5 2.4.6 3.5 2.6 3.3 4.9 0 .5-.4.8-.9.8s-.7-.4-.8-.9c-.1-.7-.2-1.4-.5-2-.6-1.1-1.7-1.4-2.9-1.4zM29.9 126.6c0 2.8-.7 4.7-2.5 6.1l-.6.3c-.5.3-.9 0-1.1-.4-.3-.4-.2-.8.2-1.1.8-.5 1.4-1.2 1.8-2.1 1.1-2.5 0-6.2-2.3-7.3-.3-.1-.6-.1-.8-.2-.3-.1-.6-.1-.8-.3-.2-.2-.4-.7-.3-.9.1-.3.6-.5.9-.5 1.9.2 3.3 1.2 4.3 2.7.8 1.3 1.2 2.7 1.2 3.7zM45.1 65.1c-.2 2.6-1.4 5-4.2 6.5-.9.5-1.8.6-2.8.6-.5 0-1-.5-.9-1 .1-.6.4-.8 1-.8 2.5.2 4.3-2.1 4.9-3.9.4-1.2.6-2.4.1-3.5-.2-.5-.6-.9-.9-1.3-.2-.3-.4-.6-.4-.9 0-.3.2-.6.5-.8.2-.1.6 0 .8.1 1.1.9 1.9 2.7 1.9 5zM131 126.8c-.1 2.7-.8 4.6-2.7 6-.7.5-1.1.5-1.5.1-.4-.4-.4-.7 0-1.1.4-.3.8-.6 1.1-.9 1.3-1.5 1.5-3.3 1-5.2-.4-1.5-1.1-2.7-2.5-3.4-.3-.1-.7-.2-1-.3-.6-.1-1-.6-.9-1.1.1-.5.5-.7 1.2-.6 2.2.4 3.7 1.7 4.5 3.7.5 1 .7 2.1.8 2.8zM131 26.3c-.1 2.1-.8 4.1-2.9 5.4-.4.3-.9.3-1.2-.1-.4-.4-.5-.9.1-1.2 2.8-1.6 2.8-5.9 1.1-8.1-.6-.8-1.4-1.4-2.4-1.6-.2 0-.4-.1-.5-.1-.5-.2-.6-.6-.6-1.1.1-.5.5-.6.9-.5 2 .1 3.4 1.2 4.4 2.9.7 1.3 1.1 2.8 1.1 4.4zM29.9 26c0 2.3-.7 4.3-2.7 5.7-.1.1-.2.1-.3.2-.5.2-.9.1-1.2-.4-.2-.4-.1-.8.3-1.1 3-1.9 2.7-6.6.5-8.6-.5-.5-1.2-.7-1.8-1-.1-.1-.3-.1-.5-.1-.5-.2-.7-.5-.7-1 .1-.5.5-.6.9-.6 1.6.1 2.9.9 3.9 2.1 1.1 1.4 1.6 3.1 1.6 4.8zM102.6 40.2h-1.4c-.5 0-.8-.3-.9-.8 0-.5.3-.8.7-.9 2-.1 4.1-.2 6 .7 1.8.8 2.6 2.3 2.5 4.2-.1 1.8-.7 3.3-2 4.5-.6.5-.9.5-1.3.1s-.4-.9.2-1.4c1-.9 1.4-2 1.4-3.3 0-1.4-.7-2.4-2.1-2.7-.4-.1-.9-.2-1.3-.3-.6-.1-1.2-.1-1.8-.1zM75.4.9c0-2.9 1.3-4.6 3.5-5.3.6-.2 1 0 1.2.5.2.4-.1.9-.6 1-1.4.4-2.2 1.3-2.4 2.8-.1 1.5.3 2.8 1.5 3.7.9.7 2 .7 3 .2.2-.1.3-.2.5-.2.5-.2.8 0 1 .4.2.4.1.8-.3 1-1.4 1.1-3.8 1-5.3-.2-1.4-1-2.1-2.5-2.1-3.9zM1.5 40.2H.1c-.5 0-.8-.3-.8-.8s.2-.9.7-.9c2.2-.1 4.4-.2 6.4.9 1.2.7 2 1.7 2.1 3.2.2 2-.4 3.7-1.8 5.2-.6.6-1.1.7-1.4.3-.4-.4-.3-1 .3-1.6.9-.9 1.3-2 1.3-3.3 0-1.3-.8-2.4-2.1-2.7-1-.2-2-.3-3.1-.5-.1.2-.2.2-.2.2zM80.5 105.4c.3-.1.9-.3 1.4-.5.6-.3 1-.2 1.3.3.2.4 0 .9-.5 1.2-1.8 1.1-4 .8-5.5-.7-2.1-2-2.4-5.5-.6-7.5.6-.6 1.4-1 2.2-1.5.3-.1.8-.1 1 .1.6.4.4 1.1-.3 1.4-.9.3-1.6.7-2.1 1.6-.7 1.3-.5 2.6.2 3.9.6 1 1.5 1.7 2.9 1.7zM-25.8 101.6c.1-2.2 1.3-4 3.3-4.7.2-.1.5-.2.7-.1.3.1.7.4.8.7.1.2-.2.6-.4.8-.3.2-.7.3-1 .5-1 .6-1.5 1.5-1.6 2.7 0 1 .3 1.9.8 2.7.9 1.3 2.3 1.6 4 .9.7-.3 1-.2 1.3.3.2.5 0 .9-.6 1.2-2.5 1.3-5.4.3-6.6-2.3-.3-.9-.4-1.8-.7-2.7zM-20.7 6c-2 0-3.7-1.2-4.6-3.5-.9-2.2-.2-4.8 1.6-6.1.5-.3 1.1-.5 1.6-.8.5-.2.8.1 1 .5.2.5 0 .9-.4 1.1-.2.1-.4.1-.6.2C-23.4-2-24-.9-24 .5c0 1.8 1.1 3.4 2.7 3.6.6.1 1.3-.1 1.9-.2.2 0 .3-.2.4-.2.5-.1.8-.1 1.1.4.2.5.1.8-.3 1.1-.6.4-1.6.8-2.5.8zM46.7 49.6c1.3 0 2.9 1 4.1 2.9.1.2.2.4.2.6.1.5-.2.8-.6.9-.3.1-.7-.1-.9-.3-.3-.2-.4-.6-.6-.9-1.3-1.6-3.6-1.9-5.6-.7-1.2.7-2.1 1.7-2.6 3.1-.2.6-.7.9-1.2.6-.5-.2-.6-.6-.4-1.2 1.2-3.1 3.7-5 7.6-5zM48.8 30.1c2.1.1 3.8 1.1 4.9 3.1.3.6.2 1-.3 1.3-.4.2-.9.1-1.2-.4-.4-.8-1-1.4-1.8-1.8-1.7-.8-3.2-.4-4.7.6-1 .6-1.7 1.5-2.1 2.6-.2.5-.4 1-1.2.9-.6-.1-.8-.6-.5-1.4.6-1.6 1.6-2.9 3.1-3.8 1.1-.7 2.3-1.1 3.8-1.1zM66.9 89.3c.6.1 1.4.1 2.2.2 1.7.2 2.9 1 3.5 2.7.8 2.2 0 5.4-1.9 6.8-.1.1-.2.2-.3.2-.4.2-.8 0-1.1-.3-.3-.4-.2-.7.1-1 .3-.4.7-.6 1-1 1.1-1.4 1-3 .3-4.5-.4-.9-1.3-1.1-2.2-1.3-.7-.1-1.5 0-2.2-.1-.3 0-.7-.1-.8-.3-.2-.2-.3-.7-.2-.9.1-.2.4-.4.7-.5.2-.1.5 0 .9 0zM67.2-11.8c.8.1 1.6.2 2.4.4 1.6.3 2.5 1.3 3 2.7.7 2.2 0 5.1-1.8 6.6-.2.1-.4.4-.6.3-.3-.1-.7-.2-1-.4-.3-.3-.2-.6.1-.9l.3-.3c1.7-1.4 1.8-3.2 1.2-5.1-.3-.8-1-1.3-1.8-1.4-.8-.1-1.7-.2-2.5-.2-.3 0-.6 0-.9-.1-.5-.2-.6-.6-.5-1 .1-.4.4-.6.8-.5.5-.1.9-.1 1.3-.1zM137.2 134.4h-1.5c-.1 0-.3-.1-.3-.2-.3-1-.7-2-.8-3-.2-1.4.6-2.1 2.1-2 .5 0 1.1.2 1.6.3.5.1 1 0 1.1-.5.1-.3 0-.8-.1-1.1-.4-.6-.9-1.1-1.4-1.7-.3-.4-.3-.8 0-1.1.4-.3.8-.5 1.2 0 .7.8 1.5 1.7 2 2.6.9 1.8-.8 3.9-2.8 3.6-.4-.1-.8-.2-1.2-.2-.6-.1-.8.1-.6.6.2.6.4 1.3.6 1.9-.1.1-.1.4.1.8zM36.1 134.4h-1.5c-.1 0-.3-.2-.4-.3-.3-.8-.6-1.6-.8-2.5-.3-1.5.5-2.5 2.1-2.3.5 0 1 .2 1.5.2.5.1.9 0 1.2-.5.3-.4.1-.8-.2-1.2l-1.2-1.5c-.4-.5-.5-1-.1-1.3.5-.4.9-.4 1.4.2.5.6 1.1 1.3 1.5 2 .6 1 .5 2-.2 3-.7.9-1.6 1.2-2.8 1-.3-.1-.6-.1-.9-.2-.7-.1-.8.1-.6.8.2.7.5 1.4.7 2.1.2.1.2.2.3.5zM48.9 39.9h-1.1c-.5-.1-.7-.4-.8-.9 0-.4.2-.6.5-.7 2-.5 5.3 0 6.9 2 1.2 1.5 1.4 3.6.3 5.4-.3.4-.6.9-.9 1.3-.3.3-.6.5-1 .2s-.6-.7-.3-1.2c.3-.4.6-.9.8-1.3 1.1-2.3-.2-3.7-1.9-4.4-.8-.3-1.7-.4-2.6-.6.2 0 .2.1.1.2zM-19.3 122.5c2.1.1 4 1.1 5.6 2.6.4.4.5.8.1 1.2-.4.4-.8.5-1.3 0-.9-.8-1.8-1.5-3-1.9-2.2-.7-4.3.2-5.3 2.4-.1.2-.2.5-.4.7-.3.3-.6.5-1.1.2-.4-.2-.5-.6-.4-1 1-2.3 2.8-4.2 5.8-4.2zM-19.7 21.3c2.5.1 4.4 1.1 6 2.7.4.4.4.8 0 1.2-.4.4-.8.4-1.2.1-.8-.6-1.6-1.3-2.6-1.7-2.3-1.1-4.7-.2-5.7 2.1 0 .1-.1.2-.1.2-.3.7-.8 1-1.4.7-.5-.2-.6-.7-.2-1.5.8-1.7 1.9-3 3.7-3.6.6-.1 1.2-.1 1.5-.2zM81.6 21.4c2.3.1 4.2 1.1 5.7 2.7.4.4.4.8 0 1.2-.4.4-.8.3-1.2 0-.7-.6-1.5-1.2-2.3-1.6-2.7-1.3-4.9-.4-6.2 2.3-.3.6-.7.9-1.2.7-.4-.1-.7-.4-.5-.9.8-2.3 2.8-4.6 5.7-4.4zM81.8 124.2c-2.2.1-3.4 1.2-4.1 2.9-.3.7-.9.9-1.4.6-.3-.2-.5-.5-.3-.9 1.2-3.8 5.2-5.4 8.7-3.5.9.5 1.7 1.1 2.5 1.8.6.5.6.9.1 1.4-.4.4-.8.4-1.3-.1-.9-.8-1.8-1.5-3-1.9-.4-.2-.9-.3-1.2-.3zM79.6 86.6c-1.7-.1-3.4-.7-4.7-2.2-1.5-1.9-1.2-4 .8-5.3.6-.4 1.3-.7 2-.9.5-.2.9 0 1.1.5.2.5-.1.9-.6 1.1-.6.2-1.2.5-1.7.8-1 .7-1.2 1.6-.4 2.6.9 1.2 2.1 1.6 3.5 1.7.2 0 .4 0 .6.1.5.1.8.3.8.9 0 .5-.4.8-.9.8-.1-.1-.3-.1-.5-.1zM-21.4 86.6c-2.2-.2-4.2-.9-5.3-3-.8-1.5-.5-3.1.8-4.1.8-.6 1.7-1 2.6-1.3.5-.2 1 .1 1.1.5.1.4-.1.9-.6 1.1-.6.2-1.2.5-1.7.8-1.1.7-1.3 1.6-.4 2.7s2.1 1.5 3.5 1.6c.2 0 .4 0 .6.1.5.1.8.4.7.8 0 .5-.3.8-.8.8h-.5zM69.6 73.3c-.3 1-.6 2.1-.9 3.1-.1.2-.5.5-.8.5-.4 0-.7-.3-.7-.8 0-.3.1-.6.2-.8 1-2.5.2-4.4-2.4-5.2-1-.3-2-.4-3.1-.6-.6-.1-.9-.3-.9-.9 0-.4.2-.8.6-.8 2.5 0 4.9.4 6.7 2.4.8.9 1.2 1.9 1.1 3.2 0-.2.1-.2.2-.1zM-23.2 54.2c0 1.9-1.2 3.7-3.1 4.5-.5.2-.9.2-1.2-.3-.2-.5 0-.9.5-1.3s1.1-.7 1.5-1.2c.9-1.2.7-2.8-.5-4-.6-.6-1.3-1.1-2.2-1.2-.3-.1-.6-.1-.8-.3-.2-.3-.3-.7-.3-1 0-.2.5-.5.7-.5 2.6.3 5.3 2.2 5.4 5.3zM77.8 54.3c0 2-1.3 3.8-3.2 4.5-.4.2-.8.1-1-.3-.2-.4-.2-.8.2-1.1.3-.2.6-.4.8-.5 1.6-1 2-2.7.9-4.3-.6-1-1.5-1.6-2.7-1.9-.3-.1-.6-.1-.8-.3-.2-.3-.3-.7-.3-1 0-.2.5-.5.8-.4 2.5.2 5.3 2 5.3 5.3zM134.9 17.3c-2.4-.3-4.7-1.1-6.3-3.4-.3-.4-.4-1-.5-1.6-.1-.5.2-.9.7-1 .5-.1.9.2 1 .6.2 1.2.9 1.9 1.9 2.4 1.2.7 2.5 1.2 3.9 1.1.7 0 1.3-.4 1.5-1.1.2-.5.5-.8 1.1-.6.5.2.7.6.6 1.1-.2 1.1-1.2 2-2.4 2.2-.5.3-.9.3-1.5.3zM33.6 17.3c-2-.2-4.2-1-5.8-3-.5-.6-.7-1.3-.7-2.1 0-.5.3-.8.7-.8.3 0 .8.3.8.6.2 1.5 1.3 2.3 2.6 2.9.9.4 2 .6 3 .8.8.1 1.5-.2 1.8-1.1.2-.6.7-.8 1.2-.6.5.2.7.7.4 1.3-.5 1.3-1.6 2-4 2zM135.2 118.5c-2.7-.3-5-1.1-6.5-3.4-.3-.4-.4-1-.5-1.6-.1-.5.1-.9.6-1 .5-.1.9.1 1 .6.2 1.1.8 1.8 1.7 2.4 1.3.8 2.7 1.3 4.2 1.2.7 0 1.2-.4 1.4-1.1.2-.5.5-.8 1-.6.5.1.8.6.6 1.2-.2 1-.9 1.7-1.8 2-.6.1-1.2.2-1.7.3zM33.8 118.4c-2.2-.2-4.4-1-6-3-.5-.6-.7-1.3-.7-2.1 0-.4.2-.8.7-.8.5 0 .8.2.9.6.2 1.3 1.1 2.1 2.2 2.6 1.1.6 2.3 1 3.5.9.7 0 1.3-.3 1.6-1 .3-.7.6-.9 1.1-.7.6.2.8.7.5 1.4-.6 1.5-1.7 2.1-3.8 2.1zM42.5 44.4c1 0 1.9-.3 2.8-.8.3-.2.7-.4 1.1-.1.6.4.6.9.1 1.3-1.6 1.2-3.4 1.6-5.3 1.2-1.3-.3-2.4-.7-3.2-1.9-.7-1.2-.6-3.2.3-4.3.3-.4.6-.5 1-.3s.6.6.4 1c-.1.2-.1.3-.2.5-.7 1.7-.1 2.9 1.8 3.2.4.2.8.2 1.2.2zM104.8 105.8c0 2.3-.9 3.7-2.5 4.3-.4.2-.9.3-1.2-.1-.5-.5-.3-1.1.4-1.4.9-.4 1.5-1 1.6-2 .2-1.9-1.4-3.6-3.3-3.5h-.4c-.6 0-1-.4-1-.9s.3-.8.9-.9c1.2-.1 2.3.1 3.3.8 1.5 1.1 2.1 2.5 2.2 3.7zM-1.4 103.1h-.4c-.5 0-.8-.4-.9-.9-.1-.5.3-.7.8-.8 1.1-.2 2.2.1 3.2.6 2.5 1.3 3.3 5 1.5 7-.5.5-1.2.9-1.8 1.2-.5.2-.9.1-1.1-.4-.2-.5 0-.9.5-1.1 1.7-.6 1.9-2.1 1.6-3.1-.5-1.6-1.8-2.6-3.4-2.5zM104.7 5.2c0 1.9-1.1 3.4-2.8 3.9-.5.2-.9 0-1.1-.5-.2-.5 0-.9.5-1.1 1.6-.5 1.9-1.9 1.6-3.1-.3-1.4-1.6-2.5-3-2.5H99c-.5-.1-.7-.4-.7-.9s.3-.7.8-.7c3.1-.4 5.6 1.8 5.6 4.9zM-1.4.3c3.6 0 5.9 3.2 4.8 6.5C3 8 2.1 8.8.9 9.1c-.5.2-.9 0-1.1-.5-.2-.4-.1-.8.3-1 .1 0 .1-.1.2-.1 1.5-.4 1.9-1.9 1.6-3C1.6 3 .2 1.9-1.2 1.9c-.3 0-.7.1-.9-.1-.3-.2-.6-.5-.6-.8 0-.2.4-.5.7-.7.2-.1.5 0 .6 0zM81.8 33.8c.3-2.1 1.4-4.1 3.6-5.5.4-.3.8-.2 1.1.2.3.4.3.7-.1 1.1-.7.8-1.5 1.5-2.1 2.4-.4.6-.6 1.3-.7 2-.2.8.3 1.2 1 1.3h.6c.5 0 .8.3.9.8 0 .5-.3.9-.8.9-1.7.2-3.5-.6-3.5-3.2zM-19.2 33.9c.3-2.2 1.4-4.2 3.5-5.6.4-.3.8-.2 1.1.2.3.4.3.8-.1 1.2-.5.4-1 .8-1.4 1.3-.5.8-1 1.7-1.4 2.6-.4 1 .1 1.6 1.2 1.7h.4c.5.1.8.3.8.8s-.3.8-.7.9c-1.7.5-3.4-.9-3.4-3.1zM53.9 62.1c-1.3 0-2.2.6-3 1.6-.1.2-.2.3-.3.5-.3.3-.7.4-1.1.1-.3-.2-.5-.6-.3-1 .9-1.7 2.3-2.6 4.1-2.8 2.1-.2 4.2.9 5.1 2.8.3.7.2 1.2-.3 1.5-.5.2-.8.1-1.2-.7-.6-1.3-1.6-1.9-3-2zM129.6 5.3c0-2 1.3-3.5 3.2-3.7 1.8-.3 3.5.9 4 2.7.1.2.2.5.2.7.1.7-.1 1.1-.6 1.2-.5.1-.9-.3-1.1-.9-.1-.4-.2-.8-.4-1.1-.5-.7-1.3-1-2.1-.8-.8.2-1.3.9-1.4 1.8 0 .3 0 .6.1.9 0 .5-.3.8-.7.9-.5.1-.8-.2-.9-.6-.3-.3-.3-.7-.3-1.1zM55.4 23c0-2.8 2.9-4.6 5.4-3.4.3.1.5.6.5.9 0 .4-.4.7-.9.7-.3 0-.6-.1-.9-.2-1.2-.1-2 .4-2.3 1.5-.2 1 .3 1.8 1.3 2.2.3.1.6.2.7.4.2.2.3.7.1.9-.1.3-.6.5-.8.5-1.5-.3-3.2-1.7-3.1-3.5zM129.6 106.4c0-1.9 1.2-3.4 2.9-3.7 2.1-.3 3.8.7 4.4 2.7.1.2.1.4.2.6.1.7-.1 1.2-.6 1.2-.6.1-1-.3-1.1-.9-.1-.4-.2-.8-.4-1.1-.4-.7-1.3-1-2.1-.7-.9.2-1.3.8-1.4 1.7 0 .3 0 .6.1.9 0 .5-.2.8-.7.9-.5.1-.9-.1-1-.6-.3-.2-.3-.6-.3-1zM-11.5 79.2c1.6.1 2.9 1.1 3.4 2.6.5 1.8-.1 3.5-1.6 4.4-.2.2-.5.3-.8.4-.4.1-.8.1-1-.3-.2-.4-.2-.8.3-1.2.4-.3.9-.6 1.3-1.1.5-.7.4-1.5-.1-2.3-.5-.6-1.3-.9-2.1-.6-.2.1-.4.2-.6.2-.6.2-1 .1-1.2-.4-.3-.6.1-.9.5-1.1.5-.2 1.2-.4 1.9-.6zM32.2 1.6c2 0 3.6 1.6 3.8 3.6 0 .5-.1.9-.6 1-.5.1-.9-.2-1-.7-.2-.7-.3-1.3-1-1.8-.6-.4-1.3-.5-2-.2s-1.1.9-1.1 1.7c0 .3.1.6.1.9-.1.6-.4.9-.8.9-.3 0-.8-.3-.8-.6-.7-2.3.5-4.8 3.4-4.8zM55.4 124c0-2.7 2.7-4.5 5.2-3.5.6.2.9.6.7 1-.2.6-.7.8-1.4.6-1.3-.4-2.4.1-2.7 1.4-.2.9.2 1.7 1.1 2.1.2.1.5.2.7.3.4.2.7.5.5 1-.1.5-.5.7-1 .6-1.3-.1-3.2-1.5-3.1-3.5zM93.2 82.9c-.1 1.6-1.1 3-2.6 3.6-.5.2-.9.2-1.1-.3-.3-.5-.1-.9.4-1.2.6-.4 1.3-.8 1.5-1.6.2-.8-.1-1.4-.6-1.9s-1.1-.6-1.7-.4c-.3.1-.6.2-.8.3-.5.2-.8.1-1.1-.3-.3-.4-.2-.8.2-1.2 1.6-1.3 4.4-.6 5.3 1.2.2.6.3 1.2.5 1.8zM32.2 102.7c2 0 3.7 1.6 3.7 3.6 0 .5-.1.9-.6.9-.5.1-.9-.2-1-.7-.1-.3-.1-.6-.2-.8-.4-.9-1.3-1.5-2.2-1.3-1.1.2-1.7 1-1.6 2.1 0 .2.1.5.1.7 0 .5-.3.8-.8.8s-.8-.2-.9-.6c-.6-2.5 1-4.8 3.5-4.7zM67.3 48.6c-1.5 0-2.7-1.1-3.6-2.7-.2-.3-.3-.6-.4-1-.2-.5.1-.9.6-1.1.5-.2.8.1 1 .5l.6 1.2c1 1.6 2.7 1.8 4.1.6.4-.4.7-.8 1.1-1.2.3-.3.6-.6 1.1-.2.5.3.6.7.3 1.2-.9 1.5-2.7 2.7-4.8 2.7zM144.6 65v3.5c0 .6-.1 1-.5 1.4-1.3 1.4-2.7 2.2-4.6 2.3h-.6c-.5-.1-.7-.5-.7-1s.4-.8.8-.7c3.1.4 6.1-3.6 5.2-7.1-.2-.6-.7-1.2-1-1.7-.2-.3-.4-.7-.4-1 0-.7.7-.9 1.2-.5.4.3.7.6.6 1.2V65zM53.5 134.4h-1.7c-.1 0-.3-.1-.4-.2-1.3-1.4-3.1-1.4-4.6-.8-.5.2-.9.5-1.3.8-.1.1-.2.1-.3.1h-2.1c.4-1.3 3-3.3 5.8-3.1 2.1.2 4.5 1.7 4.6 3.2zM-29.1 68.5c.1-1.8.8-3.3 1.9-4.6.3-.4.7-.5 1.2-.2.4.3.5.8.2 1.3-.4.6-.8 1.1-1.1 1.7-.9 1.8-.3 3.3.9 4.6.2.2.4.5.6.7.3.4.1.8-.2 1.1-.3.3-.7.4-1 .1-1.4-1.2-2.4-2.7-2.5-4.7zM72 68.8c0-2.1.8-3.5 1.9-4.8.3-.4.7-.5 1.2-.1.4.4.4.7.1 1.3-.5.8-1 1.6-1.3 2.5-.4 1.3.1 2.5 1 3.5.2.3.5.5.8.8.3.4.3.8-.1 1.1-.3.3-.7.4-1.1.1C73 72 72 70.5 72 68.8zM144.6 44.4c.1 1.9.3 1.8-1.6 1.7-1.5-.1-2.8-.5-3.8-1.8-1.1-1.4-.7-3.5.2-4.6.2-.2.6-.3.9-.2.3.1.4.5.6.8.1.1-.1.4-.2.6-.8 1.7-.2 3.1 1.8 3.4.6.1 1.3.1 2.1.1zM17.8 75.5c1.4.1 2.6.6 3.6 1.5.5.5.5.9.2 1.3s-.8.4-1.3 0c-.5-.3-1-.7-1.5-.9-1.4-.4-2.7.1-3.6 1.3-.1.2-.2.3-.3.5-.3.4-.6.6-1.1.4-.5-.2-.6-.8-.4-1.2.6-1.1 1.4-2 2.5-2.4.6-.2 1.2-.3 1.9-.5zM122.9 77.9c-.2.3-.4.6-.6.7-.2.1-.6 0-.9-.1-.3-.1-.5-.4-.8-.5-1.7-1-3.5-.6-4.6 1.1-.1.1-.2.3-.3.4-.3.4-.6.5-1 .2s-.7-.6-.4-1.1c.7-1.5 1.9-2.5 3.6-2.8 1.7-.3 3.2.3 4.5 1.4.2.1.3.4.5.7zM127.5 42c-1.4-.1-2.6-.6-3.6-1.7-.4-.4-.5-.8 0-1.2.4-.4.8-.4 1.2-.1.3.3.6.5 1 .7 1.3.7 2.6.4 3.7-.6.3-.3.5-.6.8-.9.4-.3.8-.3 1.1 0 .4.3.4.7.1 1.1-1 1.6-2.4 2.6-4.3 2.7zM26.5 42c-1.4-.1-2.6-.6-3.6-1.6-.4-.4-.4-.8-.1-1.2.4-.4.8-.4 1.2 0 .3.3.7.6 1.1.8 1.4.7 2.8.3 3.9-.9.2-.2.4-.6.7-.7.3-.1.8 0 1 .2.2.1.2.7.1.9-.9 1.4-2.3 2.4-4.3 2.5zM56.2 6.2c1.3.1 2.5 1 2.9 2.2.4 1-.1 2.7-1.1 3.3-.2.1-.7.2-.9 0-.2-.2-.3-.6-.4-1 0-.2.2-.4.3-.6.3-.5.5-1 .2-1.5-.2-.4-.8-.6-1.4-.5-.3 0-.5.2-.8.3-.6.3-1 .1-1.3-.4-.3-.5.1-.8.5-1 .7-.3 1.3-.5 2-.8zM50.8 93.2c0 1.8-.9 2.9-2.4 3.3-1.2.3-3-.6-3.4-1.8-.1-.2.1-.7.3-.8.2-.1.7-.1 1 0 .2.1.4.4.6.6.4.3.8.6 1.2.4.5-.2.9-.6.9-1.2 0-.3 0-.7-.1-1-.1-.6.2-1.1.7-1.2.6-.1.8.3.9.8.2.3.2.7.3.9zM48-4.5c-1.5 0-2.4-.7-3-1.8-.1-.2 0-.6.2-.8.3-.3.7-.4 1.1-.1.2.1.4.3.5.5.4.3.8.6 1.3.4.6-.2.9-.7.9-1.3 0-.3-.1-.6-.1-.9-.1-.6.2-1.1.7-1.2.6-.1.8.4.9.8.5 1.9 0 3.3-1.5 4.1-.4.2-.8.2-1 .3zM61.7 41.7c-1.9 0-3.3-1.4-3.3-3.1 0-1.1 1-2.4 2-2.7.2-.1.7.1.8.3.1.3.1.7 0 1 0 .2-.3.3-.5.4-.5.4-.9.8-.7 1.4.2.7.8 1 1.6 1 .2 0 .5-.1.7-.1.5 0 .8.3.9.8.1.5-.2.7-.6.9-.2.1-.6.1-.9.1zM62.8 79.2c1.8.1 2.9 1 3.3 2.5.4 1.7-.9 3.1-2.5 3.5-.2 0-.6-.1-.7-.3-.1-.2-.2-.6-.1-.9.1-.2.4-.4.7-.6.7-.4 1-.8.9-1.4-.1-.6-.7-1.2-1.4-1.2h-.4c-.6 0-1.1-.5-1-1 .1-.6.5-.7 1-.7.1.1.1.1.2.1zM56.2 107.4c1.3.1 2.4.9 2.9 2.1.4 1-.1 2.6-1 3.3-.3.3-.7.3-1 .1-.3-.3-.5-.7-.2-1.1.1-.2.2-.3.4-.5.3-.5.4-1 0-1.5-.3-.5-1-.7-1.6-.5l-.6.3c-.6.2-1.1 0-1.3-.5-.2-.6.2-.8.6-1 .5-.3 1.2-.5 1.8-.7zM87.9 108.8c.9 0 1.9.4 2.8 1.1.3.2.5.6.3 1-.3.4-.6.7-1.2.5-.3-.1-.6-.3-.8-.4-1-.5-1.8-.4-2.6.4-.6.6-.9.7-1.3.3-.5-.4-.5-.9 0-1.5.7-.9 1.6-1.4 2.8-1.4zM-21.6 14.6h.5c.5 0 .8.2.9.7.1.5-.2.8-.7 1-.2.1-.5.1-.7.1-1.5 0-2 .5-2.4 1.9-.1.5-.4.8-.9.7-.5 0-.8-.5-.9-1 0-1.2.9-2.5 2.1-3 .7-.2 1.4-.3 2-.5.1 0 .1.1.1.1zM67.2 56.9c.1-1 .4-1.9.9-2.8.3-.4.6-.6 1.1-.4.5.3.6.7.4 1.2-.1.3-.3.6-.4.9-.5 1.1-.3 1.7.6 2.5.7.5.7 1.1.1 1.5-.4.3-.8.2-1.2-.1-.9-.7-1.4-1.6-1.5-2.8zM87.8 7.7c1.1 0 2 .4 2.9 1 .3.2.6.5.4.9-.2.4-.6.7-1.1.5-.4-.1-.7-.3-1-.5-1.2-.5-1.7-.4-2.6.6-.5.6-1 .6-1.4 0-.1-.3-.1-.7 0-1 .6-1 1.6-1.5 2.8-1.5zM94.6 46.1c-.5-.1-1.3-.4-2.1-.6-.4-.1-.7-.5-.5-.9.2-.5.5-.7 1-.6l.9.3c1.1.4 1.9.2 2.5-.8.4-.6.8-.7 1.2-.5.5.3.6.7.3 1.4-.5 1.1-1.5 1.6-3.3 1.7zM-13.1 108.8c.9 0 1.9.4 2.8 1 .4.3.5.7.3 1.1-.3.4-.7.6-1.2.3-.4-.2-.8-.5-1.3-.6-.8-.3-1.5 0-2.1.7-.5.6-.9.7-1.3.3-.4-.3-.5-.9-.1-1.5.7-.8 1.6-1.3 2.9-1.3zM75.3 119c0-1.4.9-2.6 2.3-3 .7-.2 1.5-.2 2.2-.3.5 0 .9.2.9.8 0 .5-.4.9-.9.9H79c-1.2.1-1.8.6-2 1.7-.1.5-.2.9-.9.9-.5 0-.8-.4-.8-1zM-21.5 115.7h.2c.7 0 1.1.3 1.1.8s-.4.9-1.1 1c-.5 0-1.1.1-1.6.2-.7.2-1 .8-1.1 1.5-.1.7-.4 1-.9.9-.5-.1-.9-.5-.8-1.1.1-1.4 1.1-2.6 2.4-3 .6-.2 1.2-.3 1.8-.3zM-6.1 46.2c-.8-.2-1.6-.5-2.4-.8-.4-.1-.6-.4-.5-.9.1-.5.5-.7.9-.7.3 0 .7.2 1 .3 1.1.4 1.9.2 2.6-.8.4-.6.8-.8 1.3-.5.5.3.5.9.2 1.4-.7 1.3-1.7 1.9-3.1 2zM106.7 55.9c1.1 0 2 .4 2.9 1 .4.2.6.6.4 1-.2.4-.6.6-1 .5-.4-.1-.7-.3-1.1-.5-1.2-.5-1.7-.4-2.5.6-.6.6-1.1.6-1.5-.1-.1-.2-.1-.6 0-.8.6-1.1 1.5-1.7 2.8-1.7zM75.3 17.9c0-1.6 1.2-2.9 3-3.2.5-.1 1.1-.1 1.7-.1.4 0 .7.2.8.6.1.4-.1.8-.5 1-.3.1-.7.1-1 .1-1.4.1-2 .6-2.2 1.8-.1.5-.3.9-.9.9-.6-.1-.9-.5-.9-1.1zM5.6 55.9c1.1 0 2.1.4 3 1 .3.2.6.5.4 1-.2.4-.6.7-1.1.5-.4-.1-.7-.3-1.1-.5-1.2-.5-1.7-.3-2.5.6-.5.6-1 .6-1.4 0-.2-.3-.1-.8 0-1.1.5-1 1.6-1.5 2.7-1.5zM-12.8 7.7c.6 0 1.6.4 2.4.9.4.3.6.6.4 1.1-.2.5-.6.6-1.1.4-.4-.1-.7-.3-1.1-.5-1.1-.4-1.6-.3-2.4.6-.6.7-1.2.7-1.5 0-.1-.3 0-.8.2-1.1.6-1 1.6-1.4 3.1-1.4zM144.6 50.1v1.6c0 .1-.2.3-.3.4-1.1.7-2 1.7-2.5 3-.1.1-.1.3-.2.4-.3.4-.6.5-1 .3s-.6-.5-.5-.9c.3-.7.6-1.4 1-2.1.7-1.2 1.7-2 3-2.6.1-.1.2-.1.3-.1 0-.1.1 0 .2 0zM-19.1 134.4c.3-1.4.9-2.4 1.7-3.4.5-.5 1-1 1.6-1.4.5-.4 1-.3 1.3.1.3.5.2.9-.3 1.3-1.1.8-1.8 1.8-2.3 3-.1.2-.3.3-.4.3-.6.1-1 .1-1.6.1zM81.9 134.4c.3-1.5 1-2.6 1.9-3.6.4-.4.9-.8 1.4-1.2.5-.4 1-.3 1.3.2.3.4.2.8-.3 1.2-1 .7-1.8 1.7-2.3 2.8-.2.5-.4.6-.9.6-.3-.1-.7 0-1.1 0zM65.7 134.1c.4-.3.7-.7 1.1-.9.7-.3 1.5-.5 2.2-.6 1-.1 1.8.8 1.8 1.7h-5s-.1-.1-.1-.2zM13.1 134.4h-1.4c-.2 0-.5-.2-.5-.3l-.6-2.4c-.1-.5.3-.8.7-.8.3 0 .6.3 1 .5v.1c.3.9.6 1.8.8 2.9zM114.2 134.4h-1.5c-.1 0-.4-.2-.4-.3-.2-.8-.4-1.5-.6-2.3-.1-.6.2-1 .7-1 .5 0 .8.3.9.9.3.8.6 1.7.9 2.7zM144.6 9.6c-.7.3-1.3.6-2 .8-.5.2-1.1 0-1.3-.4-.2-.5.1-.8.4-1 .8-.6 1.7-.9 2.8-1 .1.6.1 1.1.1 1.6zM144.6 109.1v1.4c0 .1-.2.3-.4.4-.5.2-1.1.4-1.6.6-.5.2-1 .1-1.3-.4-.3-.5 0-.8.4-1 .9-.6 1.8-1 2.9-1zM-26.5 134.4c.4-1 .7-1.8 1.1-2.6.1-.2.6-.4.8-.3.3.2.7.6.6.9-.1.6-.4 1.3-.6 1.9 0 .1-.2.1-.2.1h-1.7zM74.6 134.4c.4-.9.7-1.8 1.1-2.5.2-.4.5-.6.9-.4.4.2.7.6.6 1.1l-.6 1.5-.3.3h-1.7zM144.6 32.7v3c0 .4-.6.7-1 .6-.4-.1-.8-.4-.7-.9.3-1.1.8-2 1.5-2.9.1.2.1.2.2.2zM109.2 134.3h-1.8c.2-.7.3-1.4.6-1.9.1-.3.6-.4 1-.4s.6.4.6.9c-.1.5-.2.9-.4 1.4zM6.4 134.3c.2-.6.3-1.3.6-1.8.1-.3.7-.5 1-.5.4 0 .5.4.5.9 0 1.4-.5 1.7-2.1 1.4zM144.6 115v4.2c-.7-.2-1.1-.6-1.2-1.2-.2-1.2.4-2.1 1-3 .1-.1.1-.1.2 0zM144.6 13.8V18c-.6-.1-.9-.5-1.1-1-.4-.7.1-2.4 1.1-3.2z"/></svg>