<svg id="Outline_Icons" xmlns="http://www.w3.org/2000/svg" xmlns:xlink="http://www.w3.org/1999/xlink" width="512" height="512" viewBox="0 0 512 512"><style>.st0{opacity:.8}.st1{clip-path:url(#SVGID_2_)}</style><g class="st0"><defs><path id="SVGID_1_" class="st0" d="M204.5 204.5h103v103h-103z"/></defs><clipPath id="SVGID_2_"><use xlink:href="#SVGID_1_" overflow="visible"/></clipPath><path class="st1" d="M281.3 251.7h-14.6c-1.2 0-2.1 1-2.1 2.1v49.4h-17.2v-49.4c0-1.2-1-2.1-2.1-2.1h-10.7v-12.9h10.7c1.2 0 2.1-1 2.1-2.1v-9.2c0-6.9 2.3-18.5 17.9-18.5l16.4.1v12.6H271c-3 0-6.5 1.8-6.5 6.9v8.2c0 1.2 1 2.1 2.1 2.1h15.9l-1.2 12.8zm5.3-16.5c-.4-.5-1-.7-1.6-.7h-16.2v-6c0-1.2.2-2.6 2.2-2.6h12.8c1.2 0 2.1-1 2.1-2.1v-16.9c0-1.2-1-2.1-2.1-2.1l-18.6-.1c-20.6 0-22.2 17.5-22.2 22.8v7.1h-10.7c-1.2 0-2.1 1-2.1 2.1v17.2c0 1.2 1 2.1 2.1 2.1H243v49.4c0 1.2 1 2.1 2.1 2.1h21.5c1.2 0 2.1-1 2.1-2.1V256h14.4c1.1 0 2-.8 2.1-1.9l1.8-17.2c.2-.6 0-1.2-.4-1.7z"/></g></svg>