<svg id="Outline_Icons" xmlns="http://www.w3.org/2000/svg" xmlns:xlink="http://www.w3.org/1999/xlink" width="512" height="512" viewBox="0 0 512 512"><style>.st0{opacity:.8}.st1{clip-path:url(#SVGID_2_)}</style><g class="st0"><defs><path id="SVGID_1_" class="st0" d="M199.5 199.5h113v113h-113z"/></defs><clipPath id="SVGID_2_"><use xlink:href="#SVGID_1_" overflow="visible"/></clipPath><path class="st1" d="M289 302.7c-7.7 3.4-15.2 5.2-22.3 5.2-8.4 0-16.1-2.5-21.5-7.1-5.1-4.4-8-10.2-8-16.5v-40c0-1.3-1.1-2.4-2.4-2.4H223v-9.3c4.3-1.4 9.8-3.3 12.8-5.9 3.3-2.8 5.9-6.2 7.9-10 1.7-3.4 3-7.6 3.7-12.5h13.3v21.2c0 1.3 1.1 2.4 2.4 2.4h21.2v14.1h-21.2c-1.3 0-2.4 1.1-2.4 2.4v26c0 18.3 9.5 21 15.2 21 4.8 0 9.5-1.9 13.1-3.7v15.1zm3.4-21.4c-.8-.4-1.7-.4-2.4.1-4.9 3.2-10.1 5.1-14.1 5.1-6.9 0-10.5-5.5-10.5-16.3v-23.6h21.2c1.3 0 2.4-1.1 2.4-2.4v-18.8c0-1.3-1-2.4-2.3-2.4h-21.2v-21.2c0-1.3-1.1-2.4-2.4-2.4h-17.7c-1.2 0-2.2.9-2.3 2.1-.7 5.3-1.9 9.7-3.6 13-1.7 3.3-3.9 6.2-6.7 8.6-2.6 2.2-8.4 4.1-12.3 5.3l-.5.2c-1 .3-1.6 1.2-1.6 2.2v13.3c0 1.3 1.1 2.4 2.4 2.4h11.8v37.6c0 7.7 3.4 14.9 9.6 20.1 6.3 5.3 15 8.3 24.5 8.3 8.3 0 16.9-2.1 25.7-6.2.8-.4 1.4-1.2 1.4-2.1v-20.9c-.1-.8-.6-1.6-1.4-2z"/></g></svg>