<svg id="Outline_Icons" xmlns="http://www.w3.org/2000/svg" xmlns:xlink="http://www.w3.org/1999/xlink" width="512" height="512" viewBox="0 0 512 512"><style>.st0{opacity:.8}.st1{clip-path:url(#SVGID_2_)}</style><g class="st0"><defs><path id="SVGID_1_" class="st0" d="M204.5 204.5h103v103h-103z"/></defs><clipPath id="SVGID_2_"><use xlink:href="#SVGID_1_" overflow="visible"/></clipPath><path class="st1" d="M288.2 303.2h-64.4c-8.3 0-15-6.7-15-15v-45.1h24.9c-2.2 3.8-3.5 8.2-3.5 12.9 0 14.2 11.5 25.8 25.8 25.8 14.2 0 25.8-11.5 25.8-25.8 0-4.7-1.3-9.1-3.5-12.9h24.9v45.1c0 8.3-6.7 15-15 15zm-75.1-89.9v25.5h-4.3v-15c0-4.1 1.6-7.8 4.3-10.5zm12.9-4.5h4.3v30H226v-30zm-8.6 1.5c1.3-.6 2.8-1.1 4.3-1.3v29.8h-4.3v-28.5zm38.6 24.2c11.8 0 21.5 9.6 21.5 21.5s-9.6 21.5-21.5 21.5-21.5-9.6-21.5-21.5 9.7-21.5 21.5-21.5zm47.2-10.7v15h-28.1c-4.7-5.3-11.5-8.6-19.1-8.6-7.6 0-14.4 3.3-19.1 8.6h-2.3v-30h53.6c8.3 0 15 6.7 15 15zm-15-19.3h-64.4c-10.6 0-19.3 8.7-19.3 19.3v64.4c0 10.7 8.7 19.3 19.3 19.3h64.4c10.6 0 19.3-8.7 19.3-19.3v-64.4c0-10.6-8.7-19.3-19.3-19.3z"/><path class="st1" d="M286 221.7h8.6v8.6H286v-8.6zm-2.1 12.8h12.9c1.2 0 2.1-1 2.1-2.1v-12.9c0-1.2-1-2.1-2.1-2.1h-12.9c-1.2 0-2.1 1-2.1 2.1v12.9c0 1.2.9 2.1 2.1 2.1z"/></g></svg>