<svg id="Outline_Icons" xmlns="http://www.w3.org/2000/svg" xmlns:xlink="http://www.w3.org/1999/xlink" width="512" height="512" viewBox="0 0 512 512"><style>.st0{clip-path:url(#SVGID_2_)}</style><defs><path id="SVGID_1_" d="M126 153h206v206H126z"/></defs><clipPath id="SVGID_2_"><use xlink:href="#SVGID_1_" overflow="visible"/></clipPath><path class="st0" d="M229 311.8c0 10.1-9.2 21.5-21.5 21.5-11.8 0-21.5-9.6-21.5-21.5 0-11.8 9.6-21.5 21.5-21.5H229v21.5zm19.5-123.7c-10.7-7.1-11-17.5-11-17.9v-4.3c0-2.4-1.9-4.3-4.3-4.3s-4.3 1.9-4.3 4.3v115.9h-21.5c-16.6 0-30 13.5-30 30 0 16.6 13.5 30 30 30 16 0 30-14 30-30v-122c1.7 1.9 3.7 3.7 6.2 5.4 35.7 23.8 23.4 55.7 18.2 69.4l-6 15.6c-.8 2.2.3 4.7 2.5 5.5.5.2 1 .3 1.5.3 1.7 0 3.4-1 4-2.8l6-15.6c5.1-12.8 20.2-51.9-21.3-79.5z"/></svg>