<svg id="Outline_Icons" xmlns="http://www.w3.org/2000/svg" width="200" height="200" viewBox="0 0 200 200"><style>.st0{font-family:&amp;apos;MyriadPro-Regular&amp;apos;}.st1{font-size:12px}</style><path d="M128.8 90.7c-.3-.6-.9-.9-1.5-.9h-25.2l6.4-28.6c.2-.8-.2-1.6-1-1.9-.7-.3-1.6-.1-2.1.6l-34.1 47.8c-.4.5-.4 1.2-.1 1.8.3.6.9.9 1.5.9h25.2L91.5 139c-.2.8.2 1.6 1 1.9.2.1.5.1.7.1.5 0 1.1-.3 1.4-.7l34.1-47.8c.4-.6.4-1.2.1-1.8zm-32.1 40.7l5-22.5c.1-.5 0-1-.3-1.4-.3-.4-.8-.6-1.3-.6H76l27.3-38.3-5 22.5c-.1.5 0 1 .3 1.4.3.4.8.6 1.3.6h24l-27.2 38.3z"/><text transform="translate(61.5 39)" class="st0 st1">CUBEFACE ONE</text></svg>